<?xml version="1.0" encoding="UTF-8"?>
<svg id="Layer_1" xmlns="http://www.w3.org/2000/svg" version="1.1" viewBox="0 0 841.9 595.3">
  <!-- Generator: Adobe Illustrator 29.0.0, SVG Export Plug-In . SVG Version: 2.1.0 Build 186)  -->
  <defs>
    <style>
      .st0 {
        fill: #fff;
      }

      .st1 {
        fill: #e0e1e2;
      }

      .st1, .st2 {
        stroke: #010101;
        stroke-width: .2px;
      }

      .st3, .st4 {
        fill: #231f20;
      }

      .st5, .st4 {
        isolation: isolate;
      }

      .st4 {
        opacity: .7;
      }

      .st2 {
        fill: #ff8d8a;
      }
    </style>
  </defs>
  <path id="Serbia" class="st2" d="M598.7,120.5c-.6,0-1.4,0-2.5-.2-3.6-.4-6,0-12.7-.6-8.6-1.8,2.1-2-12-2.7-3.1,0-1.4-.8-9-.2-3.7.4-9.2.6-14.2.5-2.5,0,0-.7-6.4-.6-2.1,0,.2,1.1-8.2,0-7.9-1.1,0-1.9-5.1-2-2.5.2-4.4.2-5.6.7-1.7.6-7.5-.5-7.8,0-.8,1.3-4.1-.6-9-.5.6,0,1.1.2,1.3.4-.5,0-2.7,0-3.2.5,0,0-.1,0,0,0h-.5c-.2.6-4.6-.4-6.4.5,7.3.2,5.2,2.3-.9.8-1.8-.2-.9.6.7,1.2,10.9-.5,3,2.5-2.1.9-.8.4,2.6.8.8,1.5-2.1.4-6.6-.8-4.5.6-1.1.2-3.6-.5-5.1,0,0,.4.4.7-.2,1.3,2.3.2,5.6.4,7.6.7.1,0-1.8.6,1.4.9,1.2.5.6.7-1.5.8-2.4,0-4.5-.5-4.6-.6-1.5,0-3.9,0-4.7.2-1.3.4.6.7.7,1.2-.7,0-3.9.2-6.6.2,2.8,1.4,4.9,2.8,6.2,4.3,3,.9,11.5,1.1,6.9,1.7,2.7.8,5.1,2.1,9.7,2.3,0,.9.6,1.3-4.3,1.7-2.6-.5-4.1-.9-6.2-1.3,0,0,1.1-.9-.1-1.2-3-.5-3.4.4-3.1.7-5-2.1-9-2.7-7-1.3l-7,.4c-1.7-1.5-8.1-1.1-5.6,0-2.8.9-5.3,2.4-12,2.4-1.2.4,6,.8,6.4,1.2-.7.1-.7.6-1.4.6-3.2,0-5.4-.5-7.3.1-4.6.1-2-.9-5.2-1.1-2.7-.2-3.1.5-4,1.5.6.8,4.7.6,6.8.6s3.9,0,6.2.1,4.1,0,4.3.5c0,.5,1.3.5,3.4.5s2.4.7,3.9.8c1.5.2,2,.8,3.2,1.3s-.7.4-1.7.5-3.1.6-4.9.9-4.6,1.1-5.6,1.4c-.9.4-4.9.7-7.5.7s-4.9.5-7.2.8c-2.3.5-5.3.5-8.2.6-3,0-2.1.2-3.6.7-1.7.5-4.1,0-7.2,0s-3.7,1.9-6,2.5c-2.4.7-5.4.4-7.7.8s-.9,1.1-1.9,1.4c-.9.4-1.4,1.3-1.4,2s3.7.5,3.7,1.1.9.8,4,1.2c3,.4,3.4.9,2.7,1.4-.4.5-.8.9-1.5,1.2s-2.7.7-.9,1.2.6,1.2,1.7,1.9c.9.7,4.1.6,2.8.7-1.5,0-.4.7-1.3,1.4s0,1.4,1.9,1.9c2,.5-2.7,1.3,1.2,1.5,3.9.1,1.4.5.5.7-1.3.2-4.1.1-8.4.4-4.4.4-2.5.4-8.5-.7-5.8-1.2-6.6-2.1-7-2.5-.2-.4-4.1-1.5-5.3-1.9-1.3-.4-.2-1.3-3.6-.5-3.3.8-.4,2.5-5.4,4-5.1,1.5-3.9,2-3.9,2.8s6.6,2.5,7.1,4-1.7,2.4-.2,3.3c1.5.9,1.3.9-.6,1.7-1.9.7-5.1.5-8.5.5s-4,1.1-5.8,1.7-3.9-.8-4.5-1.2c-.7-.4-2.4-.2-1.9-.5.5-.4.9-1.1,1.1-1.5.4-.6-.9-.5-2.3-.4-1.4,0-3.4.1-5.8-.2s-4.7-.7-6.6-.6-5,.6-8.5.7h-2.3l-.4.2c.4.5-1.4.9-3.8,1.5s0,.7,2,1.2,3.6.9,2.8,1.3.4,1.1.7,1.5c.9.5,0,.5-.4,1.2s.8,1.2,1.8,1.5c1.1.4.5,1.8-.2,2.3s2.7,1.1,3.4,1.9,0,1.3-.4,1.8c-.1.5-.4.6,1.2,1.1s1.2.8,1.8,1.4.2.9-2,1.3-1.7.8-.7,1.2c.8.4,0,.5.2,1.4.4.8,3.7.7,5.1,1.2s-1.8,1.2-1.9,1.7c-.2.5,1.3,1.1,3.2,1.8s.4,1.3.4,1.8c-.2.5,3,.2,3.2.8,0,.6,0,1.1,3.7,1.8s3.3,1.4,2.7,1.9-1.2,3.7-.7,4.1c.5.6-4.4,1.1-5.8,1.7s5.4,0,5.8,1.2c.4,1.3,4,1.5,6.8,1.8,2.7.2,2.8,2.5,4.7,3.4,1.8.8,7,3.4,7.2,4.3.5.9-4.5,2.1-5.7,3.1l-.8.4c11.8,1.8,23.6,3.7,26.9,2.7,3.8-.9-2.8-2.7,2-3.3s14.3,0,18.8-.7c4.9-.6,7-.9,6.2.2-.8,1.2,7.1,2.6,7.5,1.1,0-1.5.1-1.8,4.6-2,4.4-.2-2.7-1.7-.1-2.5s9.6.4,2.6-1.8-6.4-2.7-4.4-3.7c1.9-.9,2.8,1.4,7,1.3,3.8-.1,3,1.4,8.9.6,6-.8,14.2-1.9,18.1-1.1h-.9c3.8.9,5.1,6.2,3.1,6.6-1.9.5-10.5-.6-9.6.8s7.2,1.7,7.5,2.4c0,.7,7.7.7,8.8,1.5.8.8.7,1.3,5,1.1,4.3-.1,3.8.7,1.3,1.4s-1.8,1.4,2,1.4-.5,2.7-5,4.4c-4.4,1.7-2.3,4.7.1,4.3s3-2,7.2-.4c4,1.5-5.9,4.6-5.8,5.7,0,1.2-.4,1.5,5.8,1.9,6,.4,4.4,2.6,6.6,3.8,2.4,1.1,7.7,1.9-1.1,4.4-8.9,2.6-13.9,4.5-11.7,5.3,2.1.8,13.5,3.4,17.4,4,3.8.6,11.1,5.1,10,6.9-1.4,1.8.9,1.8,8.1.9,7.2-.8,10.2,2.7,2.4,5-7.7,2.3-7.5,4.4-12.4,3.8s-5,1.2-11.1,2.3c-6,1.1-9.4,1.1-13.9,3s-4.1,2.8-12.1,4.1-9.8,1.5-13.5,5.6c-1.2,1.2-1.8,2.1-3.1,3.6,12.4,2.4,14.6,5.7,15.8,6.2,1.5.6,3.6-1.3,5.6-1.4s3.9,1.3,7.6,1.3,14.7-1.2,17.8,2.1c3.4,3.6,7.5,2.1,10.4-.2,3.1-2.3,8.6,3.6,9.6,5.1,1.1,1.5,4,1.9,5.4,2.4,1.7.4,10.7,4.1,14.9,4.1,4.1.1,13.2,6.6,12.9,4-.2-2.5-.9-4,6.8-2.3,6,1.3,5.8-1.1,7.6-.2.2.2,1.1.7,2.3,1.9,5,4.9,3.7,7.2,7.3,6.9h1.9c2.6-1.4,6.6-.4,15.4,1.7,5.4,1.3,5.9-1.9,11.7-2.5,4.5-3.7,13.3,3.8,21-5.7,2.4-3-2-8.2-5-11-2.4-1.7-4.4,0-4-1.7,3.4-3.2,6.6-3.1,11.4-5.8,3-4.5,11.7-3.2,12.3-6,.7-2.7-5.9-6.9-1.1-7.3,21.6,1.5,14-5,23.2,1.2,4.7-2.5,10.3-.8,11.8.8,2.7,2.7,7.7,2,14,3.2,2.5.5,7.6,2.5,16.1-4,2.5-1.9,7.3,1.2,16.5-.9,5.3-1.3,13-2.6,15.4-2.6,10.3-.2,20.5-2,17.8-4.9-1.1-.7-8.6-1.9-15.3-6.6-6.4-4.9-1.4-5.9-6.3-7.7-7.3-2.6-2.7-6-9.4-7.3-14.3-3-5.8-5.3-13.4-6.4-7.9-1.2.7-1.8-9.8-4.4-2.5-2.1-6-5.3,1.1-9.8,5.6-3.6-8.9-4.5-6.4-7.6,2.7-3,.6-4-.4-5.1-1.1-.9-.6-1.8,6.4-3.9,4.5-1.4,2.6-2.1,3.6-2.7,1.1-.6,3.2,0,7.9-3,4.1-.6,6.6.7,12,1.3,2.8.4,4.7-.5,7.9-.5s7.7.9,10.1.8c2.4-3.4,7.5-5.1,16.8-4.6,2.8-1.1,4.6-1.1,3.8-2.5-.9-1.4-12.9-3.7-15.6-5.2-2.7-1.4-1.4-4-2.1-5.1-.5-1.2-2.4-1.9-3.1-2.8,1.5-.6,4.3.4,9.5.8s4.1-1.9,9.7-1.2c5.7.7,8.3,4.1,22.2,3.6.8,0,1.4,0,1.7-.2.4,0,.5-.2.4-.5,0-.2-.4-.4-.6-.6l-1.8-1.1c-6.8-3.9-13.9-3.3-20.6-6.8-5-2.6-3.1-5.4-20.6-5-7.1.2-4.5-1.7-19.3.9-8.6,1.4-12.8,3.3-18.4,2.6-9.2-1.3-4-6.6-10.1-9.1-3.9-1.9-13.3-2.8-18.8-4-6.5-1.4-12.6-1.4-17.8-3.2-1.9-1.2,1.4-1.9,1.7-3.2.2-1.7-12.2-3.1-17.8-4.3-5.4-1.3.5-1.8-5.9-2.8.9-3.9,27.7,3.4,25.1-.4-1.7-.8-11-3.4-11-3.4,0,0-1.7-1.3-1.7-2.4,1.9-.8,4.4.8,9.2,0-2.1-.6-1.5-.9,3.2-.9.9-.6.2-1.2,4.4-.7,3.2.4,5.7,0,3.8-.9-6.3-2.7-12.2-4.3-21.9-6-3.9-.8-1.3-2.4-3.3-3.1-2.1-.7-3.2.6-7.1-.2-3.8-.8-10-3.7-10-4.1,0-1.9-3.9-1.4-2.4-2.4,1.8-1.2-6.9-2.4-6.9-2.5-.2-.6,5.1,0,7-.7,2.4-1.1-6-2,.4-2.7,5.8-.6,4.5-1.2,7.2-1.8,2.4-.6,1.7-1.1,2-1.3l-.8-.4c-3.1-.4,0,.9-7.5-.5-3.8-1.7,1.2-1.7-3.8-4.1,0-.4,0-.6-.8-.8s-2.4-.4-4.6-.6c0-.2,2-1.2,0-1.9s-7.5-1.1-7-1.7c1.9-2,0-2.5-1.2-3.2,0,0,0-.2,0-.2-2.5-.7-2-1.8-5.6-1.9-3.8-.2-4-.8-5-.9-.5,0-1.1,0-1.9,0-4.9.2-1.4-.6-5.6-1.2h.6v.8l-.2-.3ZM328.3,228.6v.5-.5ZM586.9,334.7c1.1.4,1.4,1.2,2.3,2.3,0-.9-.5-1.5-2.1-2.1h0v-.2ZM311.1,235.5h-.1.1ZM309.8,237.2l1.3,1.5h0l-1.3-1.5ZM311.8,240.8v.4-.4ZM439,298h-.4c-1.9,1.2-3.7,1.7-5.3,1.8,1.7,0,3.6-.5,5.8-1.8h-.1ZM422.3,298.5c-3.3.4-7,1.1-8.5,1.2-9.5,2-15.5,6.6-22.3,6.6,7.1.5,13.3-4.6,23.2-6.6,1.4-.2,4.5-.8,7.7-1.2h-.1ZM299.9,253.7h-.7c-1.2,0-1.9-.1-2-.4,0,.2,1.1.2,2.1.4h.6ZM342.7,288.2h-.8.8ZM324.4,288.8h-1.7c0,.1-2.6.5-2.6.5l3.2-.4h1.1ZM308.2,291.3c-4.7,1.1-5.3,2.1-8.4,3.8-5.1,2.5-10.5,4.1-16.5,4.9,6.2-.6,11.8-2.3,17.1-5,3.1-1.7,3.3-2.6,7.8-3.7h0ZM280.3,290.8c-1.2,0-2.4.1-3.4.2l3.4-.4h0v.2ZM276.8,291l-2.1.2,2.1-.2ZM267.7,293.6h-3.3,3.3Z"/>
  <path id="Croatia" class="st2" d="M399.7,84.9c-.7-.2-10.1-.5-10.9-.2-1.7.5-2,.8-3.2,1.2.8.2,0,.5-1.3.6,0,0-.8,0-1.7-.2-.9-.2-.9-.4-.9-.4-1.7.2-2.8,0-2.8-.4s.7-.5-.7-.6c-1.7,0-3.8-.6-5-.5-1.2,0-.9.8-2.1.7-20-.5-15.9-.9-18.2-.8-2.5,0-1.3.4-5.8.5,0,0,.9,0-.1-.4s-2-.6-3.4-.6c-2.7,0-5.2.4-8.2.5-.4,0,.6,0-.6.4-3,.7-1.1,1.1-.1,1.8-.2,0-2.7.4-3.8.5-2.1.6-4.7.7-7.7,1.1-.4,0-2.3,0-2.5.4-.1.2.6.7-.8.5s-3.3-.2-4.1,0c0-.2-2-.9-2-.9-1.1,0-1.3,0-1.3,0,0,0-3.3.2-3.6,0s-.9-.4-1.9-.2c-1.1,0-.9.4-1.5.2-.6,0-1.5-.4-5.9-.6-4.1-.2-6.8,0-8.1,0-2.5.6-1.7.6-1.9,1.1,4.7-.7,3.4.4,1.9,1.1-3.3,0-1.3-.5-2.7-.5-.9.2-2.4,0-4.4,0-5.4.6-9.2,1.7-5.4,2.4,1.1.2-4.6.2-5.7,0-.5-.7-4.1-.7-5.3-.5-1.5,0-3.7-.5-3.9-.5,1.5-1.3-1.5-3.3-4.9-2.8-1.9.2-1.8.5-4.9.2-3,0-.5-.8-3.1-2.3,0-.2,3.6,0,3.6-.7s-1.4-.8-.2-.9,4-.2,3.7-.6c-.6-.5-6.6,0-9.1,0s-1.3.2-4.9.6c-5.8.2-9,0-13.4-.2-1.2-.5.8-.7-1.1-1.1-1.3-.2-3.8.2-3.8.2-2.6-.5-3.3-.9-4.4-1.7,1.2-.6-3.7-1.1-3.8,0-4.6.6-.6-.5-9.1-.2-.6-.2-1.4-.5-.6-.7.8-.6-.9-.6-3.8-.8-2.3,0-2.1-.8-2.8-1.3,0-.4,1.2-.6-.5-.6h-1.9c0,0-1.2.5-1.4.7-.4,0-2.6.2-3.6.6-.9.5-3.9.7-5.1.8s-1.1.4-.2.5c.9,0,1.4.2,1.4.2h-3c0,0-.6.4-.6.4,0,0-.2-.2-1.7,0s.5,0-.4.2c-.8,0-4.7.5-5.2.6s-.9.2-1.2.4c-.5,0-.6,0-1.8.2-1.1.2-.6,0,0,.4.8,0,.8.4,1.4.4s1.8,0,2,.2c.2,0,.4.4.4.4,0,0-.8-.4-1.3-.4s-.7,0-1.1,0h-.8c-.5,0-.7-.2-1.1,0-.5,0-.6.2-1.2,0h-1.1s.6.2-.8.5c-1.4.2-2.4,0-1.8.2.6,0,1.2.4,0,.6s-1.3.2-.8.4c.5,0-1.1,0-1.1.2s-.7.4-.4.5c.4,0-.6.7-1.7.9-1.1.2-1.7.6-2.7.6s-1.7,0-1.8.2c-.2,0,.4,0,1.1,0s.8,0-.2,0-1.8,0-1.4-.2l.2-.2s-1.4,0-1.4.2c-.1,0,.7.2.6.4,0,0-1.3,0-1.7.2s0,0,.4,0h1.1-1.1.4c0,0-.4,0-.4,0,0,0-.5,0-.6,0v.2h-.2s-.6,0-.6,0h1.4c.2,0,.4,0-.2,0s-1.1,0-1.9.2c-.5,0-.5,0-.4.2h.5c0,0,.1,0,.4,0s.5,0,.8,0h.9c.7,0,.8,0,1.1-.2.2,0,.5-.2.8-.2s.5.2.1.4c-.4,0-1.2,0-.4.4.8.2,2.1.4,2.1.4l.6-.4h-.7.1c0,0,1.4,0,1.4,0,0,0-.1,0,.4-.2h2.1c.6,0,.8-.2,1.7-.2h1.2-.2.2c0,0,.4,0,.4,0,0,0,1.1.2,1.7,0,.6,0,2-.2,2-.2l-.2.2h.7c.6,0,1.5,0,1.7-.2l.5-.4.4.2h.8c.7,0,1.5,0,2.1,0s1.4,0,1.5-.2c.1,0-.4-.2-.2-.4,0,0,.9,0,1.4,0s.2,0,.7-.2.9,0,1.7,0h-.2c-.8,0-1.3,0-1.4.2-.2,0-.1.2-.7.2s-.8,0-.5,0,.8,0,.8,0c0,0-.5,0-.9,0-.4,0-.8,0-.8.2h-1.3c-.8,0-1.5,0-2,.2s-.6,0-.6,0h3.3c.6,0,.9,0,.8,0h-.4v.2c.7,0,1.3,0,.9,0s-1.2,0-.4,0,2.4,0,3.1,0,2.3-.4,2.8-.6l1.8-.6v.2c.2,0,.5,0,.8,0,.6,0,0,0,.6-.2.5,0,1.2-.2,1.1,0s0,0,1.1,0c.9,0,3.3,0,3.7-.2.4,0,.6-.4.6-.4l-.2.4h1.4c.7,0,1.3-.2,2.6-.2s2.5-.2,3.2-.2,1.1-.2,3.4-.4c2.5-.2,4.5-.5,6.2-.6s3.7-.2,5-.4h2.1s-.1.2.5.4c.7,0,1.1.5,1.4.6.2,0,.9.4.8.6-.4.2,0,.5-.1.6.1.2,1.2.5,1.2.5h.8c0,0,.2-.4.2-.4.1,0,.2-.2.4,0,0,.4,0,.5-.5.4s-.1,0-.6,0-1.1,0-1.4.4c-.1,0,0,.6-.6.7s0,.2-.4.7c-.5.5-.2.8-.6,1.1s-.8.2-.6.5c.4.2.8.4,1.3.6s-.4.4.6.5c.9,0,.4,0-.4.2s-.4,0-1.7.5-2.4.7-3.1.9c-.8.2-.9.4-1.5.5s.4.4-1.9.7c-2.3.2-6,.6-7.2.8-1.3.2-2.3.2-3.3.4-.9,0-4.4.7-6.2,1.1s-2.5.7-3.6.8-2,0-3,.5-2.4.9-2.6,1.2c-.5.4-2.4.8-3,1.1-.7.2-.5.7-1.1,1.3-.5.6-2.4,1.5-2.4,2s-1.3,1.7-2,2.4c-.8.7-.7,1.5,0,2s1.1.8.2,1.2c-.7.4.4.5,0,.7-.5,0,.5.4,1.1.4s-.5.7-.5.7c0,0-2.3-.5-2.7-.8-.4-.4-.9-.5-1.9-.6-1.1,0-2.3-1.1-1.4-1.4s.9-.4.8-.8c0,0-.2,0-.4-.2.2,0,.6,0,.9-.6,1.2-1.7,4-3,3.3-3.7s-3.2,0-2.7-.7c.5-.8.8-1.9,1.7-1.3s.7,2.8,2.6,1.4c1.9-1.4,4.7-2.8,3.4-3.2-1.2-.2-5.1.8-3.1-.7s4.1-2.8-1.3-.5c-5.7,2.4-5.6,3-6.6,4.3-2.5,1.7,1.1,2-1.7,2.3-2.6.2-5.8.8-4.9,1.4,1.2.6,1.5-.5,2.7,0,1.1.5,2.6,1.4,3.8.6.7-.4,1.1,0,1.4.2-.5,0-1.2.2-1.3.4-.1.4.2.6-.5.7-.6,0-1.2-.4-1.7,0-.5,0-1.5.7-2,.7s-1.2-.7-.5-1.2c.8-.5.5-.5.5-.5l-1.2.2.4-.4h-1.4c0,0,0,.5-.6.6-.6,0-1.9.2-1.9,0s-.4-.2-.4-.2l-.8.2,1.7-1.1h-3.2s.5.2,0,.4,0,.2-.5.5c-.4.2-.6.2-1.7.4s-1.3.2-1.9.2-.6,0-.9.2-.2.8-1.9,1.2-.5.5-.9.5-1.4.5-.8.7c.6.2-.5.5-1.5.7-1.1.2-.8.4-.4.5s-1.8.2-1.4.4c.6,0,.8.7-.6,1.2-1.5.6-.9,1.4-1.4,1.7s-2.1.4-2.3.7c0,.4,1.3.8.9,1.1s-1.3.4-1.4.7v.9h.1c.1,0,0,.2.4.4.8.2.5.7-.2,1.1h-.2c-.2,0-.4,0-.4.2h-.2c0,0,.1-.2.1-.2h-.1c-.1,0-.2,0-.2-.2-.1,0-.4,0-.5,0s-.4-.2-.5-.4h-.6.2-.2s.1,0,0,0c-.4.2-.5.4-.4.5h.1c0,0,.1.2.2.4,0,0,0,0-.2.2l-.4.5h0c-.1.2-.2.4,0,.5.5,0,.8.4.9.5,0,0,0,.2.4.2.9,0,1.1,0,1.1.5s-.1.9.1,1.1,0,0-.6.2-1.1.6-.6.7.8,0,.6.2c-.4.4-.8.5-1.2.6-.4,0,.4,0,0,.2-.1.2-.5.5-1.1.6-.5,0-.7.2-.6,0,0-.4-.7-.2-.8,0-.2,0,.4.4.1.5-.4,0-.7,0-1.2,0s-.4-.4-1.2,0c-.7.4-1.5.6-2.6.7-.9,0-1.4,0-1.4.2s.5.2-.6.2-2,0-1.8.4c.4.2.9.2,0,.2s-1.7-.2-1.3,0,.9.6,0,.7c-1.1,0-2.4.4-1.1.4s1.4-.2,2-.1c.6,0,.5,0-.2.2-.8,0-.4.2-1.3.2h-1.7c-.6-.2-2.5-.2-1.7,0l1.5.5c.5.1.4,0-.5.1-.6,0-.6.4.4.4s1.4,0,1.2.2-1.4.5,0,.6c1.4,0,1.4-.1,1.3.1s-.9.1.6.5c1.8.4,2.6.6,2.3.2-.2-.4,0,0,1.5.2,1.8.2,2.4.1,2.6,0,0-.2-1.3-.7-1.4-.8,0-.1.2-.5,1.4,0,1.1.5,1.1.9,2.4.9,1.2.1,2.5,0,2.4.4,0,.2.7.2.4.4-.4,0-.6.4-1.2.1-.7-.2-.6-.5-1.3-.5s-1.9-.2-1.9,0c.2.2.6.4,1.1.5s0,.1-.6,0c-.6,0-1.5,0-.5.1,1.3,0,1.9.2,3.1.2s.6,0,.7,0h-.4l1.2.4c2.3.7,2,.6,3.6.9,1.4.4,2.8.4,2.3,0-.7-.2-1.5-.4-1.8-.8-.5-.5-.1-.7-.9-.9s-1.3-.2-1.1-.4c.2,0,1.4,0,1.9.1s1.4,0,2.7,0,2.4,0,3.3.4,2.1.6,2.7.9c.8.4,2.3.6,2,.7s0,0,0,0c-1.7-.2-2.7-.4-3.3-.5-.6,0-.2.4-1.4.2s0-.4-1.4-.4-2,0-.9.2c1.2.4,1.2.6,1.8.6h.1c.1.1.6.4,1.4.5,1.1,0,2.4.5,3,.6.7.1-.1.7-.4,1.1-.2.4.9,1.5.6,1.8-.2.2.8.6,1.9.6s1.4.2.7.5c-.5.2-2.1.7,0,1.3s5.7,2,6.4,2-.2.5-.4.7-.1.7-.5,1.1-.5.7-1.5,1.3-2.4,1.9-2.3,2.1c.2.2-.7.9-1.5,1.1-1.1,0,.7.1,0,.4s.2.8-.5.9c-.6.1-2.1.6-.9,1.1,1.3.5-1.8.8-.5,1.3s1.4,1.2,2,1.5.8.6.2.9-1.7.5-.8.8c.9.2.8.4.9.6,0,.2-.1.4-.4.6-.4.2-1.1.5-1.4.6-.4,0,0,.2,0,.4,0,0-1.2.4-1.2.6s.1.5-.4.7-1.2.7-.4.6.5-.2,1.5-.4h1.4c-.1.1.4.2-.7.2s-2,.4-2.3.5c-.3,0-.2.1.2.2.6,0,1.2.1,1.7.2h.5-.2c0,.1-.4.1-.4.1,0,0-.4.1-.8.1-.9,0-1.1,0-1.5.2-.2,0-.4,0,.4.1.8,0,1.3,0,.4.1s-1.4.2-1.8.5-.1.4-.8.5-1.8,1.8-1.7,2c0,.2.4.5.8.7,0,.1.1.2.2.4.5.2,3.1.6,4.5.8,1.3.1,2.6-.2,5,0,2,.4,4.3.6,4.3.6l9.8-4.7c-.9-2-.7-4.1-3.2-5.9,0,0,4.9-.6,5.3-1.3-.4-.8-2.3-1.7,0-2.7,2.5-1.4,5-3,9.2-4.4,0,0,4.5,0,7.5-.7.7-1.3,4.7-1.7-3-2.8.5-1.3.4-2.5-.5-3.7.4-.8,2.1-2.5,2.7-3.1,1.3-.9,3.2-2,3.3-3.1-.2-.5,1.2-.5,1.4-.9-.7-.7-2.7-1.2-.5-2,3.4-1.1,5.9-1.5,4.5-2.8.8-.8,2.1-1.7,1.2-2.5-.1-.2.6-.4,1.4-.6.9-.5,2.4-.9,3-1.5l-3.2-.8s3.2-.6,3.9-.8c-.5-.4-3.7-.8-1.5-1.4.5,0-1.2-.6-.6-.8l2-.6,2.4-2.4c.6-.2,2.8-.5,2.7-.8,2.3-.5,2.5-1.2,6.5-1.3.7,0,3.7,0,3.4-.6l-1.8-.4c-.2-.2,2-.7-.7-.7l1.3-.4c1.2,0,1.7.5,3.2.2,0-.2,1.3-.5-.2-.6l3-.5s1.7,0,2.5-.5c.7-.4,3.2-1.2,2-1.4s-1.1-1.1-1.1-1.1l2-.5s.2.2,1.3.2c1.8-.4,5.1-.6,5.2-1.2-.2-.6-2.3-.9,1.1-1.7.5,0-.6-.2-1.3-.2l1.5-1.1c-.9,0-4.3.5-3.2,0h-2.7c.1-.6.5-1.7,4.5-2.6.9,0,2.8.4,4.7.2.8-.4-1.3-.8,2.1-.9,3.3-.8,2.5-1.2,7.1-.9l2.8-.4v-.5l2.4-.8c1.4,0,3.9,0,3.9-.2h3.4c2-.7,2-1.2,6.2-1.3,2.7,0,5,0,6.4.4.8,0,3.7,0,2.7.4-1.1.2-.9.4.2.4s2.6,0,3,.4c-.9.7-2.6.6-1.3,1.1-.2.2-.9.9-1.4,1.1s-2.4.2-2.1.5,1.9.7,1.7,1.1c-.9,1.4-1.7,1.9,3.9,2.8,2,0,3.6-.7,6-.5l2.6-.5c2.7,0,2.8-.5,5.2-.2h4.9c1.4,0,1.8-.4,2.1-.5.5,0,1.9,0,2.6-.2s3.7,0,4.1,0,0,.4,1.7.4,2.7,0,2.7.2c-.1.2,1.8,1.3,1.8,1.3,0,0,2.6,0,3.2.2.5.2,1.9,1.1,3.3,1.2,1.5,0,2.4,0,2.5-.2,1.3,0,3.7,0,4.9,0h5.2c.6.2.5.6-2.1.7-2.3,0,2.1,1.2,4.3,1.2s-.6.4-.4.7c0,.4,1.3.8,2,1.3.4.2-.5.4,1.3.7s3.6.7,5,.5c1.5-.2,3-.2,3-.2.1.5,1.8.6.4,1.2,0,0-.5.2,2.4.7,2.7.6,4.5,0,4.9.2s-2,.6-2,.6c1.8.6,3.7.9,6.8,1.4.2,0-1.2.4.7.4s4.7,0,5.6.2c.6.2,0,.4.6.6.8.2,1.5,1.1,2,1.2.7,0,1.3.2,1.3,1.1.4.8,3.1.9,7.1.9s2.8-.2,3.6-.4c.7-.2,2.1,0,3,0s3.2-.5,4.3-.4c.9,0,2.5,0,1.4.6-1.1.4,1.2,0,2.1,0,.9,0,.9.5.8.6,0,.2-2,0-1.8.4s0,.9,1.4,1.1,1.9.5,3.4.7,4,.2,4.5,0c.4-.4.1-.8,3.8-.5,3.6.4.6.7,1.3.9.7,0,1.4,0,1.3.5,0,.4,6.2.9,6.9,1.1.8,0-.2.7.1,1.2,1.7.4,3.2.8,5.3.9.7-.9,9,0,7.1,1.1,4.7-.2,6.2.8,1.7.9.4.5,1.2.2,1.2.8s-1.9.6-1.9.8c4.7,0,2.4,2.7-.8,1.8-.6-.5-2.4-.4-2.3,0s-1.4,1.5.9,2.4c3.7.9,8.5,1.7,12.7,2.4.9-1.1,1.2-1.7,4-1.5,3.2,0,.6,1.2,5.2,1.1,1.9-.6,4.1,0,7.3-.1.7,0,.7-.5,1.4-.6-.4-.4-7.6-.8-6.4-1.2,6.6,0,9.1-1.4,12-2.4-2.4-1.2,4-1.7,5.7,0l6.9-.4c-1.9-1.4,2-.8,7.1,1.3-.4-.4.2-1.2,3-.7,1.4.2.4,1.2.4,1.2,1.9.2,3.4.7,6.2,1.3,4.7-.4,4-.7,4.1-1.7-4.7-.1-7.1-1.4-9.8-2.3,4.6-.6-3.9-.7-6.9-1.7-1.2-1.4-3.3-2.8-6-4.3,2.6,0,5.8-.2,6.6-.2,0-.4-1.9-.8-.6-1.2.8-.2,3.2,0,4.9-.2.1,0,2.4.7,4.5.6,2.4,0,2.7-.4,1.7-.8-3.3-.4-1.2-.7-1.4-.9-2.1-.5-5.4-.6-7.6-.7.5-.6.2-.9.4-1.3,1.5-.4,4,.2,5.1,0-2.1-1.4,2.3-.4,4.5-.6,1.4-.7-1.8-1.2-.9-1.5,5.2,1.5,13.2-1.4,2.3-.9-1.7-.6-2.5-1.4-.7-1.2,6.3,1.3,8.4-.7,1.1-.8,1.9-.8,6.3,0,6.5-.5-.4-.8,2.7-.6,3.4-.7-.5,0-2.5-.5-2.5-.5-1.4.5-3.6,0-3.4-.4-2,0-2,.4-3,.6-3-.6-3.2-1.1-4.7-1.8l-2.8-.2c-3.8.6-3.1.4-6.8.7,0,.5-4,.4-5.6.2-1.1.4-3.7,0-5.3,0l-.7-.4c-1.1.7-3,.2-4.7,0-2,1.1-3,0-4.6,0,3.6-.7-3.3-.7-3.7-.7l-1.9-.6c-2,0-2.3-.4-3.6-.6-1.1-1.2-5.1-1.3-8.8-1.4l-4.1-.9c-.7-.8-7.5-1.3-10.1-1.1-.4-1.7-4.7-2.4-6.2-3.7.8-.7-.1-1.2-.8-1.9-3,0-4.4-.8-5.9-1.2-3.2.5-7.2-.8-3.9-.7.5,0,1.3.2,1.8,0-1.5-.5.4-.2,1.1-.6-1.5,0-3.4,0-5.2-.2.9-.2,1.7,0,3.7,0-3.7-.4-1.9-.6-3.4-1.1,2.3,0,3.3-.2,3.4-2.4,0-.4-5.2-.5,0-.5,0-.6-2.6-1.4-5.6-2.4l.9-.2h-1.3c.2-.6-.6-.8-1.1-1.2,3.3-.6,2.5-.9,3.3-1.5-1.3,0-.8-.2-1.3-.4l-2.8-.5c1.8-.4-.4-.4-1.2-.4l1.5-1.2c-1.2-.2-1.9-.7-3.7-.8-1.9-.9-3.7-2-4.9-2.4h-.6v.8l.5-.5ZM143.4,119.5c.2,0,.5-.2.7-.4.6-.4,1.3-.6-.6-.5-1.9.2-1.8.2-2,.4-1.1.7.2.6-.9,1.1-1.1.5-.4.7,0,.8s.8,0,1.8-.5-1.1,0,0-.6c.4-.2.8-.2.9-.4h.1ZM222.7,88.1c-1.7,0-6,.6-8.1.8-2.3.2-3.3.5-3.4.2s-1.5-.4-3.4,0-1.7-.4-4,.2c-2.5.6-1.2,1.4,1.8,1.8,3,.2,2.3.5-.2.7-2.6.4.1.9-.4,1.5s2.7.2,3.1,0c.5-.2,2.6.5,3.9.5s1.9-1.2,2.8-1.8.4-.7.5-1.2,4-.5,4.3-.8c.2-.4-1.8-.5-.5-.5s2.4,0,4.1-1.4c0,0-.2,0-.6,0h.1,0ZM207.8,87.1c-1.1,0-4.4,0-6.9.4-3.4.4-1.3,1.1-5,1.9-3.7.9-7.2,1.9-8.1,1.5s1.7-1.1-.6-.8-3.6.5-7.3,1.4c-3.9.9-9.6,2.4-11.6,3.4-2.1,1.1-1.4,1.1.1,1.3,1.7.2,3.2-.8,10-2.4,6.6-1.5,10.5-1.9,15.3-2.6s4-.6,2-.6,1.7-.7,5.2-1.9c3.8-.8,6.4-.7,7.1-1.3.2,0,0-.2-.4-.2h.2ZM196.8,94.5c-.7,0-1.4,0-2,.5-1.1.5-2.5.4-2.4,0,0-.2-2.1-.7-3.1,0s.7.6,1.5,1.4c.7.9-1.7,1.1,0,1.2,1.9,0,3-.7,3.8-2,.5-.4,3.7-.7,2.6-1.1-.2,0-.5,0-.7,0h.3ZM169.3,93.4c-.5,0-1.8.2-4.1.8-3.4.8-3.2.7-5.2,1.1s-3.2.6-.6.6-.5.5-1.4,1.3c-1.2.8-1.4.9-.2.9s2-.5,2.5-1.4,3.2-1.5,6.4-2.3c2.6-.5,3.2-.4,3.1-.8,0,0,0,0-.2-.2h-.3ZM163.2,101.2c-.6,0-2.6,0-3.2.2-.8.2-3.8,0-3.3.5.8.5.5.7,2.5.2,1.9-.5,2.8-.5,3.9-.8.2,0,.2,0,.1,0h0ZM149.3,103.6c-.4,0-.9.2-1.8.7-.1,1.1,1.4,2.3,2.1.8.5-.8.4-1.5-.4-1.5h0ZM143.7,105.3c-.2,0-.7.2-2,.8-5.1,2.1-5.1,3.4-7.7,4.5-2.7.9-1.5.8-2.5,1.1-3.4,2.1-3.3,2.8-3.7,4.7-.5,1.9-1.2,3.9.8,1.9s1.2-2.7,3-3.7c1.9-.8.8-.7,2.5-1.9,1.7-1.2,1.2-1.4,3-2.5,1.9-1.1,3-.4,4.1-2,.5-1.2,3.2-3,2.4-2.8h.2-.1ZM150.7,108c-.5,0-1.5.5-3.6,1.8s-2.3,2.7-4.7,4.5c-2.6,1.9.7,3,1.2,2.3s3.6-3,4.1-3.9,2.4-2.8,3.1-3.8c.4-.5.2-.9-.2-.9h.1,0ZM132.2,134.9c-.9-.4-2-.4-3.2.1-1.3.5-.7.7.5.9,0,.8,0,.7.2,1.3.4.6-.2,1.7,1.2,1.7s1.7-.5,3-1.3c1.2-.8,1.4-.8.6-1.5s-1.7-.9-2.6-1.3h.4,0ZM141.8,138.2c-.7-.2-.9-.2-1.9,0-1.9.6-2.1.8-3.6.8s-2,.2-2.3.4c-.5.1-1.7,0-1.3-.2s-1.2-.2-1.2.6,2.1,0,1.3.8c-.9.8,0,2,5.3,3.4,12,2.7,14.1,3,18.4,2.5,4.1-.4,3.1-.5,1.1-2.3-1.9-1.7-8.2-3.8-12.3-4.9-1.9-.5-2.7-.9-3.4-1.2h-.1ZM129.7,143.3c-1.3-.2-3-.2-3.6,0s1.1.5.2,1.2c-.8.6-.2.6-1.9.4-2-.2,0-.7.4-1.3s-1.9-.8-3.3-.9c-1.5-.1-3.8-.2-4.1-.6-.2-.4-1.9-.5-2.1,0,0,.4.9.6.6,1.3,0,.6,1.1.6,1.4.8.5.2.6.7,3.6,2.3,3.1,1.5,1.4,1.3,4.4,2,3,.7,4.7.6,8.2,2.1,3.3,1.5,13.6,4.1,18.2,4.9s3.6,0,1.7-.6-4.6-1.4-8.5-3c-3.8-1.5-5.8-1.5-13.7-3.8-1.5-.6-.5-.5-.8-1.1s2.4,0,1.5-.5c-.8-.6.7-.6,1.5-.8s-1.5-.4-2.1-.7-1.8-.5-2.3-.7,2-.5.9-.7h0v-.2h-.2ZM134.7,155c-.5-.1-5.3.9-5.3.9,0,0,0,1.4,2,2.1,1.9.8,5.9,1.2,6.3,1.7.2.5,1.9,2.6,1.5,3.4s3,1.2,2.8,2.1c.1.9-3.2.1-3,1.5.4,1.4,7.7,7.2,9,7.2s3.4-2,3.4-2l-.4,3s4.6-.7,4.3.7c-.2,1.4-1.4,2.7-1.3,4.6,0,1.9,1.4,3.2,1.4,3.2,0,0,.6,1.3-1.2,1.1s-3.1.1-1.1,1.5c1.9,1.4,2.4,2.3,3.6,2.4,1.3.1,2.3,1.1-.5,1.4-2.7.4-5.9,0-5.1,2.7.7,2.7,2,6.2.9,8.4-1.1,2.4-.9,3.3-.9,3.3l4.3-1.8,1.5-2.7-.2-1.3,4.4-.7,5.2-2,1.7-.5s-.4-.4-.5-.8c-.1-.4,0-.8.1-1.3.5-.4.8-.8,1.1-1.2.4-.4,0-.7-1.1-.8-2-.2-6.6-.8-7.9-.9h-.9c0-.1,0-.7.2-1.3h-.1c.2-.4.1-.5.6-.7.7-.5,1.3-.8,1.7-1.1l.4-.4s-.2,0-.5-.1c-1.1-.1-2.1,0-.7-.7,1.4-.8.4-.7-.4-1.2s-.6-.4-.7-.5c0,0,.1-.1.7-.1,1.1,0,3-.2,3.1-.6.2-.4-.9-.6-.6-1.1,0-.4,1.1-.9,0-1.5-.5-.2-1.1-.4-1.4-.5s-.1,0-.1-.2c.1,0,.4,0,.6-.2,1.4-.6,2.3-.6,1.3-.9-1.1-.4,1.3-.9-.2-1.7s-3.1-.8-2.3-1.1,2.7-.4,3.1-.5.5-.4,0-.6c-.6-.2.4-.8,1.3-1.2,1.1-.4,2.1-.6,2.6-.8.6-.2,1.3-1.3.8-1.7h-.7c-1.1,0-3.7.2-3.8.2-.2,0-.2-.5-.2-.8s-.7-1.1-2-1.4l-1.7-.6-4.1.2h-2.1c.6,1.3-.8,1.5,1.3,1.5h.9c-.2,0-.9.2-1.3.7-.5,1.1-2.1,0-2.3-1.7,0-1.5-3.2-3.2-2.7-3.6s-1.5.6-1.5.6c0,0-2.4-1.2-1.5-1.9s3.4,0,.5-3c-3.1-2.7-6.5-3.6-9.6-4.9s-2.8-2.3-3.4-2.4h.8v.6ZM93.2,142.5c-1.1-.2-2.5-.6-4.1-1.1-3.4-.9-6.5-1.3-7.2-.7-.8.5.6,1.1-2.3,1.2-3.1,0-1.7,0,2,.9,7,.9,9.6,1.1,11.7.5,1.1-.4.7-.5,0-.7h0ZM123.1,156.2c-1.3-.4-2.5-.5-3.6-.7-2.1-.4-5,.2-6.8-1.5-1.5-1.7-1.8-2.1-4.1-2.7-2.3-.6-4.7-.7-3,.2,1.8.8,2,.9-.2.8-2.5-.1-3.7,0-5.2,0s-2.6.2-2.3.8,3.3-.5,3.4.7c.2,1.1.8.2.8.8,3.3,1.1,1.8,1.9,7.9,2.5,6,.6,6.8.6,10.9,2.1,4,1.5,7,2.3,8.8,2.1,1.8,0-2-.4-.7-1.1,1.1-.6,2.4-.8-1.3-2.4-1.3-.6-2.8-1.2-4.7-1.7h0,0,0ZM126.7,167.6h-1.3c-2.6-.2-7.2-.8-5.6,0,1.7.9,3.6,1.8,4.1,2.5.7.7,2,1.4,2.3,2,7.1,3.9,8.5,4.4,9.6,4.7s2.8.6,1.8-.7-3-3.1-6.4-4.6c-3.2-1.5-3.1-2.6-4.9-3.2s.6-.7.4-.8h0,0,0ZM149.5,177.3c-.6,0-1.2.6-1.8,1.5.7,1.2,0,1.7,1.9,1.3,1.8-.4,2-.7,1.4-1.9-.5-.6-1.1-.9-1.5-.9h0ZM93,159.4c-.9-.5-2.4-.7-4.3-.4-3.6.6-2.6-.2-3.2,1.7,3.3,1.3,11.4,1.4,9.7.5-.7-.5-1.3-1.2-2.3-1.7h.1Z"/>
  <path id="Bosnia_and_Herzegovina" class="st2" d="M341.3,107.5h-5.2c-1.2.2-3.6,0-4.9.2-.2,0-.9.4-2.4.2-1.5,0-2.8-.9-3.4-1.2s-3.2,0-3.2,0c0,0-2-1.1-1.9-1.3,0-.2-1.1,0-2.7-.2-1.5,0-1.2-.4-1.5-.5s-3.4-.2-4.3,0-2.1,0-2.6.2c-.5,0-.7.4-2.1.5h-4.9c-2.3-.2-2.5,0-5.2.2l-2.6.6c-2.4,0-3.9.4-5.9.5-5.4-.9-5-1.4-3.8-2.8.2-.4-1.5-.7-1.8-1.1-.2-.2,1.5-.5,2-.6s1.2-.8,1.4-1.1c-1.3-.5.5-.4,1.3-1.1-.4-.4-1.7-.4-3-.4s-1.3,0-.2-.4c.9-.2-1.9-.2-2.6-.4-1.4-.6-3.7-.2-6.4-.4-4.1,0-4,.6-6.2,1.2h-3.3c0,.6-2.5.4-3.8.4l-2.5.8v.5l-2.7.4c-4.6-.2-3.8.2-7.1.9-3.3,0-1.3.6-2.1.9-1.9,0-3.9,0-4.7-.2-4,.9-4.4,2-4.4,2.7h2.6c-1.1.5,2.1,0,3.1,0l-1.5,1.1c.7,0,2,0,1.4.2-3.3.7-1.2.9-1.1,1.7,0,.7-3.4.8-5.3,1.2-.9,0-1.3-.2-1.3-.2l-2,.5s-.1.8.9,1.1-1.4,1.2-2.1,1.4c-.7.4-2.5.5-2.5.5l-3,.5c1.4,0,0,.5,0,.7-1.4.2-2,0-3.3-.2l-1.2.2c2.8,0,.5.5.7.7l1.7.4c.2.6-2.7.5-3.4.6-4.1.2-4.4.8-6.5,1.3,0,.4-2.1.6-2.6.8l-2.3,2.4s-1.5.5-2.1.7c-.5.2,1.1.7.6.8-2.3.6.9,1.1,1.4,1.4-.6.2-3.9.8-3.9.8l3.2.8c-.6.6-2,1.1-3.1,1.5-.7.2-1.5.4-1.3.6,1.1.8-.2,1.7-1.2,2.5,1.4,1.3-1.1,1.8-4.4,2.7-2.3.8-.2,1.4.4,2,0,.5-1.7.5-1.3.9-.1.9-2.1,2.1-3.3,3.1-.7.5-2.4,2.1-2.7,3.1.9,1.1.8,2.4.5,3.7,7.7,1.2,3.8,1.5,3.1,2.8-2.8.7-7.5.7-7.5.7-4,1.4-6.6,3-9.2,4.4-2,.9-.4,1.9.4,2.7-.7.8-5.4,1.4-5.4,1.4,2.6,1.8,2.4,3.9,3.1,5.9l-9.8,4.7-4.3-.6c-2.3-.4-3.6.1-4.9,0-1.3-.2-3.9-.6-4.5-.8s-.1-.2-.4-.4c-2.4.6.2,1.9,1.8,2.5v.5l4.1-.2,1.7.6c1.2.4,1.9,1.1,1.9,1.4s0,.8.4.8,4.3-.6,4.7-.2c.6.4-.2,1.4-.8,1.7-.5.2-1.7.5-2.6.8s-1.9,1.1-1.4,1.2c.5.1.2.5,0,.6s-2.4.2-3.1.5.6.4,2.1,1.1-.7,1.3.2,1.7c1.1.4,0,.5-1.3.9-1.4.6,0,.4,1.1.9.9.6,0,1.2-.2,1.7-.1.4.7.7.7,1.1s-1.9.5-3.1.6c-1.2,0-.7.2,0,.6s1.8.4.2,1.2c-1.4.8-.2.5.7.7,1.2.1,0,.7-1.4,1.5-.4.2-.6.4-.6.7h.1c.2.6.4.9.7,1.4,1.3.1,5.9.8,8.1,1.1,2.4.2.8,1.2,0,2s.1,2,.1,2l-1.8.5c.6.1,1.2.2,1.9.2,1.1,0,2.6.9,7.1.2.5-.4.9-.6,1.2-.8l-.6.7c1.3.4,2.7,1.4,2.7,1.4,0,0,2.5-.2,2.3-1.4-.4-1.1.8-1.8,4.1-1.5,3.3.4,4.4.9,6,0,1.5-.9,1.3-1.2,4-1.8,3-.6,2.7-1.1,2-2.3,1.3-2.7,7.6-3.6,14.2-4.6,1.8.1,4,.8,6.6.4,2.7-.4,3.8-1.7,6-2.3,2.4-.4,13.7-1.8,14.7-1.9.9-.1,2.6,2.3,4.5,2.5s5.2.8,7.3-.4c2.5-1.2,9.7-4,12.6-4.6s8.4-.6,9.8-.9,1.7-1.9,3.6-2c1.8-.1,11.7.6,12.7.5s4.5-.8,5-.7,6.8.8,6.9,1.1v1.9c-.2.2-3.6.6-3.3,1.8s.5,1.4,4.9.9,7.1.2,9-.1c1.8-.5,2.8-1.1,2.8-2-.1-.9,4.6-2.6,4.5-3.1-.5-.5-3.8-.6-3.9-1.5,0-.9.2-2.3,1.4-2.3s2.7.7,7-.2,2.6-.2,2.5.4c.1.6,1.3,1.7,3.1,1.9,2,.1,3.7.4,6.3.6,2.6.2,2.8.4,4.4.9,1.1.4,1.1.8,2.5.8h2.3c3.4-.1,6.6-.6,8.5-.7,1.9,0,4.3.2,6.4.6,2.3.4,4.5.2,5.7.2s2.6-.2,2.4.4c0,.5-.6,1.2-1.1,1.5s1.2.1,1.9.5c.7.4,2.7,1.7,4.5,1.1,1.7-.6,2.3-1.7,5.6-1.7s6.8.1,8.5-.6c1.9-.7,2.1-.7.6-1.7-1.3-.9.8-1.8.2-3.3-.4-1.4-7-3.1-7-4s-1.1-1.3,3.9-2.8,2.1-3.2,5.4-4c3.3-.7,2.4.2,3.6.5s5.1,1.5,5.4,1.9c.4.4,1.2,1.3,7,2.5s4,1.1,8.4.8c4.3-.2,7.2-.2,8.3-.4,1.2-.2,3.6-.6-.4-.8-3.8-.1.9-.9-1.1-1.4-2.1-.5-3-1.3-2-1.9.9-.7-.1-1.3,1.3-1.4,1.3,0-2,0-2.8-.7-1.1-.7,0-1.5-1.8-1.9s.2-.9.9-1.2c.7-.1,1.1-.7,1.5-1.2.7-.5.4-1.1-2.7-1.4-3-.4-4-.6-4-1.2s-3.9-.1-3.7-1.1c0-.8.5-1.8,1.4-2,.8-.2-.5-.8,1.9-1.4s5.4-.1,7.7-.8c2.4-.7,3.2-2.5,6.3-2.6,3,0,5.6.5,7.1,0s.6-.7,3.6-.7,5.9-.1,8.2-.6c2.4-.5,4.7-.8,7.2-.8s6.5-.4,7.5-.7,3.7-.9,5.6-1.4,3.9-.9,4.9-.9,2.8,0,1.7-.5c-1.1-.5-1.5-1.1-3.1-1.3s-1.8-.8-3.9-.8-3.4,0-3.4-.5-2-.5-4.3-.5-4.1-.1-6.3-.1-6.2.1-6.8-.6c-3.2-.6-9.6-1.5-12.7-2.5-2.3-.8-.7-2-.9-2.4-.1-.4,1.7-.5,2.3,0,3.2.9,5.7-1.8,1.1-1.8-.1-.2,1.9-.4,1.9-.8s-.8-.4-1.2-.8c4.6-.1,3.2-1.3-1.7-.9,1.9-.9-6.3-1.9-7.1-1.1-2.1,0-3.8-.6-5.3-.9-.4-.5.7-1.1,0-1.2s-6.9-.7-6.9-1.1-.6-.4-1.3-.5c-.6,0,2.4-.6-1.2-.9-3.7-.4-3.4,0-3.9.5-.4.4-3,.4-4.4,0s-2-.6-3.3-.7c-1.4,0-1.2-.7-1.5-1.1s1.8,0,1.9-.4,0-.5-.7-.6c-.9,0-3.2.2-2.1-.2s-.5-.5-1.4-.6-3.3.5-4.3.4c-.7,0-2.1-.2-3,0-.6.2.4.4-3.6.4s-6.8,0-7-.9-.6-.8-1.2-1.1c-.5-.2-1.3-.9-2-1.2s0-.4-.7-.6c-.8,0-3.6,0-5.6,0-1.9,0-.6-.2-.8-.4-2.8-.4-5.2-.8-6.8-1.4,0,0,2.4-.6,2-.6s-2.1.2-4.9-.2c-2.8-.6-2.5-.7-2.5-.7,1.3-.6-.2-.7-.5-1.2,0,0-1.4,0-3.1.2-1.5.2-3.2,0-5-.5-1.8-.4-.9-.5-1.4-.7-.8-.5-2-.9-2.1-1.3-.2-.4,1.3-.7.5-.7-2.1,0-6.6-1.1-4.3-1.2,2.6,0,2.7-.5,2.3-.7h0l.4-.2h0ZM160.4,160.8h-.2l-.2.4c1.1,0,.6,0,.7-.2h-.2v-.2ZM159.9,162.1h-.6v.2h.2c.2,0,.4-.1.2-.2h.2Z"/>
  <path id="Montenegro" class="st2" d="M326.8,172.7h-.6c-.5,0-1.3.2-2.4.5-4.3.8-5.9,0-7,.1-1.2,0-1.5,1.3-1.4,2.3,0,1.1,3.4,1.1,3.8,1.7.2.5-4.4,2.1-4.4,3.1s-.8,1.7-2.6,2-4.6-.2-9,.2c-4.3.5-4.6.2-4.9-.9s3.1-1.5,3.2-1.8v-1.8c0-.2-6.3-.9-6.9-1.1-.5-.1-3.9.6-5,.7-.9,0-10.8-.7-12.8-.5-1.9.1-2,1.7-3.6,2s-7,.4-9.8.9-10.2,3.6-12.6,4.6c-2.3,1.2-5.4.6-7.3.4s-3.4-2.6-4.5-2.5-12.3,1.4-14.7,1.9-3.4,1.8-6.2,2.3c-2.6.5-4.9-.2-6.6-.4s-3.8.4-7.3,1.1c-3.8.8-7.7,2.4-6.9,3.6s1.1,1.7-1.9,2.3-2.5.8-4,1.8c-1.5.8-2.7.2-6,0s-4.3.5-4.1,1.5-2.4,1.3-2.4,1.3c0,0-1.4-.9-2.5-1.4l.5-.7c-.6.2-.9.6-1.2.8-4.5.7-7.2-.2-7.2-.2l.2-.4c-1.1.8-2,1.4-2.7,1.7-.6.2-1.4.5-2.4.6h-.4l-3.4,1.3v.5c0,.4-2.6.8-3,1.2l.4.9.4.4c2.3.2,4.6.9,5,1.8.6.7,2.5,1.8,6.2,1.7,3.6,0,7.2.1,7.3-1.2.2-1.4,2.6-.2,4.6-.5-1.1.2-3.2.7-1.1,1.3,3.3.8,6.8.6,1.3,2.3-5.3,1.7-8.5,3.2-5.3,1.3,3-1.9,2.8-2,2-3.1s-5.8.4-6.6,1.1c-.8.7-1.2,1.8-3.9,2.1-2.8.2-1.3-1.2-3.2-2.4-2-1.2-3.4-2.6-6.4-2s-3.3,2.4-2.8,3.1,1.5,1.4,4.1,1.2c2.6-.4,4.3-.2,2.6.8-1.7,1.1-4.7,1.8-6.2,3.7s-3.1,2.7-.1,2.8,10.7.7,6.5,2.7-3,4.5-5.1,5.6-4.6,3.8-1.8,4.4c3,.6-1.3,3.3-3.1,3.1s-3,1.1-3.2,2.6-.7,2.6-6.8,4c-6,1.4-10.1,3.7-6.4,6.5,3.8,2.8,4.3,4,2.5,5.6-1.9,1.5-.5,2.5-.5,2.5,0,0,6.5-1.4,6.6-2s-.7-2,1.5-2.4c2.3-.4,4.1.2,4.7-.4.8-.6,1.3-2.1,3.3-2.1s4.3,1.2,5,.6c.7-.6,7.7-4,11.4-5.1,3.9-.8,8.5-7,21.2-9,12.4-1.9,17.1-1.7,20.9-3,3.8-1.3,8.6-3.4,11.3-3.3,2.5.2,5.4.8,8.6.2s4.5-.8,7.1-.8,3.6-.6,6.3-.9c2.6-.2,7.5-.7,9-1.1s4.1-.5,6.4-.4c1.9.2,4-.6,6.4-1.5,2.3-.9,3.4-.8,9.2-1.1,5.8-.4,7.7.2,9.8,0,2.3-.2,5.4-.4,4.5.7-1.1,1.1-3.3,1.3-3.4,2.3s-3.6,2-5.6,2-6.4.7-6.5,1.7c-.5,1.1-3.4,3.2-2.7,4.1s4.5,1.1,6.9,1.1,3.3,1.1,5.9.8,4.3-.8,6.2-.2,6,2.8,8.2,2.3c1.9-.6,3-1.5,5.2-1.3,2,.2,4.1.9,6.2.5,1.9-.5,3.9-1.8,5.8-2,2.1-.2,4.9.2,8.2-.4s5.4-.8,4.1-1.9c-1.4-.9-2-2.1-1.7-3.2.4-1.1,1.5-1.7,4.4-2,2.8-.2,7.3-.8,8.5,0s9.7,5,11.8,5,8.8-.7,13.2-.7,10-.2,11.1-1.2,6.4-2.3,5.8-3.1c-1.8-1.5-4.1-3-7.1-4.3-1.9-.9-2-3.2-4.7-3.4-2.8-.2-6.5-.4-6.8-1.8s-7.1-.7-5.8-1.3c1.5-.6,6.4-1.1,6-1.5s.2-3.7.6-4.1.8-1.2-2.8-1.9-3.7-1.2-3.6-1.8-3.3-.2-3.1-.8c0-.5,1.4-1.2-.4-1.8-2-.7-3.4-1.3-3.2-1.8,0-.5,3.1-1.2,1.7-1.7s-4.9-.4-5.1-1.2c-.5-.9.6-1.1-.4-1.4-1.1-.4-1.5-.8.7-1.2,2.5-.4,2.7-.8,2.1-1.3-.5-.5,0-.9-1.7-1.4-1.5-.5-1.4-.6-1.2-1.1s1.2-.9.4-1.8-4.1-1.4-3.4-1.9,1.2-2,.2-2.4c-1.1-.4-2.4-.9-1.8-1.5.1-.6,1.2-.7.4-1.2-.7-.5-1.7-1.3-.9-1.7.6-.4-.7-.7-2.8-1.3-2-.6-4.5-.6-2-1.3,2.4-.6,4.3-1.1,3.8-1.5,0,0,.2-.2,0-.4-.9-.1-1.2-.5-2.1-.8-1.4-.5-1.7-.7-4.3-.9s-4.3-.5-6-.6-3.1-1.2-3.1-1.9.5-.7.4-.8l.6.2v.6l.2-.2Z"/>
  <path id="North_Macedonia" class="st2" d="M574.3,325.8c-1.9-.7-1.7,1.5-7.6.2-7.7-1.8-7.1-.2-6.9,2.4,0,2.5-8.5-3.9-12.9-4.1-4-.1-13.2-3.8-14.9-4.1-1.2-.5-4.3-.8-5.3-2.4s-6.5-7.3-9.6-5.1c-3.1,2.4-7.1,3.8-10.4.2-3.1-3.4-13.9-2.1-17.8-2.3-3.7,0-5.8-1.3-7.6-1.3s-4.4,2-5.8,1.4c-1.5-.6-3.6-4.4-18.5-6.8-14.8-2.4-12.8-7.5-18.2-6-4.5,2.6-8.2,1.9-10,.6s-11.6.7-14.5,1.1c-11.5,2.5-18,8.9-26.5,6-8.6-2.8,5.7-7.5.6-13.2.7-1.5-3.2-2.6-15.3-2.3-12.2.2-15.8-2.6-27.7-2.1-12,.6-1.8-1.7-22.2.7-20.5,2.5-17.9,3.6-23,6-5.2,2.6-10.9,4.3-17.1,5-5.9.6-2.3-1.4-3.3-1.9s-6.8.2-9.1-.8-4.4-.6-7.7-.6-.8,0-1.2-.1h-.2c0-.1-.7-1.3-.7-1.3-13,5.1-22.2,9.1-42.2,16.7-.7.1-1.5.2-2.3.2-4.5,0-9.8-2.1-13.3-1.7l-1.7.6c-1.1.5-2.1.9-2.8,1.5-5.4,3.8-5.4,9.1-10.8,13.2-1.1.7-1.7,1.1-3.2,1.8-1.1.5-2.5.9-4.3,1.2-1.7.1-3.3.2-5.2.2-3.7,0-8.2.1-10.8,1.1-13.5,4.7-55.7,45.6-63.5,52.8-1.4,1.2-2.1,2.3-2.3,3,0,.7.6,1.3,1.4,1.8,4.1,2.7,19.7,0,22.2,1.9,6,2.1,9.5,6.8,8.6,10.8-.1.2-.7.6-1.7.9-3.7,2.5-13.3,4-11.4,5.3,1.3,1.7,37,5.2,44.4,12.8,8.9,9,18.7,2.3,35.5,7.3,29.3,8.5,5.2,17.4,29.6,17.9,12,.4,16.7-3.6,22.4-1.1,12.4,5.1,13.5,8.3,16.5,8.5,10-.2,5.2-3.2,12.2-5,6.9-1.4,25.4-1.8,30.2-3.9,9.7-4.3,16.9-9.2,38.7-3.3,18.4,0,9.2,5.7,20.6,7.5,13.4,2.1,32.8,5,39.8,13.6,6.5,8.3,16,14.9,28.4,18.2,14.7,4,24.2,10.2,28.6,10.7,9.6,1.1,12.9-5.8,22.4-4.9,5.6.9-2.3,11.1,5.2,11.1,38.3,4.4,7-46.4,87.9-12.2l1.2.6c13.2-8.6,21.2-23.3,28.1-34.1,9.8-15.2,26.1-9.6,35.1-16.9l.8-.6-.8-.4c-.6-1.3-1.8-4.7-.7-8.2,3.2-8.9-1.5-10.2-1.9-13,0-2.7,0-8.2,5.9-15.2,6.2-6.9-4.1-7.3-7.1-8.9-3.2-1.5-5.6-1.9-10.1-4.3-5-2.5-5.7-5.2-10.7-6.6-5.2-1.2-7-4-11.5-6.6-4.9-2.6-6-6-9.8-9-4-3-1.2-6.5-.8-7.8.2-1.3-4.5-2.3-4.1-3.9.5-1.7-2-5.1-3.7-8.3-1.9-3.1-2.8-5.7-6.5-5.3-3.8.2-2.5-2-7.3-7-1.4-1.2-2.3-1.8-2.6-1.9l.5-.6h0l.3.3Z"/>
  <path id="Kosovo" class="st1" d="M474.2,220.6c-3.9-.8-12.2.2-18.1,1.1s-5.1-.7-8.9-.6c-4.1.1-5.1-2.3-7-1.3-2,.9-2.7,1.5,4.3,3.7s0,.9-2.6,1.8,4.6,2.3.1,2.5-4.6.5-4.6,2c-.4,1.7-8.3.2-7.5-1.1.8-1.2-1.3-.8-6.2-.2-4.5.6-14,.1-18.8.7s1.7,2.4-2,3.3c-3.3.8-15.3-.9-27.2-2.8-2.3.6-6.2.8-9.8.8s-11.4.6-13.3.7c-2.4,0-10.7-4.1-12-5.1-1.2-.8-5.9-.4-8.9,0-2.8.4-4.3.9-4.5,1.9-.2,1.1.4,2.1,1.8,3.2,1.3,1.1-.9,1.3-4.3,1.9-3.3.5-6,0-8.2.2-2,.2-4.1,1.5-5.9,2h-.8c.7.1.5.5-.8.9-1.2.5-.2.8,1.1,2.4,1.3,1.5.2,1.3.8,3.2.5,1.8-2.6,1.8-2.8,3.2-.4,1.4,1.8,1.8-3.2,2.5s0,2.3-5.3,4.1c-5.4,1.8-3.8,1.8-1.4,2s6.2,1.1,7.8,2.3c1.7,1.3,2,4.4,5.3,6.5,3.6,2,.2,6.4-4.1,9.2-4.5,2.8,2.3,2.4-6.5,5.2-8.9,3-5.9,2.3-6.2,4.7-.1,2.5-8.4,7.3-12.3,8.5-4,1.2-9.5.5-11.8,2.3-2.6,1.9-5.8,1.2-7.5,1.4-.7.1-2.1.7-3.9,1.3.4.4.6.7.7,1.2h.4c.5.4.9.4,1.2.4,3.3,0,5.9-.5,8.2.6s7.6.4,8.6.8-2.6,2.5,3.4,1.9,11.7-2.5,17.1-5c5-2.6,2.4-3.7,23-6,20.3-2.5,10.3-.2,22.3-.7,12.1-.5,15.8,2.5,27.8,2.1,12-.2,16,.7,15.3,2.4,5.2,5.4-9.1,10.2-.9,13,8.5,2.8,15.2-3.6,26.7-6,3-.4,12.8-2.4,14.7-.9,1.8,1.3,5.8,2,10.2-.6,5.2-1.5,3.3,3.7,18,5.9l3.6.7c1.4-1.7,1.9-2.6,3.1-3.8,3.6-4,5.6-4.3,13.5-5.6,7.9-1.3,7.3-2.1,12.1-4.1,4.5-2,7.8-2,13.9-3,6.2-1.1,6.3-2.7,11.1-2.3s4.7-1.5,12.4-3.8c7.8-2.3,4.9-5.8-2.4-5-7.3.8-9.6.7-8.1-.9,1.4-1.7-6.2-6.3-10-6.9s-15.3-3.2-17.4-4c-2-.8,3-2.8,11.7-5.4,8.8-2.5,3.3-3.3,1.1-4.4-2.3-1.1-.6-3.4-6.6-3.8-6-.4-5.8-.7-5.8-1.9s10-4.1,5.8-5.7-4.9,0-7.2.4c-2.5.4-4.6-2.6-.1-4.3s8.9-4.4,5-4.4-4.5-.7-2-1.4,3-1.5-1.3-1.4c-4.3.2-4-.1-5-1.1-.9-.8-8.6-.8-8.8-1.5-.2-.7-6.6-1.1-7.5-2.5s7.7-.4,9.6-.8c2-.6.7-5.7-3.1-6.5h1.2-.3Z"/>
  <g class="st5">
    <g class="st5">
      <path class="st3" d="M343.5,346.5v-8.5h1.3v8.5h-1.3ZM344.2,346.5v-1.3h1.9c.4,0,.6,0,.8-.2s.3-.4.3-.7v-.6c0-.3,0-.6-.3-.8s-.4-.3-.8-.3h-2v-1.3h2c.3,0,.5,0,.7-.2s.2-.4.2-.7v-.4c0-.3,0-.5-.2-.6s-.4-.2-.7-.2h-1.9v-1.3h2c.7,0,1.3.2,1.6.5s.6.8.6,1.5v.5c0,.4-.1.8-.4,1.1s-.6.5-1,.6c.5,0,.8.3,1.1.6s.4.7.4,1.2v.6c0,.6-.2,1.1-.6,1.5s-.9.5-1.6.5h-2.2Z"/>
      <path class="st3" d="M353,345.6c-1.2,0-2.1-.3-2.7-.8s-1-1.3-1-2.3v-.8c0-1,.3-1.8,1-2.3s1.5-.8,2.7-.8,2.1.3,2.7.8,1,1.3,1,2.3v.8c0,1-.3,1.8-1,2.3s-1.5.8-2.7.8ZM353,344.4c.8,0,1.3-.2,1.8-.5s.6-.8.6-1.4v-.8c0-.6-.2-1.1-.6-1.4s-1-.5-1.8-.5-1.3.2-1.8.5-.6.8-.6,1.4v.8c0,.6.2,1,.6,1.4s1,.5,1.8.5ZM352.3,346.5v-8.8h1.4v8.8h-1.4Z"/>
      <path class="st3" d="M357.7,346.5v-8.5h1.3v8.5h-1.3ZM358.5,339.3v-1.3h3.8v1.3h-3.8ZM361.5,346.5v-8.5h1.3v8.5h-1.3Z"/>
      <path class="st3" d="M367.2,346.5v-8.5h1.3v8.5h-1.3ZM367.9,339.3v-1.3h3.8v1.3h-3.8ZM370.9,346.5v-8.5h1.3v8.5h-1.3Z"/>
      <path class="st3" d="M373.5,346.5v-1.3c.3,0,.6-.1.7-.3s.2-.6.2-1.1v-5.8h1.3v5.9c0,.9-.2,1.5-.6,2s-.9.7-1.7.7h-.1ZM375.3,339.3v-1.3h3.1v1.3h-3.1ZM377.8,346.5v-8.5h1.3v8.5h-1.3Z"/>
      <path class="st3" d="M382.8,345.3l-2.4-7.3h1.4l1.8,6.2-.9,1.1ZM386.1,338l-2,6.9c-.2.6-.4,1-.7,1.3s-.7.4-1.3.4h-.8v-1.3h.7c.3,0,.5,0,.6-.3s.3-.4.4-.8l1.7-6.3h1.4Z"/>
      <path class="st3" d="M389.2,346.6c-.5,0-1-.1-1.3-.3s-.7-.5-.9-.9-.3-.9-.3-1.4v-3.3c0-.6.1-1,.3-1.4s.5-.7.9-.9.8-.3,1.3-.3.9.1,1.3.3.6.5.8.9.3.9.4,1.5h-1.4c0-.3,0-.6-.2-.8s-.2-.4-.4-.5-.3-.2-.6-.2c-.4,0-.6.1-.8.4s-.3.6-.3,1v3.3c0,.4.1.8.3,1s.5.4.8.4.6-.1.8-.3.3-.6.4-1h1.4c0,.6-.2,1.1-.4,1.5s-.5.7-.8.9-.8.3-1.3.3Z"/>
      <path class="st3" d="M395.8,346.5v-8.5h1.3v8.5h-1.3ZM396.5,342.9v-1.3h2.6v1.3h-2.6ZM399.9,346.5l-2-3.8,1.2-.7,2.4,4.4h-1.6ZM398.9,342.9l-.9-1,1.7-3.9h1.5l-2.3,4.9Z"/>
      <path class="st3" d="M404.5,346.6c-.5,0-1-.1-1.4-.3s-.7-.5-.9-.9-.3-.9-.3-1.4v-3.5c0-.5.1-1,.3-1.4s.5-.7.9-.9.9-.3,1.4-.3,1,.1,1.4.3.7.5.9.9.3.9.3,1.4v3.5c0,.5-.1,1-.3,1.4s-.5.7-.9.9-.9.3-1.4.3ZM404.5,345.3c.4,0,.7-.1.9-.4s.3-.6.3-.9v-3.5c0-.4-.1-.7-.3-.9s-.5-.3-.9-.3-.7.1-.9.3-.3.5-.3.9v3.5c0,.4.1.7.3.9s.5.4.9.4Z"/>
      <path class="st3" d="M408.4,346.5v-8.5h1.3v8.5h-1.3ZM409.1,343v-1.3h3.8v1.3h-3.8ZM412.1,346.5v-8.5h1.3v8.5h-1.3Z"/>
      <path class="st3" d="M417.4,346.6c-.5,0-1-.1-1.3-.3s-.7-.5-.9-.9-.3-.9-.3-1.4v-3.3c0-.6.1-1,.3-1.4s.5-.7.9-.9.8-.3,1.3-.3.9.1,1.3.3.6.5.8.9.3.9.4,1.5h-1.4c0-.3,0-.6-.2-.8s-.2-.4-.4-.5-.3-.2-.6-.2c-.4,0-.6.1-.8.4s-.3.6-.3,1v3.3c0,.4.1.8.3,1s.5.4.8.4.6-.1.8-.3.3-.6.4-1h1.4c0,.6-.2,1.1-.4,1.5s-.5.7-.8.9-.8.3-1.3.3Z"/>
      <path class="st3" d="M420.4,346.5l2.6-8.5h1l2.6,8.5h-1.4l-1.7-6.3-1.7,6.3h-1.4ZM421.8,344.9v-1.3h3.5v1.3h-3.5Z"/>
      <path class="st3" d="M427.5,346.5v-1.3c.3,0,.6-.1.7-.3s.2-.6.2-1.1v-5.8h1.3v5.9c0,.9-.2,1.5-.6,2s-.9.7-1.7.7h-.1ZM429.3,339.3v-1.3h3.1v1.3h-3.1ZM431.8,346.5v-8.5h1.3v8.5h-1.3Z"/>
      <path class="st3" d="M434.2,339.3v-1.3h5.2v1.3h-5.2ZM436.2,346.5v-7.8h1.3v7.8h-1.3Z"/>
      <path class="st3" d="M445.6,346.5h-1.3v-6.4.2c.1,0-2.8,6.2-2.8,6.2h-1.2v-8.5h1.3v6.5-.2c-.1,0,2.8-6.3,2.8-6.3h1.2v8.5Z"/>
      <path class="st3" d="M447.2,346.5v-8.5h1.3v8.5h-1.3ZM447.9,343v-1.3h3.8v1.3h-3.8ZM450.9,346.5v-8.5h1.3v8.5h-1.3Z"/>
      <path class="st3" d="M453.8,346.5v-8.5h1.3v8.5h-1.3ZM454.5,339.3v-1.3h3.3v1.3h-3.3Z"/>
      <path class="st3" d="M460.9,346.5v-1.3h6.1v1.3h-6.1ZM460.9,348.2v-3h1.3v3h-1.3ZM461,346.2v-.9h.1c.3,0,.6-.2.8-.5s.3-.8.3-1.4v-5.4h1.3v5.3c0,.6,0,1.1-.2,1.5s-.4.8-.7,1-.7.3-1.3.3h-.2ZM463.1,339.3v-1.3h2.9v1.3h-2.9ZM465.4,346.5v-8.5h1.3v8.5h-1.3ZM466.3,348.2v-3h1.3v3h-1.3Z"/>
      <path class="st3" d="M471.3,346.6c-.5,0-1-.1-1.4-.3s-.7-.5-.9-.9-.3-.9-.3-1.4v-3.5c0-.5.1-1,.3-1.4s.5-.7.9-.9.9-.3,1.4-.3,1,.1,1.4.3.7.5.9.9.3.9.3,1.4v3.5c0,.5-.1,1-.3,1.4s-.5.7-.9.9-.9.3-1.4.3ZM471.3,345.3c.4,0,.7-.1.9-.4s.3-.6.3-.9v-3.5c0-.4-.1-.7-.3-.9s-.5-.3-.9-.3-.7.1-.9.3-.3.5-.3.9v3.5c0,.4.1.7.3.9s.5.4.9.4Z"/>
      <path class="st3" d="M477.6,346.6c-.5,0-1-.1-1.4-.3s-.7-.5-.9-.9-.3-.9-.3-1.4v-3.5c0-.5.1-1,.3-1.4s.5-.7.9-.9.9-.3,1.4-.3,1,.1,1.4.3.7.5.9.9.3.9.3,1.4v3.5c0,.5-.1,1-.3,1.4s-.5.7-.9.9-.9.3-1.4.3ZM477.6,345.3c.4,0,.7-.1.9-.4s.3-.6.3-.9v-3.5c0-.4-.1-.7-.3-.9s-.5-.3-.9-.3-.7.1-.9.3-.3.5-.3.9v3.5c0,.4.1.7.3.9s.5.4.9.4Z"/>
      <path class="st3" d="M486.9,346.6c-.5,0-1-.1-1.3-.3s-.7-.5-.9-.9-.3-.9-.3-1.4v-3.3c0-.6.1-1,.3-1.4s.5-.7.9-.9.8-.3,1.3-.3.9.1,1.3.3.6.5.8.9.3.9.4,1.5h-1.4c0-.3,0-.6-.2-.8s-.2-.4-.4-.5-.3-.2-.6-.2c-.4,0-.6.1-.8.4s-.3.6-.3,1v3.3c0,.4.1.8.3,1s.5.4.8.4.6-.1.8-.3.3-.6.4-1h1.4c0,.6-.2,1.1-.4,1.5s-.5.7-.8.9-.8.3-1.3.3Z"/>
      <path class="st3" d="M490.7,346.5v-6.1h1.3v6.1h-1.3ZM491.3,344.1v-1.3h2.5v1.3h-2.5ZM493.6,344l-.9-.9,1-2.6h1.4l-1.5,3.5ZM493.9,346.5l-1.2-2.5,1.1-.7,1.6,3.3h-1.5Z"/>
      <path class="st3" d="M498,346.6c-.7,0-1.2-.2-1.6-.6s-.6-.9-.6-1.6v-1.9c0-.7.2-1.2.6-1.6s.9-.6,1.6-.6,1.2.2,1.6.6.6.9.6,1.6v2c0,.7-.2,1.2-.6,1.6s-.9.6-1.6.6ZM498,345.4c.3,0,.5,0,.6-.2s.2-.4.2-.7v-1.9c0-.3,0-.5-.2-.7s-.3-.2-.6-.2-.5,0-.6.2-.2.4-.2.7v1.9c0,.3,0,.5.2.7s.4.2.6.2Z"/>
      <path class="st3" d="M501.5,346.5v-6.1h1.3v6.1h-1.3ZM502.2,341.7v-1.3h3.1v1.3h-3.1ZM504.5,346.5v-6.1h1.3v6.1h-1.3Z"/>
      <path class="st3" d="M506.5,349v-1.3h.4c.1,0,.2,0,.3-.1s.1-.2.1-.3v-6.8h1.3v6.9c0,.5-.1.9-.4,1.2s-.6.4-1.1.4h-.6ZM507.2,339.4v-1.3h1.4v1.3h-1.4Z"/>
      <path class="st3" d="M512.2,346.6c-.7,0-1.3-.2-1.7-.6s-.6-1-.6-1.7v-1.5c0-.8.2-1.4.6-1.8s.9-.6,1.6-.6,1.2.2,1.6.7.6,1.1.6,1.9v1h-3.4v-1h2.2v-.4c0-.3,0-.6-.2-.8s-.4-.3-.7-.3-.5.1-.7.3-.3.5-.3.9v1.6c0,.3,0,.6.3.8s.4.3.8.3.4,0,.6-.2.3-.3.3-.5l1.2.4c-.1.5-.3.8-.7,1.1s-.8.4-1.3.4Z"/>
    </g>
  </g>
  <rect class="st4" x="344.5" y="261" width="22.7" height="70.3"/>
  <g class="st5">
    <g class="st5">
      <path class="st3" d="M260.1,202.1v-8.5h1.3v8.5h-1.3ZM260.8,202.1v-1.3h1.9c.4,0,.6,0,.8-.2s.3-.4.3-.7v-.6c0-.3,0-.6-.3-.8s-.4-.3-.8-.3h-2v-1.3h2c.3,0,.5,0,.7-.2s.2-.4.2-.7v-.4c0-.3,0-.5-.2-.6s-.4-.2-.7-.2h-1.9v-1.3h2c.7,0,1.3.2,1.6.5s.6.8.6,1.5v.5c0,.4-.1.8-.4,1.1s-.6.5-1,.6c.5,0,.8.3,1.1.6s.4.7.4,1.2v.6c0,.6-.2,1.1-.6,1.5s-.9.5-1.6.5h-2.2Z"/>
      <path class="st3" d="M269.6,201.2c-1.2,0-2.1-.3-2.7-.8s-1-1.3-1-2.3v-.8c0-1,.3-1.8,1-2.3s1.5-.8,2.7-.8,2.1.3,2.7.8,1,1.3,1,2.3v.8c0,1-.3,1.8-1,2.3s-1.5.8-2.7.8ZM269.6,199.9c.8,0,1.3-.2,1.8-.5s.6-.8.6-1.4v-.8c0-.6-.2-1.1-.6-1.4s-1-.5-1.8-.5-1.3.2-1.8.5-.6.8-.6,1.4v.8c0,.6.2,1,.6,1.4s1,.5,1.8.5ZM268.9,202.1v-8.8h1.4v8.8h-1.4Z"/>
      <path class="st3" d="M274.3,202.1v-8.5h1.3v8.5h-1.3ZM275.1,194.9v-1.3h3.8v1.3h-3.8ZM278.1,202.1v-8.5h1.3v8.5h-1.3Z"/>
      <path class="st3" d="M283.8,202.1v-8.5h1.3v8.5h-1.3ZM284.5,194.9v-1.3h3.8v1.3h-3.8ZM287.5,202.1v-8.5h1.3v8.5h-1.3Z"/>
      <path class="st3" d="M290.1,202.1v-1.3c.3,0,.6-.1.7-.3s.2-.6.2-1.1v-5.8h1.3v5.9c0,.9-.2,1.5-.6,2s-.9.7-1.7.7h-.1ZM291.9,194.9v-1.3h3.1v1.3h-3.1ZM294.4,202.1v-8.5h1.3v8.5h-1.3Z"/>
      <path class="st3" d="M299.4,200.9l-2.4-7.3h1.4l1.8,6.2-.9,1.1ZM302.7,193.6l-2,6.9c-.2.6-.4,1-.7,1.3s-.7.4-1.3.4h-.8v-1.3h.7c.3,0,.5,0,.6-.3s.3-.4.4-.8l1.7-6.3h1.4Z"/>
      <path class="st3" d="M305.8,202.2c-.5,0-1-.1-1.3-.3s-.7-.5-.9-.9-.3-.9-.3-1.4v-3.3c0-.6.1-1,.3-1.4s.5-.7.9-.9.8-.3,1.3-.3.9.1,1.3.3.6.5.8.9.3.9.4,1.5h-1.4c0-.3,0-.6-.2-.8s-.2-.4-.4-.5-.3-.2-.6-.2c-.4,0-.6.1-.8.4s-.3.6-.3,1v3.3c0,.4.1.8.3,1s.5.4.8.4.6-.1.8-.3.3-.6.4-1h1.4c0,.6-.2,1.1-.4,1.5s-.5.7-.8.9-.8.3-1.3.3Z"/>
      <path class="st3" d="M312.4,202.1v-8.5h1.3v8.5h-1.3ZM313.1,198.5v-1.3h2.6v1.3h-2.6ZM316.5,202.1l-2-3.8,1.2-.7,2.4,4.4h-1.6ZM315.5,198.5l-.9-1,1.7-3.9h1.5l-2.3,4.9Z"/>
      <path class="st3" d="M321.1,202.2c-.5,0-1-.1-1.4-.3s-.7-.5-.9-.9-.3-.9-.3-1.4v-3.5c0-.5.1-1,.3-1.4s.5-.7.9-.9.9-.3,1.4-.3,1,.1,1.4.3.7.5.9.9.3.9.3,1.4v3.5c0,.5-.1,1-.3,1.4s-.5.7-.9.9-.9.3-1.4.3ZM321.1,200.9c.4,0,.7-.1.9-.4s.3-.6.3-.9v-3.5c0-.4-.1-.7-.3-.9s-.5-.3-.9-.3-.7.1-.9.3-.3.5-.3.9v3.5c0,.4.1.7.3.9s.5.4.9.4Z"/>
      <path class="st3" d="M325,202.1v-8.5h1.3v8.5h-1.3ZM325.7,198.5v-1.3h3.8v1.3h-3.8ZM328.7,202.1v-8.5h1.3v8.5h-1.3Z"/>
      <path class="st3" d="M334,202.2c-.5,0-1-.1-1.3-.3s-.7-.5-.9-.9-.3-.9-.3-1.4v-3.3c0-.6.1-1,.3-1.4s.5-.7.9-.9.8-.3,1.3-.3.9.1,1.3.3.6.5.8.9.3.9.4,1.5h-1.4c0-.3,0-.6-.2-.8s-.2-.4-.4-.5-.3-.2-.6-.2c-.4,0-.6.1-.8.4s-.3.6-.3,1v3.3c0,.4.1.8.3,1s.5.4.8.4.6-.1.8-.3.3-.6.4-1h1.4c0,.6-.2,1.1-.4,1.5s-.5.7-.8.9-.8.3-1.3.3Z"/>
      <path class="st3" d="M337,202.1l2.6-8.5h1l2.6,8.5h-1.4l-1.7-6.3-1.7,6.3h-1.4ZM338.4,200.5v-1.3h3.5v1.3h-3.5Z"/>
      <path class="st3" d="M344.1,202.1v-1.3c.3,0,.6-.1.7-.3s.2-.6.2-1.1v-5.8h1.3v5.9c0,.9-.2,1.5-.6,2s-.9.7-1.7.7h-.1ZM345.9,194.9v-1.3h3.1v1.3h-3.1ZM348.4,202.1v-8.5h1.3v8.5h-1.3Z"/>
      <path class="st3" d="M350.8,194.9v-1.3h5.2v1.3h-5.2ZM352.8,202.1v-7.8h1.3v7.8h-1.3Z"/>
      <path class="st3" d="M362.2,202.1h-1.3v-6.4.2c.1,0-2.8,6.2-2.8,6.2h-1.2v-8.5h1.3v6.5-.2c-.1,0,2.8-6.3,2.8-6.3h1.2v8.5Z"/>
      <path class="st3" d="M363.8,202.1v-8.5h1.3v8.5h-1.3ZM364.5,198.5v-1.3h3.8v1.3h-3.8ZM367.5,202.1v-8.5h1.3v8.5h-1.3Z"/>
      <path class="st3" d="M372.7,202.1v-1.3h6.1v1.3h-6.1ZM372.7,203.8v-3h1.3v3h-1.3ZM372.8,201.7v-.9h.1c.3,0,.6-.2.8-.5s.3-.8.3-1.4v-5.4h1.3v5.3c0,.6,0,1.1-.2,1.5s-.4.8-.7,1-.7.3-1.3.3h-.2ZM374.9,194.9v-1.3h2.9v1.3h-2.9ZM377.2,202.1v-8.5h1.3v8.5h-1.3ZM378.1,203.8v-3h1.3v3h-1.3Z"/>
      <path class="st3" d="M383.1,202.2c-.5,0-1-.1-1.4-.3s-.7-.5-.9-.9-.3-.9-.3-1.4v-3.5c0-.5.1-1,.3-1.4s.5-.7.9-.9.9-.3,1.4-.3,1,.1,1.4.3.7.5.9.9.3.9.3,1.4v3.5c0,.5-.1,1-.3,1.4s-.5.7-.9.9-.9.3-1.4.3ZM383.1,200.9c.4,0,.7-.1.9-.4s.3-.6.3-.9v-3.5c0-.4-.1-.7-.3-.9s-.5-.3-.9-.3-.7.1-.9.3-.3.5-.3.9v3.5c0,.4.1.7.3.9s.5.4.9.4Z"/>
      <path class="st3" d="M389.4,202.2c-.5,0-1-.1-1.4-.3s-.7-.5-.9-.9-.3-.9-.3-1.4v-3.5c0-.5.1-1,.3-1.4s.5-.7.9-.9.9-.3,1.4-.3,1,.1,1.4.3.7.5.9.9.3.9.3,1.4v3.5c0,.5-.1,1-.3,1.4s-.5.7-.9.9-.9.3-1.4.3ZM389.4,200.9c.4,0,.7-.1.9-.4s.3-.6.3-.9v-3.5c0-.4-.1-.7-.3-.9s-.5-.3-.9-.3-.7.1-.9.3-.3.5-.3.9v3.5c0,.4.1.7.3.9s.5.4.9.4Z"/>
      <path class="st3" d="M396.3,202.1v-8.5h1.3v8.5h-1.3ZM397.1,194.9v-1.3h3.8v1.3h-3.8ZM400,202.1v-8.5h1.3v8.5h-1.3Z"/>
      <path class="st3" d="M404.9,202.2c-.7,0-1.2-.2-1.6-.6s-.6-.9-.6-1.6v-1.9c0-.7.2-1.2.6-1.6s.9-.6,1.6-.6,1.2.2,1.6.6.6.9.6,1.6v2c0,.7-.2,1.2-.6,1.6s-.9.6-1.6.6ZM404.9,200.9c.3,0,.5,0,.6-.2s.2-.4.2-.7v-1.9c0-.3,0-.5-.2-.7s-.3-.2-.6-.2-.5,0-.6.2-.2.4-.2.7v1.9c0,.3,0,.5.2.7s.4.2.6.2Z"/>
      <path class="st3" d="M407.8,202.1v-1.3h5.2v1.3h-5.2ZM407.8,203.6v-2.8h1.3v2.8h-1.3ZM408.2,201.6l-.2-.7h.1c.2,0,.3,0,.4-.2s.2-.3.2-.5,0-.5,0-.8v-3.4h1.3v3.6c0,.7-.1,1.1-.4,1.5s-.7.5-1.2.5h-.2ZM409.5,197.3v-1.3h2.5v1.3h-2.5ZM411.4,202.1v-6.1h1.3v6.1h-1.3ZM412.3,203.6v-2.8h1.3v2.8h-1.3Z"/>
      <path class="st3" d="M414.6,202.1v-6.1h1.3v6.1h-1.3ZM415.3,197.3v-1.3h2.8v1.3h-2.8Z"/>
      <path class="st3" d="M420.6,202.2c-.7,0-1.2-.2-1.6-.6s-.6-.9-.6-1.6v-1.9c0-.7.2-1.2.6-1.6s.9-.6,1.6-.6,1.2.2,1.6.6.6.9.6,1.6v2c0,.7-.2,1.2-.6,1.6s-.9.6-1.6.6ZM420.6,200.9c.3,0,.5,0,.6-.2s.2-.4.2-.7v-1.9c0-.3,0-.5-.2-.7s-.3-.2-.6-.2-.5,0-.6.2-.2.4-.2.7v1.9c0,.3,0,.5.2.7s.4.2.6.2Z"/>
      <path class="st3" d="M424.1,204.6v-8.6h1.3v8.6h-1.3ZM426.8,202.2c-.3,0-.6,0-.8-.3s-.4-.4-.5-.8v-1.1c0,.2.1.4.2.5s.2.2.3.3.3.1.4.1c.3,0,.5,0,.6-.3s.2-.4.2-.8v-1.8c0-.3,0-.6-.2-.8s-.4-.3-.6-.3-.3,0-.4.1-.2.2-.3.3,0,.3,0,.5v-1c0-.4.2-.6.5-.8s.5-.3.8-.3c.5,0,.9.2,1.2.6s.4.9.4,1.6v1.9c0,.7-.1,1.2-.4,1.6s-.7.6-1.3.6Z"/>
      <path class="st3" d="M434.2,202.1h-1.2v-4.1.2c.1,0-2,4-2,4h-1.1v-6.1h1.2v4.2-.2c-.1,0,2-4,2-4h1.1v6.1Z"/>
      <path class="st3" d="M435.6,202.1v-6.1h1.3v6.1h-1.3ZM436.4,202.1v-1.3h2.8v1.3h-2.8ZM438.5,202.1v-6.1h1.3v6.1h-1.3ZM439.5,203.6v-2.8h1.3v2.8h-1.3Z"/>
      <path class="st3" d="M443.5,202.2c-.6,0-1-.1-1.3-.4s-.4-.8-.4-1.4.2-1.1.5-1.4.8-.5,1.5-.5h1.1v1.1c0,0-1.1,0-1.1,0-.3,0-.5,0-.6.2s-.2.3-.2.6,0,.4.2.5.3.2.6.2.6,0,.8-.2.3-.3.3-.5v.7c0,.2,0,.5-.1.6s-.3.3-.5.4-.4.1-.7.1ZM444.8,202.1v-4.1c0-.3,0-.5-.2-.6s-.4-.2-.7-.2-.4,0-.5.1-.3.2-.4.4l-1.1-.4c.1-.4.4-.8.7-1s.8-.4,1.3-.4,1.2.2,1.6.5.6.9.6,1.5v4.2h-1.3Z"/>
    </g>
  </g>
  <g class="st5">
    <g class="st5">
      <path class="st3" d="M309,158.9v-8.5h1.3v8.5h-1.3ZM309.7,158.9v-1.3h1.9c.4,0,.6,0,.8-.2s.3-.4.3-.7v-.6c0-.3,0-.6-.3-.8s-.4-.3-.8-.3h-2v-1.3h2c.3,0,.5,0,.7-.2s.2-.4.2-.7v-.4c0-.3,0-.5-.2-.6s-.4-.2-.7-.2h-1.9v-1.3h2c.7,0,1.3.2,1.6.5s.6.8.6,1.5v.5c0,.4-.1.8-.4,1.1s-.6.5-1,.6c.5,0,.8.3,1.1.6s.4.7.4,1.2v.6c0,.6-.2,1.1-.6,1.5s-.9.5-1.6.5h-2.2Z"/>
      <path class="st3" d="M318.5,158c-1.2,0-2.1-.3-2.7-.8s-1-1.3-1-2.3v-.8c0-1,.3-1.8,1-2.3s1.5-.8,2.7-.8,2.1.3,2.7.8,1,1.3,1,2.3v.8c0,1-.3,1.8-1,2.3s-1.5.8-2.7.8ZM318.5,156.7c.8,0,1.3-.2,1.8-.5s.6-.8.6-1.4v-.8c0-.6-.2-1.1-.6-1.4s-1-.5-1.8-.5-1.3.2-1.8.5-.6.8-.6,1.4v.8c0,.6.2,1,.6,1.4s1,.5,1.8.5ZM317.8,158.9v-8.8h1.4v8.8h-1.4Z"/>
      <path class="st3" d="M323.2,158.9v-8.5h1.3v8.5h-1.3ZM324,151.6v-1.3h3.8v1.3h-3.8ZM327,158.9v-8.5h1.3v8.5h-1.3Z"/>
      <path class="st3" d="M332.7,158.9v-8.5h1.3v8.5h-1.3ZM333.4,151.6v-1.3h3.8v1.3h-3.8ZM336.4,158.9v-8.5h1.3v8.5h-1.3Z"/>
      <path class="st3" d="M339,158.9v-1.3c.3,0,.6-.1.7-.3s.2-.6.2-1.1v-5.8h1.3v5.9c0,.9-.2,1.5-.6,2s-.9.7-1.7.7h-.1ZM340.8,151.6v-1.3h3.1v1.3h-3.1ZM343.3,158.9v-8.5h1.3v8.5h-1.3Z"/>
      <path class="st3" d="M348.3,157.6l-2.4-7.3h1.4l1.8,6.2-.9,1.1ZM351.6,150.3l-2,6.9c-.2.6-.4,1-.7,1.3s-.7.4-1.3.4h-.8v-1.3h.7c.3,0,.5,0,.6-.3s.3-.4.4-.8l1.7-6.3h1.4Z"/>
      <path class="st3" d="M354.7,158.9c-.5,0-1-.1-1.3-.3s-.7-.5-.9-.9-.3-.9-.3-1.4v-3.3c0-.6.1-1,.3-1.4s.5-.7.9-.9.8-.3,1.3-.3.9.1,1.3.3.6.5.8.9.3.9.4,1.5h-1.4c0-.3,0-.6-.2-.8s-.2-.4-.4-.5-.3-.2-.6-.2c-.4,0-.6.1-.8.4s-.3.6-.3,1v3.3c0,.4.1.8.3,1s.5.4.8.4.6-.1.8-.3.3-.6.4-1h1.4c0,.6-.2,1.1-.4,1.5s-.5.7-.8.9-.8.3-1.3.3Z"/>
      <path class="st3" d="M361.3,158.9v-8.5h1.3v8.5h-1.3ZM362,155.3v-1.3h2.6v1.3h-2.6ZM365.4,158.9l-2-3.8,1.2-.7,2.4,4.4h-1.6ZM364.4,155.2l-.9-1,1.7-3.9h1.5l-2.3,4.9Z"/>
      <path class="st3" d="M370,158.9c-.5,0-1-.1-1.4-.3s-.7-.5-.9-.9-.3-.9-.3-1.4v-3.5c0-.5.1-1,.3-1.4s.5-.7.9-.9.9-.3,1.4-.3,1,.1,1.4.3.7.5.9.9.3.9.3,1.4v3.5c0,.5-.1,1-.3,1.4s-.5.7-.9.9-.9.3-1.4.3ZM370,157.6c.4,0,.7-.1.9-.4s.3-.6.3-.9v-3.5c0-.4-.1-.7-.3-.9s-.5-.3-.9-.3-.7.1-.9.3-.3.5-.3.9v3.5c0,.4.1.7.3.9s.5.4.9.4Z"/>
      <path class="st3" d="M373.9,158.9v-8.5h1.3v8.5h-1.3ZM374.6,155.3v-1.3h3.8v1.3h-3.8ZM377.6,158.9v-8.5h1.3v8.5h-1.3Z"/>
      <path class="st3" d="M382.9,158.9c-.5,0-1-.1-1.3-.3s-.7-.5-.9-.9-.3-.9-.3-1.4v-3.3c0-.6.1-1,.3-1.4s.5-.7.9-.9.8-.3,1.3-.3.9.1,1.3.3.6.5.8.9.3.9.4,1.5h-1.4c0-.3,0-.6-.2-.8s-.2-.4-.4-.5-.3-.2-.6-.2c-.4,0-.6.1-.8.4s-.3.6-.3,1v3.3c0,.4.1.8.3,1s.5.4.8.4.6-.1.8-.3.3-.6.4-1h1.4c0,.6-.2,1.1-.4,1.5s-.5.7-.8.9-.8.3-1.3.3Z"/>
      <path class="st3" d="M385.9,158.9l2.6-8.5h1l2.6,8.5h-1.4l-1.7-6.3-1.7,6.3h-1.4ZM387.3,157.3v-1.3h3.5v1.3h-3.5Z"/>
      <path class="st3" d="M393,158.9v-1.3c.3,0,.6-.1.7-.3s.2-.6.2-1.1v-5.8h1.3v5.9c0,.9-.2,1.5-.6,2s-.9.7-1.7.7h-.1ZM394.8,151.6v-1.3h3.1v1.3h-3.1ZM397.3,158.9v-8.5h1.3v8.5h-1.3Z"/>
      <path class="st3" d="M399.7,151.6v-1.3h5.2v1.3h-5.2ZM401.7,158.9v-7.8h1.3v7.8h-1.3Z"/>
      <path class="st3" d="M411.1,158.9h-1.3v-6.4.2c.1,0-2.8,6.2-2.8,6.2h-1.2v-8.5h1.3v6.5-.2c-.1,0,2.8-6.3,2.8-6.3h1.2v8.5Z"/>
      <path class="st3" d="M412.7,158.9v-8.5h1.3v8.5h-1.3ZM413.4,155.3v-1.3h3.8v1.3h-3.8ZM416.4,158.9v-8.5h1.3v8.5h-1.3Z"/>
      <path class="st3" d="M421.6,158.9v-1.3h6.1v1.3h-6.1ZM421.6,160.6v-3h1.3v3h-1.3ZM421.7,158.5v-.9h.1c.3,0,.6-.2.8-.5s.3-.8.3-1.4v-5.4h1.3v5.3c0,.6,0,1.1-.2,1.5s-.4.8-.7,1-.7.3-1.3.3h-.2ZM423.8,151.6v-1.3h2.9v1.3h-2.9ZM426.1,158.9v-8.5h1.3v8.5h-1.3ZM427,160.6v-3h1.3v3h-1.3Z"/>
      <path class="st3" d="M432,158.9c-.5,0-1-.1-1.4-.3s-.7-.5-.9-.9-.3-.9-.3-1.4v-3.5c0-.5.1-1,.3-1.4s.5-.7.9-.9.9-.3,1.4-.3,1,.1,1.4.3.7.5.9.9.3.9.3,1.4v3.5c0,.5-.1,1-.3,1.4s-.5.7-.9.9-.9.3-1.4.3ZM432,157.6c.4,0,.7-.1.9-.4s.3-.6.3-.9v-3.5c0-.4-.1-.7-.3-.9s-.5-.3-.9-.3-.7.1-.9.3-.3.5-.3.9v3.5c0,.4.1.7.3.9s.5.4.9.4Z"/>
      <path class="st3" d="M438.3,158.9c-.5,0-1-.1-1.4-.3s-.7-.5-.9-.9-.3-.9-.3-1.4v-3.5c0-.5.1-1,.3-1.4s.5-.7.9-.9.9-.3,1.4-.3,1,.1,1.4.3.7.5.9.9.3.9.3,1.4v3.5c0,.5-.1,1-.3,1.4s-.5.7-.9.9-.9.3-1.4.3ZM438.3,157.6c.4,0,.7-.1.9-.4s.3-.6.3-.9v-3.5c0-.4-.1-.7-.3-.9s-.5-.3-.9-.3-.7.1-.9.3-.3.5-.3.9v3.5c0,.4.1.7.3.9s.5.4.9.4Z"/>
      <path class="st3" d="M445.2,158.9v-8.5h1.3v8.5h-1.3ZM445.9,158.9v-1.3h2.1c.3,0,.5,0,.7-.3s.2-.4.2-.8v-.5c0-.3,0-.6-.2-.8s-.4-.3-.7-.3h-2.1v-1.3h2.1c.5,0,.9,0,1.2.3s.6.4.8.8.3.7.3,1.2v.7c0,.5,0,.9-.3,1.2s-.4.6-.8.8-.7.3-1.2.3h-2.1ZM445.9,151.6v-1.3h3.8v1.3h-3.8Z"/>
      <path class="st3" d="M451.6,161.3v-8.6h1.3v8.6h-1.3ZM454.2,158.9c-.3,0-.6,0-.8-.3s-.4-.4-.5-.8v-1.1c0,.2.1.4.2.5s.2.2.3.3.3.1.4.1c.3,0,.5,0,.6-.3s.2-.4.2-.8v-1.8c0-.3,0-.6-.2-.8s-.4-.3-.6-.3-.3,0-.4.1-.2.2-.3.3,0,.3,0,.5v-1c0-.4.2-.6.5-.8s.5-.3.8-.3c.5,0,.9.2,1.2.6s.4.9.4,1.6v1.9c0,.7-.1,1.2-.4,1.6s-.7.6-1.3.6Z"/>
      <path class="st3" d="M459,157c-.6,0-1-.2-1.3-.5s-.5-.8-.5-1.5v-2.2h1.3v2.2c0,.3,0,.5.2.6s.3.2.6.2.5,0,.6-.2.2-.4.2-.7v-.8h.4v.8c0,.7-.1,1.2-.4,1.6s-.7.6-1.2.6ZM460.2,158.9v-6.1h1.3v6.1h-1.3Z"/>
      <path class="st3" d="M463,158.9v-6.1h1.3v6.1h-1.3ZM463.7,156.5v-1.3h2.5v1.3h-2.5ZM465.9,156.3l-.9-.9,1-2.6h1.4l-1.5,3.5ZM466.2,158.9l-1.2-2.5,1.1-.7,1.6,3.3h-1.5Z"/>
      <path class="st3" d="M470.3,158.9c-.7,0-1.2-.2-1.6-.6s-.6-.9-.6-1.6v-1.9c0-.7.2-1.2.6-1.6s.9-.6,1.6-.6,1.2.2,1.6.6.6.9.6,1.6v2c0,.7-.2,1.2-.6,1.6s-.9.6-1.6.6ZM470.3,157.7c.3,0,.5,0,.6-.2s.2-.4.2-.7v-1.9c0-.3,0-.5-.2-.7s-.3-.2-.6-.2-.5,0-.6.2-.2.4-.2.7v1.9c0,.3,0,.5.2.7s.4.2.6.2Z"/>
    </g>
  </g>
  <g class="st5">
    <g class="st5">
      <path class="st3" d="M237.9,95.5v-8.5h1.3v8.5h-1.3ZM238.6,95.5v-1.3h1.9c.4,0,.6,0,.8-.2s.3-.4.3-.7v-.6c0-.3,0-.6-.3-.8s-.4-.3-.8-.3h-2v-1.3h2c.3,0,.5,0,.7-.2s.2-.4.2-.7v-.4c0-.3,0-.5-.2-.6s-.4-.2-.7-.2h-1.9v-1.3h2c.7,0,1.3.2,1.6.5s.6.8.6,1.5v.5c0,.4-.1.8-.4,1.1s-.6.5-1,.6c.5,0,.8.3,1.1.6s.4.7.4,1.2v.6c0,.6-.2,1.1-.6,1.5s-.9.5-1.6.5h-2.2Z"/>
      <path class="st3" d="M247.4,94.6c-1.2,0-2.1-.3-2.7-.8s-1-1.3-1-2.3v-.8c0-1,.3-1.8,1-2.3s1.5-.8,2.7-.8,2.1.3,2.7.8,1,1.3,1,2.3v.8c0,1-.3,1.8-1,2.3s-1.5.8-2.7.8ZM247.4,93.3c.8,0,1.3-.2,1.8-.5s.6-.8.6-1.4v-.8c0-.6-.2-1.1-.6-1.4s-1-.5-1.8-.5-1.3.2-1.8.5-.6.8-.6,1.4v.8c0,.6.2,1,.6,1.4s1,.5,1.8.5ZM246.7,95.5v-8.8h1.4v8.8h-1.4Z"/>
      <path class="st3" d="M252.1,95.5v-8.5h1.3v8.5h-1.3ZM252.9,88.3v-1.3h3.8v1.3h-3.8ZM255.9,95.5v-8.5h1.3v8.5h-1.3Z"/>
      <path class="st3" d="M261.6,95.5v-8.5h1.3v8.5h-1.3ZM262.3,88.3v-1.3h3.8v1.3h-3.8ZM265.3,95.5v-8.5h1.3v8.5h-1.3Z"/>
      <path class="st3" d="M267.9,95.5v-1.3c.3,0,.6-.1.7-.3s.2-.6.2-1.1v-5.8h1.3v5.9c0,.9-.2,1.5-.6,2s-.9.7-1.7.7h-.1ZM269.7,88.3v-1.3h3.1v1.3h-3.1ZM272.2,95.5v-8.5h1.3v8.5h-1.3Z"/>
      <path class="st3" d="M277.2,94.3l-2.4-7.3h1.4l1.8,6.2-.9,1.1ZM280.5,87l-2,6.9c-.2.6-.4,1-.7,1.3s-.7.4-1.3.4h-.8v-1.3h.7c.3,0,.5,0,.6-.3s.3-.4.4-.8l1.7-6.3h1.4Z"/>
      <path class="st3" d="M283.6,95.6c-.5,0-1-.1-1.3-.3s-.7-.5-.9-.9-.3-.9-.3-1.4v-3.3c0-.6.1-1,.3-1.4s.5-.7.9-.9.8-.3,1.3-.3.9.1,1.3.3.6.5.8.9.3.9.4,1.5h-1.4c0-.3,0-.6-.2-.8s-.2-.4-.4-.5-.3-.2-.6-.2c-.4,0-.6.1-.8.4s-.3.6-.3,1v3.3c0,.4.1.8.3,1s.5.4.8.4.6-.1.8-.3.3-.6.4-1h1.4c0,.6-.2,1.1-.4,1.5s-.5.7-.8.9-.8.3-1.3.3Z"/>
      <path class="st3" d="M290.2,95.5v-8.5h1.3v8.5h-1.3ZM290.9,91.9v-1.3h2.6v1.3h-2.6ZM294.3,95.5l-2-3.8,1.2-.7,2.4,4.4h-1.6ZM293.3,91.9l-.9-1,1.7-3.9h1.5l-2.3,4.9Z"/>
      <path class="st3" d="M298.9,95.6c-.5,0-1-.1-1.4-.3s-.7-.5-.9-.9-.3-.9-.3-1.4v-3.5c0-.5.1-1,.3-1.4s.5-.7.9-.9.9-.3,1.4-.3,1,.1,1.4.3.7.5.9.9.3.9.3,1.4v3.5c0,.5-.1,1-.3,1.4s-.5.7-.9.9-.9.3-1.4.3ZM298.9,94.3c.4,0,.7-.1.9-.4s.3-.6.3-.9v-3.5c0-.4-.1-.7-.3-.9s-.5-.3-.9-.3-.7.1-.9.3-.3.5-.3.9v3.5c0,.4.1.7.3.9s.5.4.9.4Z"/>
      <path class="st3" d="M302.8,95.5v-8.5h1.3v8.5h-1.3ZM303.5,91.9v-1.3h3.8v1.3h-3.8ZM306.5,95.5v-8.5h1.3v8.5h-1.3Z"/>
      <path class="st3" d="M311.8,95.6c-.5,0-1-.1-1.3-.3s-.7-.5-.9-.9-.3-.9-.3-1.4v-3.3c0-.6.1-1,.3-1.4s.5-.7.9-.9.8-.3,1.3-.3.9.1,1.3.3.6.5.8.9.3.9.4,1.5h-1.4c0-.3,0-.6-.2-.8s-.2-.4-.4-.5-.3-.2-.6-.2c-.4,0-.6.1-.8.4s-.3.6-.3,1v3.3c0,.4.1.8.3,1s.5.4.8.4.6-.1.8-.3.3-.6.4-1h1.4c0,.6-.2,1.1-.4,1.5s-.5.7-.8.9-.8.3-1.3.3Z"/>
      <path class="st3" d="M314.8,95.5l2.6-8.5h1l2.6,8.5h-1.4l-1.7-6.3-1.7,6.3h-1.4ZM316.2,93.9v-1.3h3.5v1.3h-3.5Z"/>
      <path class="st3" d="M321.9,95.5v-1.3c.3,0,.6-.1.7-.3s.2-.6.2-1.1v-5.8h1.3v5.9c0,.9-.2,1.5-.6,2s-.9.7-1.7.7h-.1ZM323.7,88.3v-1.3h3.1v1.3h-3.1ZM326.2,95.5v-8.5h1.3v8.5h-1.3Z"/>
      <path class="st3" d="M328.6,88.3v-1.3h5.2v1.3h-5.2ZM330.6,95.5v-7.8h1.3v7.8h-1.3Z"/>
      <path class="st3" d="M340,95.5h-1.3v-6.4.2c.1,0-2.8,6.2-2.8,6.2h-1.2v-8.5h1.3v6.5-.2c-.1,0,2.8-6.3,2.8-6.3h1.2v8.5Z"/>
      <path class="st3" d="M341.6,95.5v-8.5h1.3v8.5h-1.3ZM342.3,91.9v-1.3h3.8v1.3h-3.8ZM345.3,95.5v-8.5h1.3v8.5h-1.3Z"/>
      <path class="st3" d="M350.5,95.5v-1.3h6.1v1.3h-6.1ZM350.5,97.2v-3h1.3v3h-1.3ZM350.6,95.1v-.9h.1c.3,0,.6-.2.8-.5s.3-.8.3-1.4v-5.4h1.3v5.3c0,.6,0,1.1-.2,1.5s-.4.8-.7,1-.7.3-1.3.3h-.2ZM352.7,88.3v-1.3h2.9v1.3h-2.9ZM355,95.5v-8.5h1.3v8.5h-1.3ZM355.9,97.2v-3h1.3v3h-1.3Z"/>
      <path class="st3" d="M360.9,95.6c-.5,0-1-.1-1.4-.3s-.7-.5-.9-.9-.3-.9-.3-1.4v-3.5c0-.5.1-1,.3-1.4s.5-.7.9-.9.9-.3,1.4-.3,1,.1,1.4.3.7.5.9.9.3.9.3,1.4v3.5c0,.5-.1,1-.3,1.4s-.5.7-.9.9-.9.3-1.4.3ZM360.9,94.3c.4,0,.7-.1.9-.4s.3-.6.3-.9v-3.5c0-.4-.1-.7-.3-.9s-.5-.3-.9-.3-.7.1-.9.3-.3.5-.3.9v3.5c0,.4.1.7.3.9s.5.4.9.4Z"/>
      <path class="st3" d="M367.2,95.6c-.5,0-1-.1-1.4-.3s-.7-.5-.9-.9-.3-.9-.3-1.4v-3.5c0-.5.1-1,.3-1.4s.5-.7.9-.9.9-.3,1.4-.3,1,.1,1.4.3.7.5.9.9.3.9.3,1.4v3.5c0,.5-.1,1-.3,1.4s-.5.7-.9.9-.9.3-1.4.3ZM367.2,94.3c.4,0,.7-.1.9-.4s.3-.6.3-.9v-3.5c0-.4-.1-.7-.3-.9s-.5-.3-.9-.3-.7.1-.9.3-.3.5-.3.9v3.5c0,.4.1.7.3.9s.5.4.9.4Z"/>
      <path class="st3" d="M374.1,95.5v-8.5h1.3v8.5h-1.3ZM374.8,92.2v-1.3h2.1c.3,0,.5,0,.7-.3s.2-.4.2-.7v-.6c0-.3,0-.6-.2-.8s-.4-.3-.7-.3h-2.1v-1.3h2.1c.5,0,.9,0,1.2.3s.6.4.8.8.3.7.3,1.2v.7c0,.5,0,.9-.3,1.2s-.5.6-.8.8-.7.3-1.2.3h-2.1Z"/>
      <path class="st3" d="M384.5,95.5h-1.2v-4.1.2c.1,0-2,4-2,4h-1.1v-6.1h1.2v4.2-.2c-.1,0,2-4,2-4h1.1v6.1Z"/>
      <path class="st3" d="M388.1,95.6c-.7,0-1.3-.2-1.7-.6s-.6-1-.6-1.7v-1.5c0-.8.2-1.4.6-1.8s.9-.6,1.6-.6,1.2.2,1.6.7.6,1.1.6,1.9v1h-3.4v-1h2.2v-.4c0-.3,0-.6-.2-.8s-.4-.3-.7-.3-.5.1-.7.3-.3.5-.3.9v1.6c0,.3,0,.6.3.8s.4.3.8.3.4,0,.6-.2.3-.3.3-.5l1.2.4c-.1.5-.3.8-.7,1.1s-.8.4-1.3.4Z"/>
      <path class="st3" d="M391.6,95.5v-6.1h1.3v6.1h-1.3ZM392.2,93.1v-1.3h2.5v1.3h-2.5ZM394.5,93l-.9-.9,1-2.6h1.4l-1.5,3.5ZM394.8,95.5l-1.2-2.5,1.1-.7,1.6,3.3h-1.5Z"/>
      <path class="st3" d="M398.5,95.6c-.6,0-1-.1-1.3-.4s-.4-.8-.4-1.4.2-1.1.5-1.4.8-.5,1.5-.5h1.1v1.1c0,0-1.1,0-1.1,0-.3,0-.5,0-.6.2s-.2.3-.2.6,0,.4.2.5.3.2.6.2.6,0,.8-.2.3-.3.3-.5v.7c0,.2,0,.5-.1.6s-.3.3-.5.4-.4.1-.7.1ZM399.9,95.5v-4.1c0-.3,0-.5-.2-.6s-.4-.2-.7-.2-.4,0-.5.1-.3.2-.4.4l-1.1-.4c.1-.4.4-.8.7-1s.8-.4,1.3-.4,1.2.2,1.6.5.6.9.6,1.5v4.2h-1.3Z"/>
    </g>
  </g>
  <g>
    <path class="st0" d="M232.3,75.1v4h-.3c-.7,0-1.6-.2-2.3-1.3l-.4-.8c-.4-.7-.8-1.1-1.5-1.1s-1.1.4-1.1,1.2.4,1.3,1.3,1.3v.7c-1.3,0-2-.7-2-2s.7-1.9,1.8-1.9,1.4.4,2,1.4l.4.6c.4.7.8,1,1.5,1.1v-3.2h.7,0Z"/>
    <path class="st0" d="M228,69.5h2.2c1.1,0,2.1.9,2.1,2.1s-.9,2.1-2.1,2.1h-2.2c-1.1,0-2.1-.9-2.1-2.1s.9-2.1,2.1-2.1ZM228,72.9h2.2c.8,0,1.4-.6,1.4-1.4s-.6-1.4-1.4-1.4h-2.2c-.8,0-1.4.6-1.4,1.4s.6,1.4,1.4,1.4Z"/>
    <path class="st0" d="M232.3,64.1v4h-.3c-.7,0-1.6-.2-2.3-1.3l-.4-.8c-.4-.7-.8-1.1-1.5-1.1s-1.1.4-1.1,1.2.4,1.3,1.3,1.3v.7c-1.3,0-2-.7-2-2s.7-1.9,1.8-1.9,1.4.4,2,1.4l.4.6c.4.7.8,1,1.5,1.1v-3.2h.7,0Z"/>
    <path class="st0" d="M228,58.5h2.2c1.1,0,2.1.9,2.1,2.1s-.9,2.1-2.1,2.1h-2.2c-1.1,0-2.1-.9-2.1-2.1s.9-2.1,2.1-2.1ZM228,62h2.2c.8,0,1.4-.6,1.4-1.4s-.6-1.4-1.4-1.4h-2.2c-.8,0-1.4.6-1.4,1.4s.6,1.4,1.4,1.4Z"/>
  </g>
  <g class="st5">
    <g class="st5">
      <path class="st3" d="M494.6,198.5v-8.5h1.3v8.5h-1.3ZM495.4,198.5v-1.3h1.9c.4,0,.6,0,.8-.2s.3-.4.3-.7v-.6c0-.3,0-.6-.3-.8s-.4-.3-.8-.3h-2v-1.3h2c.3,0,.5,0,.7-.2s.2-.4.2-.7v-.4c0-.3,0-.5-.2-.6s-.4-.2-.7-.2h-1.9v-1.3h2c.7,0,1.3.2,1.6.5s.6.8.6,1.5v.5c0,.4-.1.8-.4,1.1s-.6.5-1,.6c.5,0,.8.3,1.1.6s.4.7.4,1.2v.6c0,.6-.2,1.1-.6,1.5s-.9.5-1.6.5h-2.2Z"/>
      <path class="st3" d="M504.2,197.6c-1.2,0-2.1-.3-2.7-.8s-1-1.3-1-2.3v-.8c0-1,.3-1.8,1-2.3s1.5-.8,2.7-.8,2.1.3,2.7.8,1,1.3,1,2.3v.8c0,1-.3,1.8-1,2.3s-1.5.8-2.7.8ZM504.2,196.3c.8,0,1.3-.2,1.8-.5s.6-.8.6-1.4v-.8c0-.6-.2-1.1-.6-1.4s-1-.5-1.8-.5-1.3.2-1.8.5-.6.8-.6,1.4v.8c0,.6.2,1,.6,1.4s1,.5,1.8.5ZM503.5,198.5v-8.8h1.4v8.8h-1.4Z"/>
      <path class="st3" d="M508.9,198.5v-8.5h1.3v8.5h-1.3ZM509.6,191.3v-1.3h3.8v1.3h-3.8ZM512.6,198.5v-8.5h1.3v8.5h-1.3Z"/>
      <path class="st3" d="M518.3,198.5v-8.5h1.3v8.5h-1.3ZM519.1,191.3v-1.3h3.8v1.3h-3.8ZM522.1,198.5v-8.5h1.3v8.5h-1.3Z"/>
      <path class="st3" d="M524.7,198.5v-1.3c.3,0,.6-.1.7-.3s.2-.6.2-1.1v-5.8h1.3v5.9c0,.9-.2,1.5-.6,2s-.9.7-1.7.7h-.1ZM526.5,191.3v-1.3h3.1v1.3h-3.1ZM528.9,198.5v-8.5h1.3v8.5h-1.3Z"/>
      <path class="st3" d="M534,197.3l-2.4-7.3h1.4l1.8,6.2-.9,1.1ZM537.3,190l-2,6.9c-.2.6-.4,1-.7,1.3s-.7.4-1.3.4h-.8v-1.3h.7c.3,0,.5,0,.6-.3s.3-.4.4-.8l1.7-6.3h1.4Z"/>
      <path class="st3" d="M540.4,198.6c-.5,0-1-.1-1.3-.3s-.7-.5-.9-.9-.3-.9-.3-1.4v-3.3c0-.6.1-1,.3-1.4s.5-.7.9-.9.8-.3,1.3-.3.9.1,1.3.3.6.5.8.9.3.9.4,1.5h-1.4c0-.3,0-.6-.2-.8s-.2-.4-.4-.5-.3-.2-.6-.2c-.4,0-.6.1-.8.4s-.3.6-.3,1v3.3c0,.4.1.8.3,1s.5.4.8.4.6-.1.8-.3.3-.6.4-1h1.4c0,.6-.2,1.1-.4,1.5s-.5.7-.8.9-.8.3-1.3.3Z"/>
      <path class="st3" d="M547,198.5v-8.5h1.3v8.5h-1.3ZM547.6,194.9v-1.3h2.6v1.3h-2.6ZM551.1,198.5l-2-3.8,1.2-.7,2.4,4.4h-1.6ZM550.1,194.8l-.9-1,1.7-3.9h1.5l-2.3,4.9Z"/>
      <path class="st3" d="M555.6,198.6c-.5,0-1-.1-1.4-.3s-.7-.5-.9-.9-.3-.9-.3-1.4v-3.5c0-.5.1-1,.3-1.4s.5-.7.9-.9.9-.3,1.4-.3,1,.1,1.4.3.7.5.9.9.3.9.3,1.4v3.5c0,.5-.1,1-.3,1.4s-.5.7-.9.9-.9.3-1.4.3ZM555.6,197.3c.4,0,.7-.1.9-.4s.3-.6.3-.9v-3.5c0-.4-.1-.7-.3-.9s-.5-.3-.9-.3-.7.1-.9.3-.3.5-.3.9v3.5c0,.4.1.7.3.9s.5.4.9.4Z"/>
      <path class="st3" d="M559.6,198.5v-8.5h1.3v8.5h-1.3ZM560.3,194.9v-1.3h3.8v1.3h-3.8ZM563.3,198.5v-8.5h1.3v8.5h-1.3Z"/>
      <path class="st3" d="M568.6,198.6c-.5,0-1-.1-1.3-.3s-.7-.5-.9-.9-.3-.9-.3-1.4v-3.3c0-.6.1-1,.3-1.4s.5-.7.9-.9.8-.3,1.3-.3.9.1,1.3.3.6.5.8.9.3.9.4,1.5h-1.4c0-.3,0-.6-.2-.8s-.2-.4-.4-.5-.3-.2-.6-.2c-.4,0-.6.1-.8.4s-.3.6-.3,1v3.3c0,.4.1.8.3,1s.5.4.8.4.6-.1.8-.3.3-.6.4-1h1.4c0,.6-.2,1.1-.4,1.5s-.5.7-.8.9-.8.3-1.3.3Z"/>
      <path class="st3" d="M571.5,198.5l2.6-8.5h1l2.6,8.5h-1.4l-1.7-6.3-1.7,6.3h-1.4ZM573,196.9v-1.3h3.5v1.3h-3.5Z"/>
      <path class="st3" d="M578.7,198.5v-1.3c.3,0,.6-.1.7-.3s.2-.6.2-1.1v-5.8h1.3v5.9c0,.9-.2,1.5-.6,2s-.9.7-1.7.7h-.1ZM580.5,191.3v-1.3h3.1v1.3h-3.1ZM582.9,198.5v-8.5h1.3v8.5h-1.3Z"/>
      <path class="st3" d="M585.4,191.3v-1.3h5.2v1.3h-5.2ZM587.3,198.5v-7.8h1.3v7.8h-1.3Z"/>
      <path class="st3" d="M596.8,198.5h-1.3v-6.4.2c.1,0-2.8,6.2-2.8,6.2h-1.2v-8.5h1.3v6.5-.2c-.1,0,2.8-6.3,2.8-6.3h1.2v8.5Z"/>
      <path class="st3" d="M598.4,198.5v-8.5h1.3v8.5h-1.3ZM599.1,194.9v-1.3h3.8v1.3h-3.8ZM602.1,198.5v-8.5h1.3v8.5h-1.3Z"/>
      <path class="st3" d="M607.3,198.5v-1.3h6.1v1.3h-6.1ZM607.3,200.2v-3h1.3v3h-1.3ZM607.4,198.1v-.9h.1c.3,0,.6-.2.8-.5s.3-.8.3-1.4v-5.4h1.3v5.3c0,.6,0,1.1-.2,1.5s-.4.8-.7,1-.7.3-1.3.3h-.2ZM609.4,191.3v-1.3h2.9v1.3h-2.9ZM611.7,198.5v-8.5h1.3v8.5h-1.3ZM612.7,200.2v-3h1.3v3h-1.3Z"/>
      <path class="st3" d="M617.7,198.6c-.5,0-1-.1-1.4-.3s-.7-.5-.9-.9-.3-.9-.3-1.4v-3.5c0-.5.1-1,.3-1.4s.5-.7.9-.9.9-.3,1.4-.3,1,.1,1.4.3.7.5.9.9.3.9.3,1.4v3.5c0,.5-.1,1-.3,1.4s-.5.7-.9.9-.9.3-1.4.3ZM617.7,197.3c.4,0,.7-.1.9-.4s.3-.6.3-.9v-3.5c0-.4-.1-.7-.3-.9s-.5-.3-.9-.3-.7.1-.9.3-.3.5-.3.9v3.5c0,.4.1.7.3.9s.5.4.9.4Z"/>
      <path class="st3" d="M624,198.6c-.5,0-1-.1-1.4-.3s-.7-.5-.9-.9-.3-.9-.3-1.4v-3.5c0-.5.1-1,.3-1.4s.5-.7.9-.9.9-.3,1.4-.3,1,.1,1.4.3.7.5.9.9.3.9.3,1.4v3.5c0,.5-.1,1-.3,1.4s-.5.7-.9.9-.9.3-1.4.3ZM624,197.3c.4,0,.7-.1.9-.4s.3-.6.3-.9v-3.5c0-.4-.1-.7-.3-.9s-.5-.3-.9-.3-.7.1-.9.3-.3.5-.3.9v3.5c0,.4.1.7.3.9s.5.4.9.4Z"/>
      <path class="st3" d="M630.9,198.5v-8.5h1.3v8.5h-1.3ZM631.6,198.5v-1.3h2.1c.3,0,.5,0,.7-.3s.2-.4.2-.8v-.5c0-.3,0-.6-.2-.8s-.4-.3-.7-.3h-2.1v-1.3h2.1c.5,0,.9,0,1.2.3s.6.4.8.8.3.7.3,1.2v.7c0,.5,0,.9-.3,1.2s-.4.6-.8.8-.7.3-1.2.3h-2.1ZM631.6,191.3v-1.3h3.8v1.3h-3.8Z"/>
      <path class="st3" d="M639.4,198.6c-.7,0-1.3-.2-1.7-.6s-.6-1-.6-1.7v-1.5c0-.8.2-1.4.6-1.8s.9-.6,1.6-.6,1.2.2,1.6.7.6,1.1.6,1.9v1h-3.4v-1h2.2v-.4c0-.3,0-.6-.2-.8s-.4-.3-.7-.3-.5.1-.7.3-.3.5-.3.9v1.6c0,.3,0,.6.3.8s.4.3.8.3.4,0,.6-.2.3-.3.3-.5l1.2.4c-.1.5-.3.8-.7,1.1s-.8.4-1.3.4Z"/>
      <path class="st3" d="M642.1,198.5v-1.3c.2,0,.4,0,.5-.2s.2-.4.2-.7v-3.9h1.3v4c0,.7-.2,1.2-.5,1.6s-.8.5-1.4.5h-.1ZM643.6,193.7v-1.3h2.5v1.3h-2.5ZM645.4,198.5v-6.1h1.3v6.1h-1.3Z"/>
      <path class="st3" d="M648.3,198.5v-6.1h1.3v6.1h-1.3ZM648.9,193.7v-1.3h2.8v1.3h-2.8Z"/>
      <path class="st3" d="M652.7,201v-8.6h1.3v8.6h-1.3ZM655.3,198.6c-.3,0-.6,0-.8-.3s-.4-.4-.5-.8v-1.1c0,.2.1.4.2.5s.2.2.3.3.3.1.4.1c.3,0,.5,0,.6-.3s.2-.4.2-.8v-1.8c0-.3,0-.6-.2-.8s-.4-.3-.6-.3-.3,0-.4.1-.2.2-.3.3,0,.3,0,.5v-1c0-.4.2-.6.5-.8s.5-.3.8-.3c.5,0,.9.2,1.2.6s.4.9.4,1.6v1.9c0,.7-.1,1.2-.4,1.6s-.7.6-1.3.6Z"/>
      <path class="st3" d="M659.9,198.6c-.6,0-1-.1-1.3-.4s-.4-.8-.4-1.4.2-1.1.5-1.4.8-.5,1.5-.5h1.1v1.1c0,0-1.1,0-1.1,0-.3,0-.5,0-.6.2s-.2.3-.2.6,0,.4.2.5.3.2.6.2.6,0,.8-.2.3-.3.3-.5v.7c0,.2,0,.5-.1.6s-.3.3-.5.4-.4.1-.7.1ZM661.3,198.5v-4.1c0-.3,0-.5-.2-.6s-.4-.2-.7-.2-.4,0-.5.1-.3.2-.4.4l-1.1-.4c.1-.4.4-.8.7-1s.8-.4,1.3-.4,1.2.2,1.6.5.6.9.6,1.5v4.2h-1.3Z"/>
      <path class="st3" d="M663.6,198.5v-1.3h5.2v1.3h-5.2ZM663.6,200v-2.8h1.3v2.8h-1.3ZM664,197.9l-.2-.7h.1c.2,0,.3,0,.4-.2s.2-.3.2-.5,0-.5,0-.8v-3.4h1.3v3.6c0,.7-.1,1.1-.4,1.5s-.7.5-1.2.5h-.2ZM665.3,193.7v-1.3h2.5v1.3h-2.5ZM667.2,198.5v-6.1h1.3v6.1h-1.3ZM668.1,200v-2.8h1.3v2.8h-1.3Z"/>
    </g>
  </g>
  <g>
    <path class="st0" d="M361.1,310h-.1c-1.6,0-2.9-.8-4.5-2.8-1-1.4-1.4-1.8-2.3-1.8s-1.4.4-1.4,1.4.6,1.4,1.5,1.6v1.7c-1.6-.1-3-1.2-3-3.3s1.4-3.2,2.8-3.2,2,.6,3.3,2.4c.9,1.2,1.5,1.8,2,2v-4.7l1.5.2v6.6Z"/>
    <path class="st0" d="M356.3,294.8c2.5,0,5,.8,5,3.6s-2.4,3.6-5,3.6-5-.9-5-3.6,2.3-3.5,4.9-3.5ZM356.3,300.1c1.8,0,3.5-.2,3.5-1.7s-1.6-1.7-3.5-1.7-3.4.3-3.4,1.6,1.4,1.7,3.5,1.7Z"/>
    <path class="st0" d="M361.1,291.7h-7.5c.3.5.5,1.3.6,1.8h-1.4c-.2-.8-.7-1.8-1.3-2.4v-1.3h9.6v1.8Z"/>
    <path class="st0" d="M358.9,285.9c.6-.2,1-.6,1-1.5,0-1.5-1.9-1.7-3-1.7.6.4.9,1.2.9,2.1,0,1.9-1.3,3-3.1,3s-3.3-1.3-3.3-3.4,2-3.5,4.4-3.5,5.5.6,5.5,3.6-1.3,3-2.4,3.2v-1.8ZM354.6,286.1c1.1,0,1.7-.6,1.7-1.6s-.5-1.6-1.7-1.6-1.8.2-1.8,1.6.8,1.6,1.8,1.6Z"/>
  </g>
  <rect class="st4" x="538" y="112.9" width="22.7" height="70.3"/>
  <g>
    <path class="st0" d="M554.6,161.9h-.1c-1.6,0-2.9-.8-4.5-2.8-1-1.4-1.4-1.8-2.3-1.8s-1.4.4-1.4,1.4.6,1.4,1.5,1.6v1.7c-1.6-.1-3-1.2-3-3.3s1.4-3.2,2.8-3.2,2,.6,3.3,2.4c.9,1.2,1.5,1.8,2,2v-4.7l1.5.2v6.6Z"/>
    <path class="st0" d="M549.8,146.7c2.5,0,5,.8,5,3.6s-2.4,3.6-5,3.6-5-.9-5-3.6,2.3-3.5,4.9-3.5ZM549.8,152c1.8,0,3.5-.2,3.5-1.7s-1.6-1.7-3.5-1.7-3.4.3-3.4,1.6,1.4,1.7,3.5,1.7Z"/>
    <path class="st0" d="M554.6,145.4h-.1c-1.6,0-2.9-.8-4.5-2.8-1-1.4-1.4-1.8-2.3-1.8s-1.4.4-1.4,1.4.6,1.4,1.5,1.6v1.7c-1.6-.1-3-1.2-3-3.3s1.4-3.2,2.8-3.2,2,.6,3.3,2.4c.9,1.2,1.5,1.8,2,2v-4.7l1.5.2v6.6Z"/>
    <path class="st0" d="M554.6,137.2h-.1c-1.6,0-2.9-.8-4.5-2.8-1-1.4-1.4-1.8-2.3-1.8s-1.4.4-1.4,1.4.6,1.4,1.5,1.6v1.7c-1.6-.1-3-1.2-3-3.3s1.4-3.2,2.8-3.2,2,.6,3.3,2.4c.9,1.2,1.5,1.8,2,2v-4.7l1.5.2v6.6Z"/>
  </g>
  <rect class="st4" x="283.3" y="99.9" width="19.6" height="60.9"/>
  <g>
    <path class="st0" d="M297.7,142.3h0c-1.4,0-2.6-.7-3.9-2.5-.9-1.2-1.2-1.6-2-1.6s-1.2.4-1.2,1.2.5,1.2,1.3,1.4v1.5c-1.4-.1-2.6-1-2.6-2.9s1.2-2.8,2.5-2.8,1.8.5,2.9,2.1c.8,1.1,1.3,1.5,1.8,1.7v-4.1l1.3.2v5.7Z"/>
    <path class="st0" d="M293.5,129.2c2.2,0,4.3.7,4.3,3.1s-2.1,3.1-4.3,3.1-4.3-.8-4.3-3.1,2-3,4.2-3ZM293.6,133.8c1.5,0,3-.2,3-1.5s-1.4-1.4-3.1-1.4-3,.2-3,1.4,1.2,1.5,3,1.5Z"/>
    <path class="st0" d="M297.7,128.1h0c-1.4,0-2.6-.7-3.9-2.5-.9-1.2-1.2-1.6-2-1.6s-1.2.4-1.2,1.2.5,1.2,1.3,1.4v1.5c-1.4-.1-2.6-1-2.6-2.9s1.2-2.8,2.5-2.8,1.8.5,2.9,2.1c.8,1.1,1.3,1.5,1.8,1.7v-4.1l1.3.2v5.7Z"/>
    <path class="st0" d="M297.7,117.6h-2v3.8h-1.4l-5-3.6v-1.7h5v-1h1.3v1h2v1.5ZM292.8,117.6c-.8,0-1.4,0-1.9,0,.7.3,2.5,1.6,3.6,2.4v-2.4h-1.7Z"/>
  </g>
  <rect class="st4" x="211.9" y="34.3" width="20.5" height="63.7"/>
  <g>
    <path class="st0" d="M226.9,78.6h-.1c-1.4,0-2.7-.7-4-2.6-1-1.3-1.3-1.7-2.1-1.7s-1.3.4-1.3,1.2.5,1.3,1.4,1.4v1.6c-1.5-.1-2.7-1.1-2.7-3s1.3-2.9,2.6-2.9,1.9.5,3,2.1c.8,1.1,1.4,1.6,1.9,1.8v-4.3l1.4.2v6Z"/>
    <path class="st0" d="M222.6,64.9c2.3,0,4.5.7,4.5,3.2s-2.1,3.2-4.5,3.2-4.5-.8-4.5-3.3,2.1-3.2,4.4-3.2ZM222.6,69.6c1.6,0,3.2-.2,3.2-1.5s-1.5-1.5-3.2-1.5-3.1.2-3.1,1.5,1.3,1.6,3.2,1.6Z"/>
    <path class="st0" d="M226.9,63.7h-.1c-1.4,0-2.7-.7-4-2.6-1-1.3-1.3-1.7-2.1-1.7s-1.3.4-1.3,1.2.5,1.3,1.4,1.4v1.6c-1.5-.1-2.7-1.1-2.7-3s1.3-2.9,2.6-2.9,1.9.5,3,2.1c.8,1.1,1.4,1.6,1.9,1.8v-4.3l1.4.2v6Z"/>
    <path class="st0" d="M219.6,50.8v3.5c.5,0,1.5.2,1.9.3-.3-.3-.5-.9-.5-1.6,0-1.7,1.2-2.7,2.9-2.7s3.2.9,3.2,3.2-.9,2.9-2.4,3.1v-1.6c.7-.2,1.1-.6,1.1-1.5s-.7-1.5-1.8-1.5-1.7.4-1.7,1.4.4,1.3,1,1.5l-.2,1.5c-1.1-.2-3.7-.6-4.8-.7v-5.1l1.4.2Z"/>
  </g>
  <rect class="st4" x="234.2" y="136.8" width="21.3" height="66"/>
  <g>
    <path class="st0" d="M249.8,182.7h-.1c-1.5,0-2.8-.8-4.2-2.7-1-1.3-1.3-1.7-2.2-1.7s-1.3.4-1.3,1.3.5,1.3,1.4,1.5v1.6c-1.5-.1-2.8-1.1-2.8-3.1s1.3-3,2.7-3,1.9.6,3.1,2.2c.8,1.2,1.4,1.7,1.9,1.8v-4.4l1.4.2v6.2Z"/>
    <path class="st0" d="M245.2,168.5c2.4,0,4.7.7,4.7,3.3s-2.2,3.3-4.7,3.3-4.7-.8-4.7-3.4,2.1-3.3,4.6-3.3ZM245.3,173.4c1.7,0,3.3-.2,3.3-1.6s-1.5-1.6-3.3-1.6-3.2.2-3.2,1.5,1.3,1.6,3.3,1.6Z"/>
    <path class="st0" d="M249.8,167.2h-.1c-1.5,0-2.8-.8-4.2-2.7-1-1.3-1.3-1.7-2.2-1.7s-1.3.4-1.3,1.3.5,1.3,1.4,1.5v1.6c-1.5-.1-2.8-1.1-2.8-3.1s1.3-3,2.7-3,1.9.6,3.1,2.2c.8,1.2,1.4,1.7,1.9,1.8v-4.4l1.4.2v6.2Z"/>
    <path class="st0" d="M242.2,153.9v3.7c.6,0,1.6.2,2,.3-.3-.4-.6-.9-.6-1.7,0-1.7,1.2-2.7,3-2.7s3.3.9,3.3,3.3-.9,3-2.5,3.2v-1.7c.7-.2,1.2-.7,1.2-1.5s-.7-1.5-1.9-1.5-1.8.4-1.8,1.5.4,1.3,1,1.5l-.2,1.5c-1.2-.2-3.8-.6-5-.8v-5.3l1.4.2Z"/>
  </g>
</svg>