<?xml version="1.0" encoding="UTF-8"?>
<svg id="legend-svg" xmlns="http://www.w3.org/2000/svg" version="1.1" viewBox="0 0 1148.1 799.6">
  <!-- Generator: Adobe Illustrator 29.0.0, SVG Export Plug-In . SVG Version: 2.1.0 Build 186)  -->
  <defs>
    <style>
      .st0 {
        fill: #fff;
      }

      .st1 {
        fill: none;
      }

      .st2 {
        stroke-miterlimit: 1;
      }

      .st2, .st3, .st4 {
        stroke: #000;
      }

      .st2, .st4 {
        fill: #c33;
      }

      .st3 {
        fill: #d1dbdd;
      }

      .st5 {
        stroke: #222;
        stroke-width: .6px;
      }
    </style>
  </defs>
  <path class="st1" d=""/>
  <path class="st1" d=""/>
  <path id="selection-polygon" class="st5" d="M1148.1,0"/>
  <path id="selection-polyline" class="st5" d="M1148.1,0"/>
  <path class="st1" d=""/>
  <path class="st1" d=""/>
  <path class="st1" d=""/>
  <path class="st1" d=""/>
  <path id="Serbia" class="st2" d="M613.8,67.8c-.6,0-1.3.2-2.1.5-2.9,1.1-4.2,3.1-9.4,5.3-9.7-1.1-3.6-8.5-14.1-2.2-2.3,1.4-3-2.1-6.2,4.8-1.5,3.5-4.3,7.8-7.7,10.5-1.7,1.4-2-2.7-5.6,1.8-1.2,1.6,3,3.7-5.3,4.8-8,1.1-5-6.6-8.5-3.7-1.1,2.3-2.1,3.5-1.7,5.9.4,2.9-6.1,2.9-5.3,4.4,2.9,4.8-4.4.4-6.9,4,.7,0,1.3.2,1.8.3,0,.7-1.7,1.8-.7,3.6.2.1,0,.2.3.3,0,0,0,.2,0,.3,0,.1,0,.3.2.5,1.6,2.2-3.9,1.6-2.8,5.6,5.2-3.9,9.3,4.2,1.8,3.6-1.8.3.9,2.4,3.6,3.4,5.5-8.3,8.4,6.2,1.1,4.3.5,1.8,3.7,1.1,4.6,4.4-.5,2.3-6.4,1.3-1.2,4.6-.1,1.3-3.4.7-3.3,2.8.9,1.1,2.1,2.1,3.4,4.4,1.9-.7,4.2-2.3,6.7-2.1.5.4.5,3,3.3,2.1,1.8.7,2.2,1.8,1.1,3.3-1.2,1.6-4,1.1-4.4.8-.8,1.1-2.6,2.1-2.3,3.5,0,1.7,2.2,1.9,3.3,3-.4.5-1.9,2.9-3.3,4.6,5.2,2.4,10.1,5.6,14.3,8.9,3.9,1,9.3-3.5,8,.7,3.5.9,8,3.2,11,1.1,2,2.6,3.2,3.2,1.2,6.9-2.7.1-4.6-.4-6.4,0,0,0-1.5-3.2-2.8-3.2-2.9.2-1.1,3,0,3.9-8-3.2-11.8-2.7-7.2.3l-3.1,5.1c-4.7-3.4-7.3,1.5-3.1,3.4.7,4.3,2.4,9.3-1.3,13,.1,1.6,5.3-1.3,6.4-.5-.1.7.9,1.8.5,2.3-1.7,1.9-4.3,1.7-3.8,4.4-2.3,2.9-3.5-1.5-5.6,0-2.1.9-.7,2.8,1.3,6.1,2.2,1.7,4.2-1.1,5.3-2.1,1.3-1,2.4-2,3.9-3s2.5-2.1,3.5-1.1c1.1,1.2,1.9.5,3.1-.5s2.8.4,4.1,0c1.3-.3,2.9,1,4.6,1.6s.4,1.3,0,2-.5,3-.5,5.1-.3,5,0,6.4c.3,1.5-1.2,4.3-2.6,5.6-1.4,1.3-1.8,3.6-2.1,5.9-.3,2.2-1.8,4-3.2,5.6-1.6,1.6-.5,1.8-.3,3.6.1,1.9-2.3,2.1-3.8,3.9-1.6,1.8,2.1,6.2,2.3,8.9.3,2.8-2.2,3.5-2.2,6s1.9,2.9,2,4c.2,1.2,2,3.4,3.6,5.1,1.7,1.8,2.9-1,4.1.3s2.2,1.2,4.6.5c2.3-.7,3.7.3,4.3,1.6.6,1.1,1.6,2.5,1.6,3.2s.1,2.9,1.8,2.9,2.7,2.1,4.6,3c1.9,1.1,3.3-.8,2.8,0-.5,1,1.1,1.5,2,3.4s2.7,2.8,4.6,2.8,1.1,3.8,3.4,2.3c2.2-1.6,1.6.2,1.6,1.2-.2,1.1-1.7,2.3-3.4,4.8-1.6,2.7-.5,1.9-5.6,2.7-5.1.7-7.3-.8-8.2-1.3-.8-.5-5.1-1-6.4-1.1-1.3,0-2.7-2.3-2.8.8,0,3.2,4.6,4.8,5.2,10.2.5,5.3,1.9,5.6,3.6,7.2,1.6,1.6,8,1.4,11,3.8,3,2.4,3.6,5,5.9,5.9,2.4.9,2.2,1,2.7,3.1.4,2.1-1.6,3.1-3.1,4.8-1.6,1.8,0,3.6.3,5.4.2,1.8-3.2.5-4.1.2-1-.2-1.5.7-1.8,0-.3-.7-1.4-2.1-2.3-3-.8-1.1-1.3-.3-1.8.4-.5.7-1.4,1.8-3.1,2.3s-3.5,1.1-4.2,2.1-1.4,3.2-2.8,5.1c-.4.5-.8.9-1.1,1.1.2.1.2.5.3.5,1,.5,1.1,2.1,1.1,4.3s1.3,1.1,3.2,1.1,3.3-.2,3.7.7c.3.9,2.1,1.6,3.2,2.1,1.2.2.9.7,1.9,1.9s2.4,1.4,3.6,1.6c1.1,0,3.3,2.4,3.8,3.5s3,.4,4.8,1.3,2.1,2,2.8,2.8c.7.7.9,1.1,2.3,1.1s1.9.7,3,1.2,1.7,1.3,1.3,2.8.6,1.9,1.6,2c.9.1.7.7,2.3,1.8,1.5,1.1,2.8-.5,4-.5s1.1,2.3,1.8,3.1c.5.7,2.1.9,4,1.1,1.9.1,2.1,1.6,2.8,2.2.6.7,1.6-1,2.5-.3.9.7,1.6,1.4,4.1.8s3.4.4,3.8,1.3,4.7,5.2,5.6,5.6c1,.5-.4,3.1-.2,4.4s2.1-2.3,4.1-.8c2,1.5,3.7.3,5.1-.5s4.4,1.9,6.4,2.3c1.9.4,7.1,1.4,8.4,2.3,1.3.9.9,4.3,1.6,5.9l.2.8c6.8-2.4,13.5-4.8,13.8-7,.4-2.5-4.3-2.1-3.1-4.6,1.3-2.5,5.5-5.6,6.6-8.1,1.2-2.7,1.6-3.9,2.7-2.1s5.9.5,4.2-1.6c-1.9-1.9-2-2.3-.5-4.3s-3-1-3-3.1,4.3-3.3-1.1-3.3-5.9-1.1-6.2-3.1c-.4-2,2.9.8,4.4-1.1,1.4-1.7,2.8.6,4.3-2.8,1.4-3.5,3.6-8.1,6.1-8.5l-.2.6c2.5-.4,8.8,6,8.7,7.5-.2,1.4-4.8,3.4-2.8,4.8,1.9,1.4,4.7-.6,5.6.2.9.9,3.8-2,5.1-1.3,1.3.8,1.6,1.3,3-.5,1.5-1.8,2.2-.5,2,1.3s.9,2.5,2.3,1.1c1.5-1.5,2.6,3.5,2.6,7.2s3.8,6.4,4.4,5.1c.5-1.3-.8-3.4,2.3-3.1,3,.4,2.2,7.5,3.3,8.7,1.1,1.3,1.3,1.9,3.9,0,2.5-1.8,4,1.4,5.9,1.8,1.8.3,4.5-.6,3.5,5.1-.9,5.9-.9,9.6.5,9.7,1.5.2,7.7-1.1,9.5-1.8s8,1.4,8.9,3.6c.9,2.2,1.8,1.5,3.5-1.7,1.8-3.2,5.5-.7,4.6,4.1-.9,4.7.7,6.6-1.3,7.7s-.7,2.7-2,5.6c-1.2,2.9-2.3,3.9-2.3,7.1s.8,3.8-.8,7.5c-1.6,3.6-2,4.4-.2,8.9.5,1.3,1,2.2,1.6,3.8,5.6-1.9,8.5.1,9.3.2.9,0,.2-2.1.8-2.8s2.1-.1,3.2-1.3c1.2-1.2,3.7-5.4,6.9-3.6,3.3,1.8,3.6-.5,3.1-3.3-.5-2.8,4.9.3,6.1,1.3,1.3,1,2.4.4,3.1.3.7-.2,5.6.1,6.9-1.1,1.3-1.1,7.7,1.4,6.2-.5-1.5-1.9-2.6-2.9.7-3.7,2.5-.7,1.2-2.5,2.1-2.3.2.2.7.3,1.7.9,4.1,2.4,5,4.6,5.9,3.3.2-.2.4-.4.5-.5,0-1.9,1.8-2.1,5.3-3,2.2-.5.7-3.2,2.1-5.3-.5-4.3,5.7-.7,3.3-10.6-.8-3.2-4.8-6.4-7.2-8-1.6-.7-1.3,1.3-2.1-.3-.7-3.8.3-4.8.3-8.7-1.6-5.2,1.9-6.5.5-9.4-1.3-2.9-5.9-5-4.6-6.9,7.8-5.2,1.6-9.5,8.1-6.1.1-4.1,2.9-4,4.3-2.8,2.3,1.9,3.6-.3,6.2-1.1,1.1-.3,3.7.2,3-9.2-.2-2.8,3-1.1,4.8-6.1,1.1-3.1,2.9-6.9,3.6-7.7,3.2-3.5,5.6-8.7,3.4-11-.7-.5-3.8.5-8.5-2.8-4.8-3.6-3.7-6.6-6.4-7.1-4-.7-4.5-6.6-7.6-6-6.8,1.2-5.3-4.8-8.7-3.6-3.6,1.2-.9-2.5-6.4-2.3-2.3-1.9-5.9-5.1-6.4-13.8-.4-7-6.6-3.2-8-8.6-1.2-5.4-2.9-6.3-4-7.5-1.2-1.1-1.6-2.5-.5-8.4.7-3.9-.7-4.4-.7-5.6-.1-1.4,1.3-1.3.7-8,1.2-2.7,3.2-1.4,5.9-2.4,1.4-.5,1.5-2.7,2.8-3.8s3.8-1.4,4.6-2.5c-1.7-6.8-.9-11.6,3.3-14.4.4-3,1.1-3.7-.3-5.9-1.4-2.1-8.1-1.4-10.5-3s-3.9-6.8-5.2-8.7c-1.3-2.1-2.7-2.7-3.7-4.1.2-1.8,2.1-1.1,4.8-2.3s.2-5.3,3.1-6.4c3-1.1,6.9,4.5,12.2-2.3.4-.4.5-.7.5-1.1.1-.2,0-.6-.2-1.1-.2-.3-.5-.6-.7-.9l-1.6-1.3c-6.1-5-8.7-.7-14.5-4.8-4.5-3.2-6.2-10-13.6-1.4-3,3.5-3.6-1.4-7.7,10.2-2.4,6.7-2.4,12.1-5.6,13-5.3,1.4-8.5-11.7-13.8-14.1-3.8-2.3-9.2,0-13,0s-7.5,2.6-12,1.1c-2.3-1.6-1.6-4.6-3-7.7-1.9-3.7-9.6-1.1-13.8-1.2-4.3-.3-2-4.2-6.6-3.6-4.8-9.4,17.9-5.1,11.7-12.8-1.9-1.2-10-2.8-10-2.8,0,0-2.7-2.4-4.1-4.9-.2-3,3.4-.1,4.8-4.3-1.9-.4-2.1-1.6.3-3.9-.4-2-1.4-2.9,1.3-3.8,2.1-.7,2.8-3,.5-4.4-6.9-3.7-12.2-4.8-20-4.8-3.2-.1-4.3-5.6-6.4-6.4-2.2-.9-.8,3.2-4.1,3-3.3-.3-11.2-4.8-12-6.2-3.1-5.3-4.5-1.9-5.3-5.5-1.1-4.3-7.8-3-8.1-3.6-1.2-1.7,2.8-2.7,2.5-5.9-.5-4.4-6.9-2.7-4.6-8.1,2.1-5,.4-5.9.8-9.4.3-3-1.1-4.4-1.3-5.1l-1.1-.5c-2.3.7,1.6,2.8-5.1,2.8-5.3-3.1-2.5-6-10-10.8-.7-1.1-1.2-1.8-2-2-.9-.2-2.1,0-3.9.7-.5-.9-1.3-5.1-3.8-6.4-2.6-1.1-6.7.7-7.7-1.6-3.2-8-5.2-8.4-7.6-10.3-.2-.3-.4-.6-.5-1.1-3-1-5-4.9-7.6-3.3-2.8,1.6-4.3-.4-5.3-.5-.5,0-1,.2-1.3.8-2.6,3.6-2.1-1.1-6.2-.9l.4-.3ZM666.9,416l.7.5-.7-.5ZM844,428.4c.5,0,1.1.5,1.8,1.1-.5-.7-1-1.1-1.8-1.1h0ZM668.9,429.8h0c0,0,.1,0,.1,0h0ZM670.7,432l2.4,1h0l-2.3-1ZM675.9,434.9l.5.3-.5-.3ZM775.6,443.2v.2c.1,1.4,0,2.4-.5,3,.6-.5.7-1.5.5-3.2h0ZM770.6,448.7c-.8,1.3-1.4,3-1.8,3.6-1.4,4.5.2,9.8-1.9,11.9,2.6-1.8.6-7.5,2.2-12.2.3-.6.9-2,1.6-3.3h0ZM686.7,451.4c-.1,0-.3.1-.4.2-.5.4-.9.5-1.1.4.3.2.7-.1,1.2-.4l.3-.2ZM736.2,465.7c0,.1-.2.2-.3.3.1,0,.2-.1.3-.2h0ZM730.7,472.1l-.4.6-.5,1.1.7-1.3.2-.4ZM727.7,479c-.5,2.3.2,3.2.7,5.4.6,3.3.2,6.2-1,8.5,1.4-2.3,1.8-5.3,1.1-8.7-.4-2.1-1.2-2.9-.8-5.1ZM718.1,487.6c-.4.4-.6.9-.9,1.3l.8-1.3h0ZM717.3,488.8l-.4.9.4-.9ZM716.7,493.5c-.3.4-.8.7-.9,1.1h0c.3-.2.6-.6.9-1.1h0Z"/>
  <path id="Croatia" class="st4" d="M360.4,59.5c-1.6-.5-9.7,5.5-9.3,7.1.6,3.1,2.3,5.2,3.2,7.7,1.8.5,2.1,2,1.9,3.6,0,0-1.1.2-2.6,0-1.6-.2-2.3-.8-2.3-.8-.4,2.1-2.9,1.3-3.6.8-1.2-1.3-1.5-2.5-3.1-1.8-1.7.7-5.5.4-6.1,1.6-.5,1.3,2.9,4.2,1.9,4.8-17.2,12.9-16.3,8-18,9.7-1.8,1.9.9,2.7-2.4,6.1-.7-.5.1-1.2-1.6-1.2s-4.3-.8-5.6,0c-1.2,2.8-2.3,5.3-3.8,8.1-.3.3,1.3.3,1.1,1.8,1,4.9,4.3,5.1,8.2,7.2.5.9-.5,3.4-.5,4.8,1,3.7,0,6.5-.5,10-.1.3-1.2,2.1-.2,3.2,1.1,1.1,3.6,2.1,1.8,2.6s-3.6,1.5-3.8,2.3c-1.1-.8-5.7-2-5.9-2-.2,1.3-1.5.5-1.5.5,0,0-1.2,3.4-2.3,2.8-1.2-.7-2.1-.5-2.6.5-.5,1,1.1,2.1.2,2.2-1,0-3-.3-7.2,2.1-4.2,2.2-5.9,4.4-6.7,5.3.8,3.8,1.4,3.2,3.7,5.3,0-6.2,4.5-1.1,6.5,2.5-1.9,2.9-3.2-.9-4.2.3.2,1.3-1.6,1.8-3,3.4-1.2,6.1,1.4,12.8,7.1,12.4,1.6-.1-2.3,4.1-4.3,4-3.8-2.2-6.2.5-6.4,2-1.7.7-4.9,1-5.3,1.1-5.2-5.7-17.5-10.8-17.7-6.7-.2,2.3,1.1,3-2.6,4.3-3.1,1.6-4.8-2.8-14.2-6.1-.9-.7,2.2-3-.7-5.1-2.3-1.6-5.3-2-5.3-3.6s2.1-3.7-.3-5c-3.2-1.6-4.4,5.5-6.2,7.5-2.4,2.6.1,1.8-.8,5.6-3.4,5.1-7.5,6.4-11.7,8.9-3.7-1-3-3-6.4-3-2.3.1-1.8,3.6-1.8,3.6-4.8.1-8-1.1-12.5-2.7-2.1-3-8.9-1.2-2.6,3.1-.5,5.5-3.2-1.3-8.7,5.9-1.8-.4-3.9-.8-4.3-2-2.8-2.9-4.5-1.6-8-.3-2.7,1.2-6.8-1.6-10.2-2.8-2.1-1.2-2.4-3-3.7-1.7l-.5,2.1s1.1,2.1,1.8,3c.7.9-.7,2.8,1.1,5.1,1.8,2.3,1.2,5.7,1.2,7.1s1.1,1.9,2.6,1.8c1.6-.2,2.8,0,2.8,0l-3.2,1.8,2.3,2.1s-1.4-.5-1.6,1.1,1,0,1.3,1.3c.3,1.3-1.1,5.2-.5,6.1s.7,1.6,1.2,2.2c.5.9-.5.4,0,2.1.5,1.6.5,1.1,1.8,1.1,1.3-.2,2.4.4,3.3.2s2-1,2.8-.8c.9.2,2.1.8,2.1.8,0,0-2.4-.5-3.1-.3-.4.1-1.2.1-1.8.2-.5,0-.9.1-1.3.2-.9,0-1.6-.2-1.8.3-.2.5.7,1.2-.2,1.3-1,0-1.3.3-.9.8.5.4,2.1.5,2.1,2.3-.1,1.7-1.3,2.1.3,2.3,1.4.1,3.2.5,3.2,2,.2,1.6.5,1.9,1.3,1.8.9-.1-.3,1.1.5,1.6.9.4,1.7,1.9,2.7,2,.9.1,3.4,2.7,4,4.4.6,1.6,2,3.2,1.3,4-.7.8-.7,1.5,0,2,.5.5,1.1.3,1.8-.3.7-.5,1.3-.2.7.7s-1.2,1.4-2.5.2l-1.3-1.1s-.4,1.4.3,1.9c.6.5,2.1.4,2.6.8.5.4,0,1.5.3,2.1s.6.3.7,0l.3-1.1v1.2l1.1.3h-.8s-.1.5.3.8c.3.3,1.1.5,1.1.5v.2s-.3.5.2.7c.5.2.5,0,1.1-.2.3-.3.4-.4.9-.3.5,0,1.1.3.7.7s0,1.3,0,2.1c.2.7.4.8,1.1,1,.7.2.5,0,.5,0l-.7-.7s.3,0,.3-.2c0-.3-.3-.7-.2-1.1,0-.3.5,0,.5-.7s.1-.9-.5-1.6c-.6-.6-.8-1-.5-1.2.3-.2,1.6.3,2.1,1.1.4.7-.2,1.3,1.4,1.2,1.7,0,3.4-.5,3.4-.5l-1.3-1.5-.9.3-.2-.3,1.1-1.1s-.7-.3-.9-1c0-.7.9-1.3,1.1-1.8s-.9-1.5-.3-2c.5-.5.5-1.1.5-1.1l-.8-.2v-.3l1.1.3s.9-.6,1.2-1.3c.3-.5,0-2.3,0-2.3l.8.8s.4.2.5-.5c0-.7.5-1.4.2-1.8l-1.3-1.3,1.6.5c0-.1.1-.4.2-.8,0-.9.5-1.4.7-2s.5-1.3,0-1.8c-.5-.5-1.6-.5-2-.9-.5-.2.2-1,.2-1.5s-.7-.7-.7-1.3.5-.9.5-1.6c0,.1.1.3.2.4,0,1-.4,1.3,0,1.8.4.5,1.1.9.8,1.3-.4.5-.2.8.3.8s1.3-.3,1.3-.3c0,0-.3.4,0,1.1.2.5.3,1.2.7,1.5l.5.3s-.9.1-1.3.7c-.5.6-.5,1.5-.5,2s.3.8.3.8c0,0,.2-.5.5-1.3.3-.6,1.1-1.1,1.5-1.4.5-.3.7-.6,1.1-.3l.5.8s.1.1.2,0c.4-.6.7-1.1,1.1-.5.2.5,0,1.4.5.7.3-.5,1.6-1.9,1.4-2.8-.1-1-.1-2.7-.7-3.8l-1.6-3.1,1.1.7c0-.4,0-.7,0-1.1.3-.5-.3-.3-.5-1.1-.2-.7-.2-1.6.3-1.1s.8.5,1.3-.5c.5-.8,1.6-3,1.5-3.5-.1-.5-1.5-1.6-1.5-1.6l1.8,1.3c.2,0,.8-.3,1.1-1.1.2-.7,0-1.6.5-2.8.4-1.2.9-2.4,1-3.3.2-.9-.2-1.4.5-3.8.9-2.5.8-5.1,1.3-6.7s1.4-3.6,2-4.8c.6-1.3,1.3-1.9,1.3-1.9,0,0,1.2,1,2.6,1.1,1.4,0,3.1.7,4.1,1,1.1.4,2.7.5,3.6,1.4.8,1,2.3,1.6,3.2,2.3,1.1.5,3.2.7,3.2.7v-1.1l-1.1-1c-.5-.5-1.1-1.1.7,0,1.8,1.1,2.7,1.8,1.8,1.8s-.8-.4-1.1,0c-.3.5-.1,1.2.5,2.1.7.7,3.1,2,3.4,3s1.2.7,3.1,2.6c2,1.9,4,3,4.7,3.8.6.9.7,1.5,2,2.1,1.4.5,2.7.7,4.1,1.2,1.4.4,1.6,1.4,2.6,1.1,1-.5.5-.1.8,1s.4.6,1.3,2.8c.8,2.1,1.6,3.8,2.2,5.1.5,1.3,1.1,1.8,1.1,2.6s2.1,1,2,3.6c-.2,2.5-1.3,6.1-1.3,7.6,0,1.4-.7,2.1-.7,3.4-.1,1.1.2,5.1.7,7.5.5,2.3,1.4,3.7,1.3,4.8s-1.5,1.3,0,3.3c1.5,2,2.7,4.3,3.8,5.3,1.1,1.2,2.1,3.9,3,5.2.8,1.3,3.2,2.4,5.3,4.4,2.2,1.9,5.3,5.9,7.5,7.1,2,1.3,6.4,5.3,8.7,7.5,2.2,2.2,6.2,4.5,8.4,5.1s3.9,1.3,5.1,2.8c1.2,1.4,2.4,1.1,2.8,1.7.4.7,1.6.5,2.3.3.7-.3,2.6,2,2.6,2,0,0-3.5.3-5.1-.3-1.5-.6-2.7-.7-3.6-.2-.9.5-6-1.3-6.7-2.6s-.8-1.4-2.8-2.6c-.7-.4-.5-.1-1.1-.2.1-.2-.4-.8-2-2.1-6.4-5.1-10.2-10.4-13.6-11.7-3.4-1.3-1.5,2.6-4.8,0-3.4-2.6-8.2-5.9-4.9-4.8,3.3,1,13.5,7.3,8.4,2.2-5-5.1-9.8-11.2-12.2-11.2s.5,5.9-5.5,0c-6.1-5.9-10.4-11-3.3-.5,7.1,10.5,9.7,12,15.1,16.3,5.9,6.1,9.5,4.6,8.9,7.1-.5,2.4-.5,5.9,3.1,6.9,3.6.9-.8-2.1,2-1.6,2.9.5,8,2,5.3-.8-1.1-1.3.7-.7,2.1-.3,0,.5,0,1.3.8,1.8,1.2.9,2.9,1.4,2.8,2.1-.1.5-2.1,0-1.8.7.4.7,2.1,2.8,1.6,3.1-.7.3-3.9-1.1-5.2-2.6-1.3-1.6-1.8-1.6-1.8-1.6l.3,1.3-1.3-1.1-.3,1.3s1.4.8,1.6,1.6c0,.6-.2,1.9-.9,1.4-.7-.4-1.1-.2-1.1-.2l.3,1.1-3.4-3.6s-.3-.2-.8.2l-1.2,1.8s.9,0,1.2.7c.4.7,1,.6,1.9,1.6.9.9.5.9.5,2s.4,1.6-.3,1.8-.5.3.5,1.3c1,.9,3.6,2.3,3.6,4s1.5,1.3,1.5,1.8,1.2,2.1,2.6,2.2c1.4.2,1.6,1.4,1.8,2.6.3,1.2.9,1.3,1.8,1.3s-.2,1.7.8,1.8c1.1,0,3.3,1.1,4.5,3.2,1.3,2.2,5.1,3.7,5.7,4.6s0,2.1,1.6,3.1c1.5.9,4,1,4.8,1.8.7.7.5,1.6,2,2.5l2.3,1.3c.4.3.8.6,1.2.7h.2c.5.2.9.5,1.6.5,1.3,0,3,1.2,4.1,2.6,0,0,.2,0,.3.2v.3c0,.2.2.4.3.5l-.8-.2-.3-.3h-.2c-.3,0-.6,0-.9-.2-.2,0-.5,0-.7,0-.6-.2-1.2-.4-1.8-.5h-.3v.3h.3v.2c.1.1.3,0,.5.3.5.6,1.1,1,1.8,1.3h.2c.5.2.9.4,1.3.5.2.1.4.3.5.5l1.6,1.2c0,.1.4.1.5.2.5.4.9.7,1.6.8.9,0,1.7.2,2.4.4.4.1.7.4,1.1.3.7-.4.5-.7,2.2.3,1.8,1,3.4,2,3.8,2s.3.2.5.8,1.6,1.9,2.3,1.8.1-.7,1.1,0c.9.9,1.3,1.5,1.2,1.8-.1.3.3-.2,1.1.5.7.5,1.4,1.3,1.5,1.8.2.5.5.9-.4.3-1.1-.7-1.3-.1-1.1.2.3.3,1.6.5,1.6.7-.1.3.2.7-1.1.5s-1.6-.5-1.1.5c.7,1.1,1,2,.8,2.8-.2.7-.7,1,0,1.3.9.4,1.1.2.5.8-.5.7-1.1,1.3,0,1.6,1.1.2,1.4-.1.8.5s-1.9.5-.4,1,2.6.5,2.3,1.3c-.3.8,0,2.1.5,1.3.4-.7,0-1.3.7-1.4.6-.2.5-.1.5.5-.2.6.8.7.2,1.3s-.2.7-1.3.7c-1.1,0-2.1,1.1-.8,1.1h2.6c.9,0,.3-.1.3.5,0,.5,1.1,1.1,1.6.5.4-.5.9-.8,1.5-.3s1,1.8,1.8,1.1c.8-.9.4-1.1,1.2-.5s0,.8,2,.5c2.1-.4,3.5-.4,2.1-.8-1.4-.5-.4-.2,1.6-.5,1.8-.5,2-1.1,1.2-1.6-.8-.5-3-.5-3.6-.7-.5-.3-1.3-.9.8-.8,2.1.3,3.7,1.1,4.8.5,1.2-.4,1.8-1.3,2.7-.6.8.5,1.4.1,1.5.5,0,.3,1.1,1.1-.2,1-1.2,0-1.9-.5-2.6-.2-.6.3-2,.6-1.1,1.1,1.1.4,1.5.3,2.1.3s.5.2,0,.5c-.5.3-1,.9.2.5,1.1-.5,1.9-.7,2.5-1.3.5-.7.2-.4.7-.3.1,0,.1.2,0,.3h1.9c3.6,0,3.2,0,5.1-.3,1.9-.2,2.7-1,1.6-1.1-1.2,0-2,.2-3.8-.5-1.8-.6-2.6-1.3-3.6-1.2s-1.6.3-1.8,0c-.1-.3.9-.7,1.6-.7s.5-1,1.5-1.6c.9-.5,1.6-1.2,3.1-1.2s3.3,0,4.8.3c1.6.2,3.2-.2,3.6.3s.2.1.3.2c-1.6.5-2.9.7-3.4,1.1-.5.3,1,.8,0,1.3s-1.3-.6-2.1,0c-.7.5-1.5,1,.3,1.1,1.8,0,2.5.4,2.8,0,0,0,0,0,.3,0,.6.2,1.4.2,2.3,0,.9-.4,2.8-.5,3.6-.5.9-.2,2.3,1.4,3.4,2.2,1.1.9,5.3,2.2,5.9,2.8.5.5,2.1.5,2.8,0s1.7-.3,2,.5c.4.6.9,2.3,3.9,2.2,3.1,0,9.3.5,9.5,0,.2-.4,1.3,1,1.8,1.3s2.1,1.4,2.8,2,1.8,1.5,3.1,3.1,4.1,4.4,4.8,4.6c.8.3,2.3,1.9,2.1,2.6-.3.7.8-.2,1.1.5.1.7,2.4,1.2,2.5,1.8,0,.5.6,2.1,2.6,2.2,1.9,0,1.4,2.3,3.3,2.3s3.9,1.1,5.1,1.3c1.2.3,2.1.5,2.6,1.3s.5,1.6,1.6,1.6c1.1-.1,1.5.2,2,.4.5.3.9.6,1.3,1.1.4.5.7,1.2.8,1.6,0,.3.7.3,1.1.5.3.1.4,1.2,1,1.5s1.4.7,1.8,1.3c.3.5,1.2,1.6,1.4,1.1s-.2-.5-.2-1.3c0-.3.1-.5.2-.5v-.3c0-.1.2-.1.3,0,.3.3.7.1.3.7-.4.5-.2,1.4,0,1.8.2.4.2.4.7.3.6-.2,1-.4,1.3-.5.1,0,.2-.1.3-.2,0,0,.2.1.3.3v.3c0,.1,0,.3-.3.5-.5.4-.3.7-.3,1.1.1.3,0,.3.5,0,.4-.4.5-.7.5,0s-.2,1.1.2,1.5c.4.5.7.5.7,1.1,0,.5,3.5,3.4,4.3,3.7.6.3,1.3.5,2.1.5.4.1.7.2,1,.3.7,0,2.9-.7,4.1-1.1,1.1-.4.7-1.6,2.5-2.3,1.8-.5,3.6-1.2,3.6-1.2l-6.4-11.5c-5.4-2.6-10.8-6-16.6-7.3,0,0,1.1-3.4-.8-4.8-2.2-1.1-5.5-1.5-7.1-4.3-2.4-3.5-5.4-7.5-6.9-12,0,0,2.4-2.3,2-5.1-3.2-2.7-1.9-5.3-9.4-3.4-3.4-2.6-7.1-4.7-11-6.4-2.3-1.8-6.4-5.9-7.5-7.1-2.1-2.5-4.4-5.7-7.3-7.7-1.6-.8-.9-1.6-2.1-2.7-2.5-.9-5.3-.9-6.7-3.7-1.3-4.1-1.3-6.4-6.4-8.3-2-2.1-4.3-4.8-7.5-5.9-1.1-.5-.9-1.1-1.2-2.1-1.1-1.6-1.9-3.5-3.4-5.1h-4.8s0-3.1-.4-4.1c-1.6-.5-5.1.3-5.9-2.3-.3-.6-2.8-.6-3.3-1.6l-1.1-2.7-7-6.9c-.3-.8,0-2.9-1.3-3.6-.5-2.7-2.7-4.3-.7-7.2,0-.7,2.1-2.3,0-3.6l-2.3.3c-1.1-.4-1.2-3-3.1-1.3l-.3-1.6c1.1-.5,2.7,0,2.8-1.4-.9-.5-1.1-2.1-2.6-1.5v-3.1s.5-1.4-.2-2.8c-.8-1.3-2.5-5.1-4.3-5.1s-4.9-2.2-4.9-2.2l-.5-2.6s.9.4,1.6-.3c-.3-2.1,1.2-4.8-1.3-6.7-2.7-1.6-5-1.1-5.7-5.1,0-.5-1.4-.3-1.8.3l-3.1-3.9c-.8.5-.9,4.1-2.6,1.8l-1.3,2.1c-3-2.2-7.2-5.5-8.1-10.8,1.3-.1,3.3-.9,4.1-2.6-1-1.6-4.4-1.6-2.8-4.4-1.1-4.6-3.2-5.1.7-7.7l.2-3.1-1.8-1.3-2-4.3c.5-1.2,3.4-2.1,1.6-3.4l1.7-2.8c-1.2-3.3-2.9-4.5-.7-7.9,2.4-1.4,2.8-3.9,6.1-3.1,1.1-.2,2.9-2.3,3.2-.8.2,1.4.7,1.8,1.7,1.1,1.1-.9,1.8-1.8,3.4-1.1,2.4,3,.7,3.7,3.5,4.3.9.9,3.5,3.7,3.6,4.4s-.5,2.3.7,3c1.3.7,4.3,1.1,5.3,2.1,4.8,4.8,6.6,6.9,13.8,6.1.7-1.9-.2-4.4,2.1-5.4l-.3-3.3c1.4-2.1.3-3.2,2.7-4.1,0,0,2.4-2.1,3-3.4.5-1.3-.4-2.4-.3-2.8,0-.5,1.1-1.4,1.1-2.3s2.4-2.5,3-2.5,1.4,1.1,2.7.2c1.4-.8,1.8-1.8,2.7-1.1.8.9,6.1,2.9,6.1,2.9,0,0,1.4-1.9,2.8-1.5,1.4.5,5.3,2.1,6.7,1.6,1.3-.8,1.1-1.9.7-2.4.7-1,2.7-2.1,2.7-3.6.5-1.3,2.1-2.7,3-3.7,1.1.2,2.2,1.4,1.1,3.5-1.1,1.9,5.6,2.2,7.1,1.1.5-.5,1.1,1.6,2.3,2.5,1.2.9,3.8,1.8,5.9,2.7,1.1.5.8,1.2,3.3,1.3s4.6-.2,4.8-1.8c.3-1.6,1.1-2.7,1.1-2.7,1.6,1.3,3.1.6,4.1,3.2,0,0,.4.9,4,.8,3.6,0,3.5-2.3,4-2.3s.8,3.1.8,3.1c3.2.8,5.5.6,8.9,0,.5.3.3,1.6,1.8.7,1.6-.9,3.1-2.9,4.2-2.8,1.1.2,1.2,1.2,2.3,1.4,1.2.2,4.3,2.1,5.2,2.3,1,.1,1.6,0,4.1,2.2,2.7,2.1,4.8.8,7.2-1.6,2.3-2.3,1.2-2.2,1.1-3.2-.3-1.1,1.1-1.6,2-1.6s.7-3.2,1.6-3.6c.8-.3,1.9-1.1,2.5.7.5,1.8,1-.5,1.8-.9.8-.3,1.8.6,2.3,1.3.5.5-1.2,1.3-.2,2s2.7,2.5,3.8,2,2.5.2,4.1,0,3.2-1.7,2.7-2.8c-.6-1.1-2.2-2.4,1-3.6,3.2-1.1,2.4,1.8,3.3,1.8.9,0,1.2-.5,2.1.5.9.9,6.3-1.1,7.1-1.1.9-.1,1.8,2,3.4,3.3,2,.2,4.3.5,5.9-.3-2.1-3,5.5-5,6.9-1.3,2.1-3.5,5.9-1.2,3.6,1.8,1.3,1,1.4.2,2.8,1.5s.4,2.8,1.1,3.4c3-2.5,8.1,5.9,4,5.3-1.6-1-2.2.4-1.2,1.3s3,4.8,6.4,5.6c4.5.5,9-.3,13-.7-2-3.2-3.4-5.1-1.3-6.1,2.1-1.5,3.3,2.9,5.6,0-.4-2.7,2.1-2.5,3.8-4.4.3-.5-.6-1.6-.5-2.3-1.1-.8-6.3,2-6.4.5,3.7-3.7,2-8.8,1.3-13-4.3-1.9-1.6-6.8,3.1-3.4l3-5.1c-4.6-2.9-.7-3.5,7.2-.3-1.1-.9-2.8-3.6,0-3.7,1.4-.1,2.8,3,2.8,3,1.7-.3,3.7.2,6.4,0,1.9-3.6.7-4.3-1.3-6.9-3,2.2-7.5-.1-11.1-1,1.3-4.3-4,.2-8-.7-4.1-3.3-9-6.5-14.2-8.9,1.4-1.8,2.9-4.1,3.3-4.6-1.1-1.2-3.3-1.4-3.3-3.1-.3-1.4,1.5-2.4,2.3-3.6.4.3,3.2.7,4.3-.9,1.2-1.6.7-2.7-1-3.4-2.8.9-2.7-1.7-3.3-2.1-2.5-.2-4.8,1.4-6.7,2.1-1.3-2.1-2.5-3.3-3.3-4.4,0-2.1,3.2-1.5,3.4-2.8-5.2-3.4.5-2.3,1.2-4.6-1.1-3.3-4.2-2.7-4.6-4.3,7.3,1.8,4.5-12.6-1.1-4.4-2.7-.9-5.3-3.1-3.5-3.4,7.5.5,3.4-7.5-1.7-3.5-1.1-3.9,4.3-3.5,2.8-5.7-2.4-2.4.2-3.6.3-4.5-.7-.3-3-.3-3-.3.4,2.4-2.6,1.9-3.1,1.1-1.4,1.2-.2,2.6-.3,3.8-3.5,0-5.2-1.8-8-3.1l-2.7.7c-.7,4.4-.9,3.2-2.3,6.6,1.3,1.6-1.6,3.7-2.8,4.4.4,1.9-2.6,2.1-3.7,3l-1.6-.8c1.5,3.2-1.1,2.9-2.8,3.2,1.9,4.9-1.9,1.9-3,2.9,0-4.8-4.2-.3-4.6-.3l-3-.8c-1.2,1.4-2.7.1-4.1.2-4.3-3.3-7.5-1.4-10.1.7l-5.6-.5c-3.2-2.5-9.3.2-10.2,2.7-5.7-5.5-11.2-5.3-16.3-8.8-1.7-3-4.3-4.3-7.2-6.4-2.7,1.4-6-.1-8.4-.5-.4,4-8,1.9-5.1.2.7.1,2,.2,1.8-.5-2.7-.6-.5-1.1-1.6-3-1.4.7-2.8,1.9-4.3,2.8-.3-1.6,1.1-1.2,2.1-2.8-3.7,1.2-3.5-.9-6.2-1.6,1.2-1.9,1.6-3-6.7-11.6-1.5-1.6-5.5,1.8-2-2.1-2.1-2.1-7.5-3.8-13.2-5.4l-.3-1.7-1.6.3c-1.4-1.8-3.4-2.5-5.1-3.6.2-4.6-2-5.6-4.1-8.9-1.2.8-1.8-.5-2.6-.7l-3.8.3c-.1-2.8-1.6-1.1-2.3-.5l-4.1-6.4c-2.1-.4-4.3-1.4-6.1-.7-5.7-2.8-11.3-5.9-14.1-6.8l-.5.4ZM328.2,339.5c-.2-.4-.5-.8-1-1.2-.8-1.1-1.6-2.1-2-.5-.4,1.6-.3,1.5,0,2,2,2.1,2.6,1.2,3.6,2.8,1.1,1.6,2.7,1.8,3.4,1.8s.1-.7-.7-2.1c-.9-1.3-1.1.4-2.3-1.2-.6-.7-.5-1.1-.8-1.4h0ZM242.5,201.7c-1.9.7-1.4,6.4-1.6,8.7-.3,2.5,0,4-1.3,3.3s-3.1-.2-3.1,2.1-3,0-2,3.5c1.1,3.6,6.7,5.6,10.2,4.4s3.8-.3,3.6,2.6c-.3,2.8,5.1,3.1,7.3,5.1,2.4,2,2.9-1.3,2.1-2.3-.8-1.1,4.3-.3,5.3-1.1,1.1-.7-4.3-5.1-6.6-7.6-2.3-2.6-3.4-2.6-5.3-4.1-2.1-1.6.7-4.4-.8-5.7-1.6-1.3-3.7-.3-2.8-1.3,1.1-1.1,1.1-2.1-4.1-7.8-.3-.1-.7-.1-1.1,0v.2ZM226.6,209.4c-1.5.4-2.9,3.4-3.5,6.1-.7,3.6,4.4,4.4,6.4,10,2,5.6,4.4,11.2,2,10.6-2.3-.4-4.3-4.5-4.8-2.2s0,4.1,2,9.7c2,5.6,5.3,14.1,9.2,18.6,3.8,4.6,4.4,4.2,6.4,3.6,2.1-.5-1.8-4.6-4.8-14.1-3-9.5-2.1-13.3-2.1-18.9s-.2-4.8-1.8-3.5c-1.6,1.3-2.7-3.6-6.2-10-1.6-5.6.7-7.1-1.3-9.4-.5-.6-1.1-.8-1.6-.5h0ZM255.5,240.8c-.8.3-.2,1.5,1.1,3,1.5,2.1,0,2.8-1.3,1.8-1.3-.9-4.7-.5-1.9,2.4,2.8,2.8,3.4,1.3,8.2,3.3,4.8,2.1,4,4.4,5.5,3.4,1.6-1.1-1.3-4.2-7.1-8.7-1.3-1.3-.7-4.6-3.3-5.1-.6-.1-1.1-.1-1.3,0h.1ZM230.7,256.9c-.8.1-.1,1.9,1.1,5.3,1.5,4.6,1.5,4.4,1.5,6.7s.5,3.8,2.3,2,2.2,1.8,5.6,4.8c3.3,3.2,3.6,3.6,4.6,2.9,1-.7-.7-2.6-5.1-5.6-4.3-3-5.3-6.6-6.7-11-.2-3.1.5-3.3-2-4.6-.4-.2-.8-.4-1.3-.5h0ZM264.3,283.2c-.9.1-1.5,1.9-1.1,2.8.5,1.2-2.8,2.4,0,3.5,2.6.5,3.6,1.6,2.8-1.1-.7-2.5,0-3-1.1-4.8-.2-.4-.4-.6-.7-.5h0ZM265.7,298.8c-.4.1.2,1.1,2,3,4.8,2.8,11.2,4.8,5.3.7-3.6-2.5-6.8-4.2-7.3-3.7ZM269.3,306.6c0,.3.8,1.2,2.3,3.4,6,8.5,11.9,11.7,14.4,15.6,2.3,4,2.5,2.8,3,4.1,6.8,7,10,8.5,17.1,12.8,7.1,4.3,14.9,9,8.1,3.6-6.8-5.5-10.3-6.6-12.8-9.7-2.3-3.1-2.2-2-6.4-5.9-4-3.8-5.2-4-8.6-7.7-3.4-3.7.5-2.7-6.1-7.5-5-3.3-11-9.3-11-8.5v-.2ZM285.9,308.8c-.4.3.9,2,5.3,6.5,4,4.4,9.8,7.7,15.5,13.3,5.7,5.7,12.2,6.1,10,4.4-2.3-1.7-9.5-8.7-13-11.3-3.6-2.4-10.3-8.2-13.7-10.9-1.8-1.3-3.7-2.4-4.1-2h0ZM376.4,376.1c-1.6,0-2.3.5-1.4,2,.9,1.6,1.8,1.6,3.3,1.3,2.6,1.4,2.1,1.2,4.4,2.1,2.1.8,5.2,3,6.1,2.2s-.4-1.6-2.3-3.8c-2-2.1-1.9-2.3-4.7-3.1s-4.1-.7-5.6-.7h.3ZM392.7,376.7c-1.1,0-1.2.2-.7,1.2.9,2.1,1.4,2.6.5,3.4-1,.7-.3,1.6,0,2,.2.5-1.2.8-1.6.3s-1.4.3,1.1,1.6c2.4,1.2,1.1-1.2,3.3.7,2.1,1.9,6.2,3.5,13.5,2.8,14.6-1.9,16.3-2.7,17.4-5.7,1.1-2.9.1-2.5-5.9-4.3-6-1.8-16.1-2.1-21.8-1.8-2.7.2-4.7-.3-5.9-.3h0ZM401.9,392c-1.5.3-2.3,1.2-2.1,1.9.3.6,2.1.3,3.7,1.8,1.3,1.4,1.6,1.1,0,1.6-1.9.7-2.1-1.2-3.7-2.2-1.5-1.1-3.6-.3-4.8.2-1.3.5-3,1.6-4.2,1.3-1.1-.4-2.4.4-1.3,1.1,1.2.5,2.4.5,4.4,1.8,1.9,1.1,2.4.4,3.3.5.9.1,2.6.9,8.9,1.8,6.4.9,4.8,1.4,8.2.7s4.3-1.6,10.4-1.1c6.1.7,18.7-.7,23-2s2-1.8-.8-1.8-6.2.3-12.8-.3c-6.5-.5-7.5.6-18.1,1.3-2.6-.1-1.7-.5-3.6-1.3s1.6-1.1-.5-1.6c-2.1-.4-1.4-1.3-1.8-2.2s-2,.2-3.3,0-2.3.3-3.6,0-.2-1.8-1.6-1.6h.2ZM438.4,407.6c-.7,0-.3,4.1-.3,4.1,0,0,3.8,2,6.9,2.1,3.1.2,6.2-1.3,7.7-.7,1.4.5,7.8,2.8,9.6,4.1,1.9,1.3,4.6.3,6.9,1.6,2.4,1.2-1.3,1.7,2.3,3.5,3.6,1.8,21,5.9,21.7,5.3s-3.1-4.3-3.1-4.3l6.7,4s.7-3,3.7-1.1c3.2,2,5.3,4.1,9.6,6.4,4.1,2.4,7.6,3.4,7.6,3.4,0,0,3,1.3,1.8,1.8s-1.1,1.6,2.8,2.3c3.7.7,5.7,1.6,6.6,1.3.9-.4,3.1.2,2.6,1.8-.5,1.6-2.6,2.7,3.1,5.3,5.6,2.7,12.8,5.9,16.5,8.7,3.9,2.9,5.7,3.8,5.7,3.8l-1.3-3.6-4.4-3.6-2.5-1.3.5-2.7-1.6-4.5-.2-1.3s-.9-.3-1.8-.7c-.8-.4-1.6-.9-2.3-1.5-.5-.7-1.1-1.3-1.8-1.8-.6-.6-1.3-.8-2.1-.5-1.4.6-4.7,2-5.6,2.3l-.7.2s-1.2-.7-2.2-1.5h-.2c-.4-.4-.7-.5-1.1-1.1-.6-.9-1.1-1.5-1.5-2-.2-.2-.4-.4-.5-.5-.1,0-.3,0-.5,0-.9.3-.7,1.1-1.8-.5-1.1-1.6-1.4-1.1-2.6-1.2-.6,0-1-.1-1.3-.3-.2,0-.2-.2,0-.5.4-.5.9-1.6.3-2-.7-.5-1.8-.4-2.6-1.1-.9-.5-1.6-1.7-3.4-2-.9-.2-1.4,0-1.8,0s-.3,0-.5-.2c0,0,0-.2-.2-.5-.5-1.3-.2-1.8-1.5-1.8-1.3,0-1.4-1.8-3.8-2-2.4-.2-3.4.3-3.4-.3s.5-1.7.5-2-.6-.7-1.3-.8c-.7,0-1.8-1.3-2.1-2.2-.3-1-.3-1.8-.5-2.3-.2-.5-2.3-2.3-3.3-2.6l-.5.3c-.5.5-1.1,2.1-1.2,2.2-.1.2-1.2-.5-2.1-1.1-.9-.5-2.8-1.1-4.3-1h-2.1l-1.4,2.3-.7,1.2c3.2,1.3,2.8,2.2,4.1,1.3.3-.2.3-.4.3-.5-.1.2,0,.7,1.1,1.6,2.1,1.6-1.3.9-4.9-1.1-3.6-2-9.4-2.9-10-3.6s.7,1.6.7,1.6c0,0-4.3-.5-5.3-1.8s1.5-1.8-7.2-4.4c-8.7-2.4-12.6-1.9-17.6-2.2-5.1-.4-7.5-1.8-8.3-1.8l.2-.3ZM378.9,410.2c-1.4.2-3.3.4-5.9.5-5.2.3-7.7,1.6-6.4,2.8,1.2,1.3,3.7,1.3,2.5,3-1.3,1.8-1.1.8,4,.3,6.9-2.3,8.5-3.6,8-5.6-.3-1.1-1.1-1.1-2.3-1.1h0ZM435.6,415.3c-1.6.2-2.7.5-3.8.8-2.1.5-2,2.8-7.7,1.3-5.5-1.6-6.9-2.1-9.9-1.8-2.9.3-4.5,1.4-1.1,1.8,3.5.4,3.9.4,2.1,1.3-1.8,1.1-1.7,2-2.8,2.7-1.1.5-.5,1.8,1.1,2.3s.5-2.3,3.8-.7c3.2,1.4,1.2,0,2.7.7,4.8-.1,6.4,1.8,11.1-.5,4.6-2.3,5-2.7,11.3-2.6,6.2.2,9.6-.2,10.2-1.3.6-1.1-1.9.5-3.1-1.1-1.1-1.4-.9-2.3-6.9-2.7-2.3-.2-4.6-.2-6.9,0v-.2ZM467.2,429.3c0,0-.3.2-.7.5-2,.9-5.6,2.4-2.6,2.8s6,.5,8.2,1.3c2.1.6,4.4.9,5.9,1.4,12.6,1.6,14.4,1.5,15.8,1.5s2.8-.5-.8-1.8-8.5-2.4-13.8-2.8c-5.2-.4-7.7-1.9-10.1-1.9s-1.4-1.2-1.9-1.3v.2ZM501,430.9c-.1.3.7,1.2,2.7,2.8,2.9,1.1,3.7,2,3.7.7s-.5-1.8-3.5-3c-1.6-.5-2.6-.7-2.9-.5h0ZM429,435c-1.8-.2-3.2.2-3.3,1.6-.3,2.5-2,1,2.8,3.7,5.1,0,9.7-3.7,6.1-4.3-1.8-.3-3.9-.9-5.6-1.1h0Z"/>
  <path id="Slovenia" class="st3" d="M352.5,28.7c-11.5,0-22.5,2.8-20.2,15.1.9,2.3,5.4,6.4,3.2,7.1-17.6-11.2-14.9,0-25.1-3.1-13.3,5-6.4,8.2-11,10.5-4.8,2.7-2-2.7-8.5-3.3-3.2-.3-7.8,2.7-14.3,1.8-3.3-.4-10.2-1.1-11.7,2.3-3.3,7.2-2,.3-4.4.8-1.5.4-1.8,5-3.8,1.8-5.2,5.3-3.2,9.6-6.2,11.7-8.9,0-5.6,6.9-12.8,7.7-1.5.8-.7,7.5-2.3,6.7-3.9-8-5.1-1.6-7.7-4.8-5.6-5.9-12.5,1-18.6.2-8.5-7.3-12-1.9-18.4-6.2-2.9-2.5-7.5.9-14.1-1.8-.4,11.4-22.2,17.8-21.9,26.8-1.6,9.2,14,5.9,17.8,8.9,5.3,4.7-6.4,9.8-8.7,16.7-3,10,9.2-.7,10.8,3.1,1.6,3.9-8.9,12.8-3.6,15.9,7.7,4.6,35.7,23.8,13.5,22.5-3.6-2.2-4.8,1.6-4.8,1.6,0,0,5.9,2.1-.3,3.7-2,.6-3.7,1.8-5.6,1.3-1.5-.3-1,2-3.7,1.6,2.9,2.7,2,5.1,2,5.1.9.5,1.7.9,2.7,1.3,1.8.7,3.6,1.1,4.8.5,3.6-1.2,5.3-2.7,8,.3.4,1.2,2.6,1.6,4.3,2,5.6-7.2,8.3-.4,8.8-5.9-6.4-4.3.5-6.1,2.6-3.2,4.6,1.6,7.7,2.7,12.6,2.6,0,0-.5-3.5,1.7-3.6,3.5,0,2.8,2.1,6.4,3.1,4.3-2.7,8.4-3.8,11.7-8.9,1-3.9-1.6-3.2.8-5.6,1.8-2,2.9-9,6.2-7.5,2.3,1.2.2,3.4.2,4.9s3,1.9,5.3,3.6c3,2.1,0,4.4.9,5.1,9.4,3.2,11,7.6,14.1,6,3.7-1.3,2.4-2,2.6-4.3.2-4.2,12.5.9,17.6,6.5.5,0,3.7-.3,5.3-1.1.3-1.4,2.7-4.3,6.4-2,2.1,0,6-4,4.4-3.9-5.9.4-8.4-6.4-7.2-12.5,1.4-1.6,3.2-2,3-3.4.9-1.1,2.3,2.7,4.1-.3-2.1-3.6-6.4-8.6-6.4-2.6-2.4-2.1-3.1-1.4-3.9-5.3.7-.9,2.5-3,6.7-5.3,4.1-2.4,6.2-2,7.1-2.1.9,0-.7-1.3-.3-2.3.5-1.1,1.4-1.1,2.7-.5,1.2.6,2.3-2.8,2.3-2.8,0,0,1.4.8,1.6-.5.2,0,4.8,1.3,5.9,2.1.3-.9,2.1-2,3.9-2.3,1.8-.3-.8-1.4-1.8-2.6s0-3,.2-3.4c.5-3.5,1.4-6.3.5-10,0-1.4,1.1-4,.5-4.8-4-2.1-7.3-2.3-8.2-7.2.2-1.6-1.3-1.5-1.1-1.8,1.6-2.8,2.7-5.3,3.9-8.1,1.3-.7,4,0,5.6,0s.7.7,1.4,1.3c3.4-3.5.7-4.3,2.6-6.1,1.7-1.8.6,3.2,17.9-9.7,1.1-.6-2.3-3.6-1.8-4.8.5-1.3,4.3-.9,5.9-1.6s1.9.5,3.1,1.8c.6.5,3.2,1.3,3.6-.8,0,0,.8.5,2.3.9,1.5.2,2.6,0,2.6,0,.3-1.6,0-3.2-1.8-3.6-.9-2.6-2.7-4.7-3.2-7.7-.4-1.7,7.9-7.7,9.4-7.2,2.8,1.1,8.4,4.1,14.1,6.9.5-.1,1.1-.2,1.6-.2v-.3c-16.2-12.9-20.5-36.9-23.6-36.9h.3Z"/>
  <path id="Bosnia_and_Herzegovina" class="st4" d="M410.3,184.4c-1,1.1-2.7,2.5-3,3.7.1,1.6-1.9,2.7-2.6,3.7.2.5.5,1.6-.8,2.2-1.3.7-5.3-1.1-6.7-1.5s-2.8,1.6-2.8,1.6c0,0-5.3-2-6.2-2.9-.9-.8-1.2.2-2.7,1.1-1.3.8-2.1-.3-2.7-.3s-3.2,1.6-3.2,2.6-.9,1.9-1,2.3c-.1.4.9,1.6.3,2.8-.7,1.2-3.2,3.3-3.2,3.3-2.3.8-1.2,1.9-2.7,4l.4,3.3c-2.3,1.1-1.4,3.6-2.1,5.3-7.2.9-9-1.2-13.7-6.1-1.1-1.1-4.2-1.3-5.3-2-1.3-.7-.7-2.3-.9-3.1s-2.8-3.5-3.6-4.4c-2.8-.6-1.1-1.3-3.6-4.3-1.6-.8-2.4.2-3.4,1-.9.8-1.5.4-1.8-1.1-.3-1.4-2.1.7-3.1.8-3.4-.9-3.7,1.6-6.1,3.1-2.1,3.4-.4,4.6.7,8l-1.8,2.7c2,1.4-.9,2.2-1.4,3.4l2,4.4,1.9,1.3-.3,3.1c-3.9,2.6-1.8,3.1-.8,7.7-1.6,2.7,1.8,2.8,2.8,4.4-.8,1.6-2.8,2.4-4,2.6,1.1,5.2,5.2,8.5,8.3,10.6l1.3-2c1.6,2.3,1.7-1.2,2.5-1.8l3.1,3.8c.4-.5,1.9-.9,1.8-.3.7,4.1,3,3.5,5.6,5.1,2.5,1.9,1.1,4.5,1.3,6.7-.6.6-1.6.3-1.6.3l.5,2.6s3.1,2.3,4.9,2.3,3.5,3.8,4.3,5.2c.9,1.4.3,2.8.3,2.8v3.1c1.4-.5,1.7,1.1,2.6,1.6-.1,1.4-1.8.9-2.8,1.6l.3,1.4c1.9-1.7,2,.9,3.1,1.3l2.3-.2c2.1,1.2,0,2.8,0,3.6-1.9,3,.2,4.6.8,7.2,1.3.8,1.1,2.8,1.3,3.6l7.1,6.9s.5,1.9,1.1,2.8c.5.9,3,.9,3.3,1.5.7,2.7,4.3,1.9,5.9,2.3.5,1,.3,4,.3,4h4.8c1.6,1.6,2.3,3.5,3.4,5.1.4,1,.2,1.6,1.3,2,3.2,1.1,5.4,3.7,7.5,5.9,5,1.8,5,4.2,6.4,8.2,1.3,2.9,4.2,2.9,6.6,3.8,1.3.9.4,1.8,2.1,2.6,2.9,2,5.2,5.2,7.3,7.7,1.1,1.3,5.1,5.3,7.5,7.1,3.7,1.4,7.3,3.8,10.9,6.4,7.6-1.9,6.4.7,9.6,3.4.5,2.8-2.1,5.1-2.1,5.1,1.6,4.4,4.6,8.4,6.9,12,1.6,2.7,4.8,3.2,7.2,4.1,1.8,1.6.7,4.9.7,4.9,5.9,1.4,11.2,4.8,16.5,7.5l6.4,11.5-3.5,1.3c-1.8.6-1.4,1.9-2.6,2.3-1.2.4-3.4,1.1-4.1,1.1s-.7-.3-1.1-.3c.2,1.9,4.8,2.6,6.9,2.6l1.1.5,1.4-2.3h2.1c1.4-.1,3.4.5,4.3,1.1s2,1.1,2.1,1c0-.2.7-2.8,1.7-2.6,1.1.2,3.2,2,3.3,2.6.3.5.2,1.3.5,2.3.4,1,1.4,2.2,2.1,2.3.5,0,1.3.5,1.2.7s-.5,1.4-.5,2,1,.1,3.4.3,2.5,2,3.8,2c1.3,0,1.1.5,1.5,1.8.5,1.3.9.4,2.6.7,1.8.3,2.5,1.4,3.4,2.1.7.5,1.8.5,2.5,1s.2,1.4-.3,2c-.5.5.2.6,1.3.8,1.1.2,1.5-.4,2.6,1.3,1.1,1.6.9.7,1.8.5.9-.4,1.4.9,2.6,2.4.2.4.6.7,1.1,1.1h.2c1,.5,2,.9,3,1.3.9-.4,4.3-1.7,5.6-2.3,1.6-.7,2.8,1.1,3.9,2.3s4,2.3,4,2.3l.2,1.3c.5,0,1-.2,1.3-.5.5-.4,3,0,3.6-2.8-.4-.6-.7-1.1-1.1-1.5l1.1,1.1c1.3-.1,3.8.4,3.8.4,0,0,.5-1.4-1.6-2.6-2.1-1.1-3-2.4-1.1-3.6,2-1.1,3.7-.8,2.8-2.6-1.1-1.8-1.6-1.9-1.6-3.9.2-2-.9-2.6-3.5-3.6-4.8-4-3.5-7.7-2.6-12,1.1-.6,3.4-.8,3.7-2.6.5-1.7-1.6-3.9-1.6-5.6.3-1.6,2.9-8.5,3.2-9.2s5.5,1.8,6.9,1.3c1.3-.5,3.9-1.2,2.7-3.8-1.1-2.7-3.5-10.1-3.2-12.2s2.8-4.7,2.8-5.9-2.9-3.6-2.3-4.6c.5-1.1,6.8-4.6,7.1-5.1s.5-3.3,1.1-3.4c.5,0,4.8-1.9,5.3-1.6l3.6,2.9c.3.4-.5,2.5,1.8,4.2,2.3,1.6,2.9,1.9,4.1-.7,1.2-2.7,3.7-2.9,3.9-4.3,0-1.4-.6-2.9-2.6-4.4-1.9-1.4-2.7-6.1-3.8-6.9-1.2-.5-3,.8-4.9-.7-1.9-1.4-4.3-3.7-3.7-4.3.4-.7,2.7-.2,3-3.6.3-3.5.8-1.6,2-.5,1.2.9,3.9,2.1,5.1,1.6,1.3-.7,2.6-1.1,4.2-1.9,1.6-.9,2.1-.7,3.9-.5,1.3.2,2,.8,2.8.3.3-.2.7-.5,1.1-1.1,1.4-1.8,2.1-4,2.8-5.1.7-1.1,2.4-1.6,4.1-2,1.6-.5,2.7-1.6,3-2.3.4-.8.9-1.5,1.8-.5.9.9,2,2.3,2.3,3s.9-.3,1.8,0c1,.2,4.3,1.5,4.1-.3-.3-1.8-1.9-3.7-.3-5.3,1.6-1.8,3.5-2.8,3-4.9-.4-2.1-.2-2.1-2.7-3.1-2.2-.9-2.8-3.5-5.9-5.9-2.9-2.4-9.2-2.2-10.9-3.8-1.7-1.6-3-1.8-3.6-7.2-.5-5.3-5.2-7.1-5.1-10.2.2-3.1,1.6-.8,2.9-.7s5.6.4,6.4,1c.9.5,3.2,2,8.2,1.3s3.9,0,5.6-2.6,3.2-3.8,3.4-4.8c.1-1.1.7-2.9-1.6-1.3-2.1,1.6-1.3-2.3-3.2-2.3-2,.1-3.9-1-4.7-2.8-.9-1.9-2.6-2.4-2-3.4.5-.8-.9,1.1-2.8,0-2-.9-3-3-4.6-3s-1.8-2.1-1.8-2.8c0-.7-1-2.1-1.6-3.2-.5-1.3-1.9-2.3-4.3-1.6s-3.4.7-4.6-.5-2.4,1.6-4.1-.3c-1.6-1.7-3.4-3.9-3.6-5.1-.2-1.1-2.1-1.6-2.1-4.1s2.6-3.2,2.3-5.9c-.2-2.8-3.7-7.2-2.2-9,1.6-1.6,3.9-2,3.8-3.7-.2-1.8-1.3-2,.3-3.6,1.4-1.6,2.9-3.4,3.2-5.6.4-2.3.7-4.6,2.1-5.9,1.3-1.4,2.8-4.3,2.5-5.7s0-4.3,0-6.4.2-4.4.5-5.1c.4-.7,1.7-1.4,0-2-1.7-.7-3.3-1.9-4.6-1.6s-2.8-1.1-4,0-2.1,1.6-3.1.5c-1.1-1.1-2.1,0-3.6,1.1-1.6,1.1-2.7,2-3.9,3-1.2,1-3.2,3.7-5.3,2-3.1.4-9.2,1.2-13.1.7-3.3-.9-5.3-4.8-6.4-5.6-1.1-1-.3-2.3,1.3-1.3,4.1.5-1.1-7.9-4-5.4-.6-.5.3-2-1.1-3.4s-1.4-.5-2.8-1.5c2.3-3-1.4-5.3-3.6-1.8-1.4-3.7-8.9-1.8-6.9,1.3-1.6.9-3.8.5-5.9.3-1.6-1.3-2.4-3.4-3.3-3.4-.8,0-6.2,1.9-7.1,1.1-1-1.1-1.2-.5-2.1-.5-.9-.2-.1-3-3.3-1.9-3.2,1.2-1.6,2.5-1.1,3.6.6,1.1-.9,2.7-2.5,2.8s-2.9-.4-4,0c-1.2.5-2.9-1.4-3.9-2s.7-1.4.3-2c-.5-.7-1.5-1.6-2.3-1.3-.9.3-1.3,2.7-1.9.7s-1.7-1.1-2.6-.8-.5,3.5-1.6,3.6c-.9,0-2.1.5-2,1.6.2.9,1.3.9-1.1,3.2-2.3,2.3-4.6,3.7-7.1,1.6-2.5-2.1-3.1-2.1-4-2.3-1-.3-3.9-2.1-5.1-2.4-1.1-.1-1.2-1.1-2.3-1.2-1.1,0-2.5,2-4,2.9-1.5,1-1.3-.5-1.8-.7-2.9.7-6,.7-8.9,0,0,0-.2-3.1-.8-3.1s-.4,2.1-4,2.2c-3.7.1-4.1-.7-4.1-.7-1.1-2.6-2.5-1.9-4.2-3.2,0,0-.7,1.1-1.1,2.8-.2,1.6-2.3,1.8-4.8,1.8-2.5,0-2.2-.8-3.4-1.3-2-.8-4.7-1.6-5.9-2.6-1.3-.9-1.8-3.1-2.3-2.6-1.5,1.2-8.3.9-7.2-1.1,1.3-2.1,0-3.3-1-3.5h0ZM467.2,403.4v.2l.5.5c.4-.6,0-.4-.3-.7-.1-.1-.2-.1-.3,0h0ZM470.1,405.4c0,.1,0,.2-.3.3.2,0,.4.2.5.3v-.2c0-.2-.1-.3-.3-.3h0Z"/>
  <path id="Montenegro" class="st4" d="M576.6,341.3c-.1,0-.2,0-.3.3,0,.4-.2,1-.3,1.9-.3,3.4-2.7,2.9-3.1,3.6-.5.6,1.9,2.9,3.7,4.3,2,1.6,3.7.2,5,.9,1.1.7,1.9,5.3,3.8,6.9,1.9,1.5,2.7,2.9,2.6,4.3-.1,1.4-2.7,1.7-3.8,4.4-1.1,2.7-1.8,2.4-4,.8-2.3-1.6-1.5-3.7-1.8-4.1-.3-.3-3-2.4-3.6-2.8s-4.8,1.5-5.3,1.6c-.5,0-.7,2.7-1.1,3.3-.3.5-6.5,4-7.1,5.1s2.2,3.4,2.2,4.6-2.6,3.7-2.8,5.9,2.1,9.6,3.2,12.2c1.3,2.7-1.3,3.3-2.7,3.8-1.4.5-6.7-2-6.9-1.3s-2.9,7.5-3,9.2c-.2,1.7,2,3.9,1.5,5.6-.4,1.7-2.7,1.9-3.7,2.5s-1.1,2.1-1.3,4.6c-.2,2.7,1.2,6.4,3.8,7.5,2.7,1.1,3.7,1.6,3.6,3.6s.5,2.1,1.6,3.9c1,1.7-.9,1.4-2.8,2.5-2,1.1-.9,2.4,1.1,3.6s1.5,2.6,1.5,2.6c0,0-2.5-.5-3.7-.5l-1.1-1c.3.6.7,1.1,1.1,1.5-.6,2.8-3.7,2.8-3.7,2.8l-.7-.5c1.1,1.4,1.8,2.4,2,3.1.2.5.2,1.1,0,1.6v.2l.8,2.8.7.5c.7.3.4,1.9,1.1,2.5l1.8.8.7.2c1.4-.7,3.8-.9,5.3-.3,1.6.5,4.3.9,5.7-.8,1.3-1.6,3.4-2.8,1.1-4.3-2.4-1.6.7-1.4,1.2-2.4,0,.7-.1,2.1,1.8,1.8,2.8-.5,4-2.1,4.4,1.8.5,3.9,2,6.8,0,3.6-2-3.2-2.3-3.3-4.6-4.1-2.3-.8-1.9,2.8-1.1,3.8.9,1.1,2.7,2.4,2.1,3.8-.7,1.4-2.6-.6-5.4-1.1-2.9-.3-6.1-1.3-6.4.5s2.9,3.8,4.4,4.4,3.2.8,3.8-.5c.5-1.4,1.3-2,2.5-.3,1.1,1.7,1.1,3.7,3.7,6.1,2.7,2.4,3.4,3.9,4.8,2.8,1.5-1.1,5.6-3.6,7.2,0,1.6,3.5,6,5.3,6.9,7.1s4,5.2,6.1,4.6,4.4,3.3,3.5,3.8.4,2,2.6,3.4c2.1,1.3,3.6,2.4,3.4,5.9s1.4,6.6,6.9,7.5c5.3.8,7.1,1.5,8.6,3.3,1.4,1.8,3.2,2,3.2,2,0,0,.5-3.3-.2-3.8s-3-1.3-2.6-2.3c.4-1.1,1.8-1.3,1.2-2-.5-.7-2.4-2.1-1.6-2.8,1.1-.8,3.2-.6,2.7-1.3-.5-.7-2.7-6-2.7-8.2.3-2.1-6.7-9-4.5-15.5,2.1-6.4,4.3-8,3.8-10.6-.4-2.7-1.6-6.6-.3-7.5,1.3-.8,3.4-1.3,3.8-3s.6-2.5,1.6-3.6c.9-1.1.5-2,1.2-3.4.6-1.3,2-3.6,2-4.6s1-2.1,2.1-2.8c1.1-.5.8-2.1.4-4-.4-1.9.2-2.2,2.1-4.8,1.8-2.7,3.4-2.8,4-3.9s1.8-2.5,2.8-1c1.1,1.6.5,2.8,1.8,3.8s1.3,3.5.5,4.3c-.9.9-1.6,3.2-.3,4.3,1.2,1.3,3,4.6,4.6,5.2,1.5.6,3.2-.6,4-1.6.8-.9,2.7-.2,3.3-1.4s.5-2.5,2.1-2.5,6,.5,6.1-.8c0-1.3-.9-2.7.3-3.3,1.1-.5,2.9-.5,3-1.8.2-1.2-.8-3.4-.3-4.3.5-1.1,2.1-1.6,2.8-3.4.5-1.9,1.1-3-.8-3.6-1.8-.5-3.5-1.5-4.8-2.8-1.3-1.3-1.6-2.4-.9-3.9s1.9-3.7,3.5-3.2,10.2,1.9,11,1c.7-.9,2.5-4.2,4.3-5.9,1.9-1.8,3.6-4,2.9-5.6s-.3-5.1-1.6-5.9c-2.7-1.2-5.5-2-8.4-2.4-2-.4-5-3.1-6.4-2.3-1.5.8-3.2,2.1-5.2.5s-3.9,2-4.1.7c-.2-1.3,1.2-3.9.3-4.4s-5.1-4.8-5.6-5.6-1.3-1.9-3.9-1.3c-2.5.6-3.2,0-4-.8s-1.8,1.1-2.5.2c-.8-.7-1.1-2.1-2.9-2.3-1.9-.1-3.5-.3-4.1-1.1-.7-.6-.5-3-1.9-3s-2.7,1.6-4.1.5c-1.6-1.1-1.4-1.7-2.3-1.8-1,0-2-.5-1.6-2,.5-1.6-.2-2.4-1.2-2.8-1.1-.5-1.6-1.3-3-1.3s-1.6-.3-2.3-1.1-1.1-1.9-2.9-2.8-4.3-.2-4.8-1.3-2.8-3.5-3.9-3.6c-1.1,0-2.7-.3-3.6-1.6-1.1-1.1-.6-1.6-1.8-1.9-1.2-.4-3-1.2-3.4-2.1-.4-.9-1.6-.7-3.7-.7s-3.3,1.1-3.3-1.1,0-3.7-1.1-4.3c0,0-.4-.5-.5-.5-.7.2-1.3-.2-2.5-.3-1.6-.2-2.1-.4-3.7.5s-2.9,1.2-4.2,1.8c-1.1.5-3.8-.5-5.1-1.6-.6-.5-1.2-1.4-1.5-1.6h.7Z"/>
  <path id="Albania" class="st3" d="M642.8,422.9c-.8-.3-1.6.9-2.1,1.7-.5,1.2-2.1,1.3-4,3.9-1.9,2.7-2.4,3-2.1,4.8.4,2,.6,3.5-.4,4.2-1.1.7-2.1,1.9-2.1,2.9s-1.3,3.2-2,4.6-.4,2.2-1.3,3.4c-1,1.1-1.1,1.9-1.6,3.6s-2.6,2.2-3.7,3.1c-1.4.9-.2,4.8.2,7.5s-1.7,4.3-3.8,10.6c-2.1,6.4,4.8,13.5,4.6,15.7-.2,2.2,2.1,7.5,2.6,8.3.5.6-1.6.5-2.6,1.2-1.1.6,1.1,2,1.6,2.8.5.7-.9,1.1-1.3,2,.2.5.5.9.7,1.3.6.4,1.4.7,1.8,1.1.6.5.3,3.2.2,3.6,2.3,1.1,1.6-5.3,14.4,1.3,2.3,1.2,4.5-1.1,2.2,4-.9,2-4.3,4.5-3.8,7.2.7,2.3,4.8,5.3,3.3,6.9-3.1,3.1-7.7.5-10,3.6-2,2.7,5.4,3.1,4.8,7.1-1.6,10.4-12.4,7.1-5.3,16.3,5.5,7.3,11.7.5,10.1,9.7-9,13.2-2.9,11.3-3,16.8-.2,5.5-2,3.9,1.6,10.8,1.1,2.3-3.9,8.4-3.9,8.4-2.4,2.3,0,6.2,0,10-.9,3.1,0,6.9-.9,10,0,2.3-3.8,3.1-3,5.3,1.1,4.3,9.2,12.5,15.1,17.7,5.3,4.8,1.4,10.5,1.1,11.2-2.3,4.7-8.4-15.4-12.8-6.6,12.5,25.6,41.8,27.1,47.2,34.1,11.7,9.2,2.3,9.2,6.1,12.2,1.6,2.3,6.1,0,7.7,2.2,1.6,3.9-.5,6.9-.5,11.6.5,2.9,1.4,5.6,2.8,5.3,12.9-2.2,21.3,8.5,20.6-11.4,0-4.6,10.8,2.3,8.4-4.6l-8.7-15.3c5.4-2.1,4.9-4.3,7.2-8.7,2.9-5.9,12.7-.5,17.6-6.9,0-.2-1.1-5.6,0-8.4,1.2-2.9,2.7-6.1,1.6-10.3-1-3.8,2.7-3.7,3-6.7.4-2.9,0-6.1,0-6.1,5.3-20.8,10,4.6,17.6-24.5,2.4-9.3-9.9-8.7-9.9-18.7-1.6,0,2.2-7.5.7-8.9-2.3-1.6-6.2-2.3-9.2-1.6-2.3,0-5.3,8.5-10,3.2-3.1-4.6-23-33-23-39.1s4.6-4.6,3.9-6.9c-.8-5.3-8.5-8.4-9.2-13.8-.7-2.2,5.4-2.2,6.2-4.6,0-4.5-.7-12.5-1.3-17.2-.5-4.8-.7-7.6-.4-8.3.3-.5,2-1.2,1.1-3.2-.9-2.1,1.6-3.3,1.8-5.4.2-2.1-1.7-8.3-4.1-10.2-2.4-1.9-2.7-.4-2.7-5.6.2-5.2-1.6-2.6-3-6.4-1.4-3.8-4.8-8.6-8.2-9.2-3.5-.5-7-3.4-9-3.8-1.9-.5-4.2.1-5.3.7-1.1.6-1.6,1.3-1.8-2.3-.2-3.6-3.7-3.2-2.8-5.6,1-2.4-.2-2-1.8-3.5-1.6-1.5-.4-2.5-2.8-4.1-2.4-1.6-1.8-1.7-4.1-2.8-2.3-1.1-3-1.1-3.2-2s-.4-1.4-1.1-1.3v.3l-.3.3c-.5.5-1.7.5-2.6,1.1-1.1.5-.2,2-.2,3.2-.1,1.3-4.7.9-6.2.9s-1.4,1.3-2,2.6c-.7,1.2-2.6.5-3.4,1.5-.9.9-2.6,2.1-4.1,1.6-1.6-.7-3.4-4-4.6-5.2-1.3-1.2-.5-3.5.2-4.3.9-.9.7-3.4-.5-4.4-1.2-1.1-.7-2.3-1.8-3.8-.3-.4-.5-.7-.7-.7l.3-.3Z"/>
  <path id="North_Macedonia" class="st4" d="M835.5,425c-1,0,.4,1.8-2.1,2.4-3.3.9-2.2,1.9-.7,3.8,1.4,1.9-4.8-.6-6.2.5-1.3,1.1-6.2.9-6.9,1.1-.6,0-1.8.6-3-.3s-6.7-4-6.1-1.2c.5,2.8.2,5.1-3,3.3-3.2-1.9-5.7,2.4-6.9,3.6-1.1,1.2-2.7.7-3.2,1.3s0,2.9-.9,2.8c-.9,0-4.2-2.4-10.5.3-6.4,2.7-9.6-2.1-10.2.8.5,3.5-1.2,4.1-2.8,3.6s-3.2,4.2-3.8,5.3c-1.8,5.5,1.1,12.2-3.7,12.8-5,.5-4.1-7.5-10.3-10.2-1.1-1.5-3.2-1.1-6.9,3-3.7,4.1-7.5,3-11,7.2-3.5,4.3-2.1-.7-6.6,7.7-4.5,8.4-2.7,8.3-2,11.7.7,3.5.4,6.4-1.1,8.7-1.4,2.2-2-.3-2.8-.3s-1.9,2.3-3.6,2.3-2,1-3,2c-.1.2-.3.3-.5.3h-.2l-1.3-.5c.5,7.5,1.3,12.8,1.8,23.4-.1.3-.3.6-.5.8-1.4,1.3-5,1.7-5.6,3v.8c0,.6.2,1.2.5,1.8,1.7,3.7,6.4,6.7,8.1,10.3.3.6.4,1.1.5,1.8.1.6,0,1.2-.3,1.8-.4.5-.8,1.1-1.3,1.6-1.1,1.1-2.3,2.4-2.3,3.6,0,6.1,19.9,34.5,23,39.1.5.8,1,1.3,1.5,1.6.5.2,1.1.3,1.6.3,2.9-.1,5.1-4.9,6.9-4.9,3-.7,6.8,0,9.2,1.6.1.1.2.4.2.7.6,1.7-.8,4.5.5,4.5,1.3.2,12.2-7.1,18.4-6.4,7.1.9,5.7-3.6,12.5-5.9,11.3-3.8,10.1,4.5,16-.8,2.9-2.6,2.1-4.9,4.6-5.3,5.2-1.1,6.9-.2,7.7-.8,2.1-2.3-.3-2.2.5-4.4.9-2,5-6.2,5.2-8.1.3-3.7-.3-7.2,7.5-9.9,4.3-4.1,4.6.1,7.9-1.8,3.9-2.1,9.4-5.3,14.4-3.5,4.5,1.7,8.9,2.1,12.8.7,4.5-1.6,8.5-1.3,9.6-2,2.3-1.6.9-4.8,3.2-6.4,1.5-.8,3,4.6,4.5,3,9.2-6.1-13.7-19.9,14.9-22.7h.4c.4-6.4-2.1-14.6-3.8-21.2-2.5-9.7,3-10.5,2.8-16.4v-.5h-.3c-.5-.5-1.9-2.1-2.8-4.3-2.1-5.7-3.7-5.3-4.8-6.9-1-1.6-2.9-4.8-3.8-10.5-1-5.9-3.7-3.6-5.1-3.8-1.4-.2-2.1.2-4.3-.2-2.3-.4-3.6-1.9-5.4-1.6-1.9.5-3.5-.9-5.9-1.4-2.4-.5-4.3-2.5-6.7-3.6-2.4-1-3.3-4.3-3.8-5.3-.5-1-2.3-.4-3-1.8-.7-1.4-3-3.2-5.1-5.1-2.1-1.8-3.7-3.6-4.6-2.2-1,1.3-1.8-.9-5.9-3.4-1-.5-1.6-.7-1.8-.7l-.2-.6Z"/>
  <path id="Kosovo" class="st3" d="M715.4,349.4c-2.6.4-4.7,5.1-6.1,8.5-1.4,3.4-2.9,1.1-4.3,2.8-1.5,1.9-4.8-.9-4.4,1.1.4,2,.7,3.1,6.2,3.1s1.1,1.2,1.1,3.3,4.5,1.1,3,3.1-1.3,2.3.5,4.3c1.8,2.1-3,3.4-4.2,1.6-1.1-1.8-1.5-.5-2.7,2.1-1.1,2.4-5.3,5.6-6.6,8.1-1.2,2.6,3.5,2.1,3.1,4.6-.3,2.2-7.1,4.6-14.1,7.1-.1,1.6-1.4,3.3-2.8,4.7-1.9,1.8-3.7,5-4.3,5.9-.9,1-9.5-.5-11.2-1.1-1.6-.5-2.8,2-3.6,3.4-.7,1.4-.5,2.7.7,3.9,1.3,1.2,2.9,2.2,4.9,2.8,1.8.6,1.3,1.8.7,3.6s-2.3,2.3-2.8,3.4c-.5,1,.4,3.2.2,4.3,0,.1-.2.2-.3.3.5-.1.8.3.9,1.3.2,1,1,1,3.4,2,2.4,1.1,1.8,1.2,4.2,2.8,2.3,1.6,1.2,2.7,2.8,4.2s2.8,1.1,1.8,3.6,2.7,2.1,2.8,5.7c.1,3.6.6,2.9,1.8,2.3s3.4-1.3,5.3-.7c2,.5,5.5,3.2,9,3.9,3.4.5,6.7,5.3,8.1,9.2,1.4,3.8,3.2,1.2,3,6.4-.1,5.2.2,3.7,2.6,5.6,2.4,2,4.3,8.1,4.1,10.3s-2.7,3.4-1.8,5.3c.9,2.1-.7,2.7-1.1,3.4-.1.3,0,1.2,0,2.1.5.1.9.3,1.3.5h.3c.3,0,.5-.2.5-.3,1.1-1.1,1.5-2.1,3.2-2.1s2.8-2.1,3.6-2.1,1.4,2.4,2.8.2,1.6-5.3,1.1-8.7c-.7-3.4-2.5-3.4,2-11.7,4.5-8.4,3.2-3.5,6.7-7.7,3.5-4.3,7.3-3.1,11-7.2,3.7-4,5.9-4.5,6.9-3,6.1,2.7,5.3,10.6,10.1,10.2,4.8-.5,2-7.3,3.7-12.8.7-1.2,2.3-5.9,3.9-5.3,1.6.5,3.4-.2,2.8-3.6.5-2.9,3.8,1.9,10.1-.8l1.6-.5c-.7-1.8-1.2-2.7-1.8-4-1.8-4.5-1.4-5.3.2-8.9,1.6-3.6.8-4.2.8-7.5s1.1-4.3,2.3-7.1c1.3-2.9,0-4.6,2-5.6s.4-3,1.3-7.7c.9-4.8-2.8-7.3-4.6-4.1s-2.7,3.9-3.5,1.7c-.9-2.2-7.1-4.3-8.9-3.6s-8,1.9-9.5,1.8c-1.4-.2-1.4-3.9-.5-9.7,1-5.7-1.8-4.8-3.5-5.1-1.8-.4-3.4-3.6-5.9-1.8s-2.8,1.3-3.9,0c-1.1-1.3-.3-8.3-3.3-8.7-3.1-.3-1.8,1.8-2.3,3.1-.5,1.3-4.4-1.4-4.4-5.1s-1.1-8.7-2.6-7.2c-1.5,1.5-2.5.7-2.3-1.1.2-1.8-.5-3.1-2-1.3-1.4,1.9-1.8,1.3-3,.5-1.3-.7-4.3,2.2-5.1,1.3-.9-.9-3.7,1.2-5.6-.2-1.9-1.4,2.7-3.4,2.8-4.8.2-1.5-6.2-7.8-8.7-7.5l.2-.6Z"/>
  <g>
    <path class="st0" d="M799.4,505.3l4.1-11.4h3.2v17h-2.6v-13,.8c.1,0-3.6,10.1-3.6,10.1h-2.2l-3.7-9.9v-1c.1,0,.1,13,.1,13h-2.6v-17h3.2l4.1,11.4Z"/>
    <path class="st0" d="M810.8,510.9v-17h2.8v17h-2.8ZM812.7,507.7v-3.9s7.1-10,7.1-10h3.5l-10.6,13.9ZM820.7,510.9l-5.2-8.9,2.3-1.7,6.2,10.6h-3.4Z"/>
  </g>
  <g>
    <path class="st0" d="M695.7,270.2v-17.1h2.8v17.1h-2.8ZM696.9,263.2v-2.7h5.9c.6,0,1.1-.2,1.4-.6s.5-1,.6-1.7c0-.7-.2-1.3-.5-1.7s-.8-.6-1.4-.6h-5.9v-2.7h6c1,0,1.8.2,2.5.6s1.3,1,1.7,1.7.6,1.6.6,2.6-.2,1.9-.6,2.6-1,1.3-1.7,1.8-1.6.6-2.5.6h-6ZM705,270.2l-4-7.6,2.9-.5,4.5,8.1h-3.4Z"/>
    <path class="st0" d="M716.1,270.4c-.8,0-1.6,0-2.4-.2s-1.5-.4-2.1-.7-1.3-.7-1.8-1.2l1.5-2.2c.7.6,1.4,1,2.2,1.3s1.7.4,2.6.4,2-.2,2.7-.6.9-1,.9-1.7h0c0-.6-.2-1-.5-1.3s-.7-.5-1.2-.7-1.1-.3-1.7-.4c-.6-.1-1.3-.2-2-.4s-1.3-.4-1.8-.7-1-.8-1.3-1.4-.5-1.4-.5-2.4h0c0-1.6.5-2.9,1.6-3.8s2.6-1.3,4.6-1.3,1.8.2,2.7.5,1.8.7,2.6,1.3l-1.4,2.3c-.7-.5-1.3-.8-2-1.1s-1.3-.4-2-.4c-1.1,0-1.9.2-2.5.6s-.9,1-.9,1.7h0c0,.6.2,1.1.5,1.4s.8.5,1.4.7,1.2.3,1.8.4c.6.1,1.3.3,1.9.5s1.2.4,1.7.8.9.8,1.3,1.4.5,1.4.5,2.3h0c0,1.6-.6,2.9-1.7,3.8s-2.7,1.3-4.7,1.3Z"/>
  </g>
  <g>
    <path class="st0" d="M472.5,292.9v-17h2.8v17h-2.8ZM473.9,292.9v-2.6h5c1,0,1.7-.2,2.2-.6s.7-1,.7-1.7h0c0-.8-.2-1.4-.6-1.8s-1.1-.6-2-.6h-5.3v-2.6h5.3c.8,0,1.4-.2,1.8-.6s.6-.9.6-1.6-.2-1.2-.6-1.6-1.1-.5-1.9-.5h-5.2v-2.6h5.4c1.7,0,2.9.4,3.8,1.2s1.3,1.9,1.3,3.4-.3,1.7-.8,2.4-1.3,1.1-2.4,1.3c1.1.2,1.9.6,2.5,1.3s.9,1.6.9,2.7h0c0,1.5-.5,2.6-1.4,3.4s-2.2,1.2-3.8,1.2h-5.6Z"/>
    <path class="st0" d="M486,292.9l6.4-17h2l6.4,17h-3l-4.4-12.7-4.4,12.7h-3ZM489,289.7v-2.7h9v2.7h-9Z"/>
  </g>
  <g>
    <path class="st0" d="M333.2,174.7v-17h2.8v17h-2.8ZM334.7,167.7v-2.7h9.7v2.7h-9.7ZM342.7,174.7v-17h2.8v17h-2.8Z"/>
    <path class="st0" d="M349.5,174.7v-17.1h2.8v17.1h-2.8ZM350.7,167.7v-2.7h5.9c.6,0,1.1-.2,1.4-.6s.5-1,.6-1.7c0-.7-.2-1.3-.5-1.7s-.8-.6-1.4-.6h-5.9v-2.7h6c1,0,1.8.2,2.5.6s1.3,1,1.7,1.7.6,1.6.6,2.6-.2,1.9-.6,2.6-1,1.3-1.7,1.8-1.6.6-2.5.6h-6ZM358.8,174.7l-4-7.6,2.9-.5,4.5,8.1h-3.4Z"/>
  </g>
  <g>
    <path class="st0" d="M598,411.7l4.1-11.4h3.2v17h-2.6v-13,.8c.1,0-3.6,10.1-3.6,10.1h-2.2l-3.7-9.9v-1c.1,0,.1,13,.1,13h-2.6v-17h3.2l4.1,11.4Z"/>
    <path class="st0" d="M609.3,417.4v-17h2.8v17h-2.8ZM610.5,403.1v-2.7h10v2.7h-10ZM610.5,410.3v-2.7h8.7v2.7h-8.7ZM610.5,417.4v-2.7h10v2.7h-10Z"/>
  </g>
</svg>